<?xml version="1.0" encoding="UTF-8"?>
<svg width="24px" height="24px" viewBox="0 0 24 24" version="1.1" xmlns="http://www.w3.org/2000/svg" xmlns:xlink="http://www.w3.org/1999/xlink">
    <title>关闭</title>
    <defs>
        <rect id="path-1" x="0" y="0" width="24" height="24"></rect>
        <path d="M4.92927512,3.20086808 L12,10.271 L19.0707249,3.20086808 C19.4612492,2.81034379 20.0944142,2.81034379 20.4849384,3.20086808 L20.7991319,3.51506155 C21.1896562,3.90558585 21.1896562,4.53875083 20.7991319,4.92927512 L13.729,12 L20.7991319,19.0707249 C21.1896562,19.4612492 21.1896562,20.0944142 20.7991319,20.4849384 L20.4849384,20.7991319 C20.0944142,21.1896562 19.4612492,21.1896562 19.0707249,20.7991319 L12,13.729 L4.92927512,20.7991319 C4.53875083,21.1896562 3.90558585,21.1896562 3.51506155,20.7991319 L3.20086808,20.4849384 C2.81034379,20.0944142 2.81034379,19.4612492 3.20086808,19.0707249 L10.271,12 L3.20086808,4.92927512 C2.81034379,4.53875083 2.81034379,3.90558585 3.20086808,3.51506155 L3.51506155,3.20086808 C3.90558585,2.81034379 4.53875083,2.81034379 4.92927512,3.20086808 Z" id="path-3"></path>
        <filter x="-33.8%" y="-33.8%" width="167.7%" height="167.7%" filterUnits="objectBoundingBox" id="filter-4">
            <feOffset dx="0" dy="0" in="SourceAlpha" result="shadowOffsetOuter1"></feOffset>
            <feGaussianBlur stdDeviation="2" in="shadowOffsetOuter1" result="shadowBlurOuter1"></feGaussianBlur>
            <feComposite in="shadowBlurOuter1" in2="SourceAlpha" operator="out" result="shadowBlurOuter1"></feComposite>
            <feColorMatrix values="0 0 0 0 0.0378825733   0 0 0 0 0.194408319   0 0 0 0 0.454313859  0 0 0 0.3 0" type="matrix" in="shadowBlurOuter1"></feColorMatrix>
        </filter>
    </defs>
    <g id="年度总结2021年" stroke="none" stroke-width="1" fill="none" fill-rule="evenodd">
        <g id="惊喜红包-分享后" transform="translate(-331.000000, -64.000000)">
            <g id="Group-15" transform="translate(187.500000, 406.000000) rotate(-270.000000) translate(-187.500000, -406.000000) translate(-218.500000, 218.500000)">
                <g id="Group-12" transform="translate(-0.000000, 0.000000)">
                    <g id="关闭" transform="translate(64.000000, 20.000000)">
                        <mask id="mask-2" fill="white">
                            <use xlink:href="#path-1"></use>
                        </mask>
                        <use id="蒙版" fill="#D8D8D8" opacity="0" xlink:href="#path-1"></use>
                        <g id="形状结合" fill-rule="nonzero" mask="url(#mask-2)">
                            <use fill="black" fill-opacity="1" filter="url(#filter-4)" xlink:href="#path-3"></use>
                            <path stroke-opacity="0.278900787" stroke="#979797" stroke-width="0.3" d="M19.7778317,3.05797486 C19.9953656,3.05797486 20.2128996,3.14096127 20.3788724,3.3069341 C20.6839483,3.61200997 20.8501678,3.90061096 20.8974512,4.16072122 C20.9452573,4.42370686 20.864659,4.65161598 20.6930615,4.82321355 L20.6930615,4.82321355 L13.5168769,12 L20.6930659,19.1767909 C20.8590387,19.3427637 20.9420251,19.5602977 20.9420251,19.7778317 C20.9420251,19.9953656 20.8590387,20.2128996 20.6930659,20.3788724 C20.38799,20.6839483 20.099389,20.8501678 19.8392788,20.8974512 C19.5762931,20.9452573 19.348384,20.864659 19.1767865,20.6930615 L19.1767865,20.6930615 L12,13.5168769 L4.8232091,20.6930659 C4.65723628,20.8590387 4.43970231,20.9420251 4.22216834,20.9420251 C4.00463437,20.9420251 3.7871004,20.8590387 3.62112757,20.6930659 C3.3160517,20.38799 3.1498322,20.099389 3.10254881,19.8392788 C3.05474272,19.5762931 3.13534098,19.348384 3.30693855,19.1767865 L3.30693855,19.1767865 L10.4831231,12 L3.3069341,4.8232091 C3.14096127,4.65723628 3.05797486,4.43970231 3.05797486,4.22216834 C3.05797486,4.00463437 3.14096127,3.7871004 3.3069341,3.62112757 C3.61200997,3.3160517 3.90061096,3.1498322 4.16072122,3.10254881 C4.42370686,3.05474272 4.65161598,3.13534098 4.82321355,3.30693855 L4.82321355,3.30693855 L12,10.4831231 L19.1767909,3.3069341 C19.3427637,3.14096127 19.5602977,3.05797486 19.7778317,3.05797486 Z" stroke-linejoin="square" fill-opacity="0.4" fill="#3F3D56" fill-rule="evenodd"></path>
                        </g>
                    </g>
                </g>
            </g>
        </g>
    </g>
</svg>