<?xml version="1.0" encoding="UTF-8"?>
<svg width="24px" height="24px" viewBox="0 0 24 24" version="1.1" xmlns="http://www.w3.org/2000/svg" xmlns:xlink="http://www.w3.org/1999/xlink">
    <title>关闭</title>
    <defs>
        <rect id="path-1" x="0" y="0" width="24" height="24"></rect>
    </defs>
    <g id="页面-667" stroke="none" stroke-width="1" fill="none" fill-rule="evenodd">
        <g id="惊喜红包-开" transform="translate(-15.000000, -54.000000)">
            <g id="关闭" transform="translate(15.000000, 54.000000)">
                <mask id="mask-2" fill="white">
                    <use xlink:href="#path-1"></use>
                </mask>
                <use id="蒙版" fill="#D8D8D8" opacity="0" xlink:href="#path-1"></use>
                <path d="M4.92927512,3.20086808 L12,10.271 L19.0707249,3.20086808 C19.4612492,2.81034379 20.0944142,2.81034379 20.4849384,3.20086808 L20.7991319,3.51506155 C21.1896562,3.90558585 21.1896562,4.53875083 20.7991319,4.92927512 L13.729,12 L20.7991319,19.0707249 C21.1896562,19.4612492 21.1896562,20.0944142 20.7991319,20.4849384 L20.4849384,20.7991319 C20.0944142,21.1896562 19.4612492,21.1896562 19.0707249,20.7991319 L12,13.729 L4.92927512,20.7991319 C4.53875083,21.1896562 3.90558585,21.1896562 3.51506155,20.7991319 L3.20086808,20.4849384 C2.81034379,20.0944142 2.81034379,19.4612492 3.20086808,19.0707249 L10.271,12 L3.20086808,4.92927512 C2.81034379,4.53875083 2.81034379,3.90558585 3.20086808,3.51506155 L3.51506155,3.20086808 C3.90558585,2.81034379 4.53875083,2.81034379 4.92927512,3.20086808 Z" id="形状结合" fill="#FFFFFF" mask="url(#mask-2)"></path>
            </g>
        </g>
    </g>
</svg>