<?xml version="1.0" standalone="no"?><!DOCTYPE svg PUBLIC "-//W3C//DTD SVG 1.1//EN" "http://www.w3.org/Graphics/SVG/1.1/DTD/svg11.dtd"><svg t="1604403363213" class="icon" viewBox="0 0 1024 1024" version="1.1" xmlns="http://www.w3.org/2000/svg" p-id="2979" xmlns:xlink="http://www.w3.org/1999/xlink" width="128" height="128"><defs><style type="text/css"></style></defs><path d="M200.369174 233.723073V88.984614h623.261529v144.738459h88.984614V88.984614A88.953845 88.953845 0 0 0 823.630703 0H200.369174a88.953845 88.953845 0 0 0-88.984614 88.984614v144.738459zM815.476857 679.015374v255.999997H192.215328v-255.999997H103.230714v255.999997a88.953845 88.953845 0 0 0 88.984614 88.984614h623.261529a88.953845 88.953845 0 0 0 88.984614-88.984614v-255.999997z" p-id="2980" fill="#161616"></path><path d="M448.215324 812.553834a55.630768 55.630768 0 1 0 27.815384-48.184615 55.630768 55.630768 0 0 0-27.815384 48.184615z m0 0M935.107624 233.04615H89.046099A88.953845 88.953845 0 0 0 0.061485 322.030764v267.076919a88.953845 88.953845 0 0 0 88.984614 88.984615h845.907679a88.953845 88.953845 0 0 0 88.984614-88.984615v-267.076919a88.846153 88.846153 0 0 0-88.830768-88.984614zM332.907633 521.076915q-4.430769 79.999999-112.476921 83.184614-107.553845 4.153846-127.046152-88.384614l46.923076-13.846153q6.876923 63.553845 78.753845 60.76923 63.492307 0 63.476922-42.769231 5.938461-31.753846-71.476922-46.96923-112.076921-22.430769-107.692306-84.476921 4.230769-77.461537 107.692306-80.523076 93.769229 1.430769 113.261537 78.692306l-48.353845 13.846154q-12.307692-52.492307-63.538461-51.138461-57.96923 0.384615-59.33846 38.984615-5.4 27.692307 64.984614 40.092307 117.292306 22.046154 114.830767 92.53846z m152.969229 77.384614h-103.523075V312.553841h106.50769q139.323075 1.430769 140.692306 143.676921 4.153846 146.338459-143.676921 142.230767z m381.123071 1.307693l-98.061537-135.384614-45.553845 45.615384v89.738461h-48.276923V313.923072h48.353846v135.384614l135.384613-135.384614h66.276922l-124.30769 120.13846 129.846152 165.70769z" p-id="2981" fill="#161616"></path><path d="M487.307631 355.307687h-58.030768v204.169228h56.923076l-0.2 0.261538q96.630768 1.430769 95.261537-102.215383-1.415385-100.707691-93.953845-102.215383z" p-id="2982" fill="#161616"></path></svg>