<?xml version="1.0" standalone="no"?><!DOCTYPE svg PUBLIC "-//W3C//DTD SVG 1.1//EN" "http://www.w3.org/Graphics/SVG/1.1/DTD/svg11.dtd"><svg t="1604483637109" class="icon" viewBox="0 0 1024 1024" version="1.1" xmlns="http://www.w3.org/2000/svg" p-id="21789" xmlns:xlink="http://www.w3.org/1999/xlink" width="128" height="128"><defs><style type="text/css"></style></defs><path d="M707.530105 154.731789c43.034947 0 65.536 4.311579 89.357474 17.030737 22.177684 11.856842 40.259368 29.642105 53.167158 52.385685 12.180211 21.423158 18.189474 42.307368 22.016 77.904842l0.808421 7.868631 0.727579 8.353684 34.762105 425.687579c7.437474 90.893474-53.490526 171.331368-137.081263 182.568421l-5.847579 0.673685-6.898526 0.485052-6.871579 0.161684H272.303158c-84.911158 0-154.085053-72.326737-157.184-162.762105l-0.10779-6.359579 0.161685-7.410526 0.458105-7.356632 35.462737-433.583158c3.772632-40.744421 9.728-63.191579 22.851368-86.231578a132.931368 132.931368 0 0 1 53.167158-52.385685c20.830316-11.156211 40.663579-15.764211 73.674105-16.78821l7.841685-0.188632 7.841684-0.053895h391.06021z m0 89.680843l-396.395789 0.026947-10.940632 0.215579c-18.216421 0.646737-26.974316 2.640842-35.84 7.383579-8.084211 4.311579-14.362947 10.482526-19.078737 18.809263-4.823579 8.461474-7.356632 16.869053-9.431579 33.010526l-0.646736 5.685895-0.592843 5.578105-0.970105 11.021474-34.762105 425.660632c-0.215579 2.290526-0.296421 4.634947-0.296421 6.952421 0 40.528842 28.240842 74.186105 64.943158 78.874947l4.419368 0.404211 4.365474 0.134736h479.393684c2.155789 0 4.311579-0.107789 6.440421-0.296421 37.456842-3.530105 66.128842-36.783158 67.260632-76.584421v-4.796631l-0.269474-4.688842-34.762105-425.660632c-2.048-25.061053-4.096-37.672421-7.68-47.023158l-0.943158-2.263579-0.970105-2.128842-2.048-3.880421a46.888421 46.888421 0 0 0-19.078737-18.809263c-11.048421-5.928421-22.069895-7.626105-52.116211-7.626105z m-106.711579 163.678315c4.446316-20.884211 25.815579-34.384842 47.72379-30.181052 21.935158 4.203789 36.163368 24.576 31.717052 45.487158a173.648842 173.648842 0 0 1-1.536 6.629052c-19.402105 76.395789-87.848421 130.317474-166.723368 130.317474a172.193684 172.193684 0 0 1-163.139368-118.029474l-2.074948-6.656-1.509052-5.605052-1.320421-5.524211c-4.581053-20.884211 9.512421-41.337263 31.393684-45.675789 20.614737-4.096 40.825263 7.518316 46.942316 26.273684l0.970105 3.610947 0.754526 3.17979c10.644211 41.957053 46.888421 71.221895 87.983158 71.221894 39.343158 0 74.266947-26.866526 86.501053-66.021052l1.455158-5.200842 0.889263-3.826527zM381.493895 17.569684L635.122526 17.515789c38.426947 0 55.403789 3.072 73.189053 11.910737a90.650947 90.650947 0 0 1 37.564632 34.519579c5.497263 9.000421 8.919579 17.030737 10.24 29.749895a345.573053 345.573053 0 0 0-40.55579-2.586947l-8.030316-0.053895H316.469895c-19.267368 0-34.896842 0.835368-50.095158 0.970105 2.802526-11.048421 6.251789-19.078737 11.749052-28.079158 9.162105-15.036632 21.800421-26.677895 37.564632-34.492631 16.599579-8.299789 32.471579-11.506526 65.751579-11.88379z" fill="#333333" p-id="21790"></path></svg>