<?xml version="1.0" standalone="no"?><!DOCTYPE svg PUBLIC "-//W3C//DTD SVG 1.1//EN" "http://www.w3.org/Graphics/SVG/1.1/DTD/svg11.dtd"><svg t="1604483611805" class="icon" viewBox="0 0 1024 1024" version="1.1" xmlns="http://www.w3.org/2000/svg" p-id="21024" xmlns:xlink="http://www.w3.org/1999/xlink" width="128" height="128"><defs><style type="text/css"></style></defs><path d="M186.368 860.16c-27.136 0-52.736-10.752-71.168-29.696-18.432-19.456-28.16-45.056-27.648-72.704l8.704-275.456c5.12-159.232 138.24-293.888 296.96-300.544l458.24-19.456c29.184-1.024 56.32 9.216 75.776 29.696 18.432 19.456 28.16 45.056 27.648 72.704l-8.704 275.456c-5.12 159.232-138.24 293.888-296.96 300.544l-458.24 19.456h-4.608zM856.064 189.952h-3.584l-458.24 19.456c-144.384 6.144-265.728 129.024-270.336 273.92l-8.704 275.456c-0.512 19.968 6.144 38.912 19.968 52.736 13.824 14.336 33.28 22.016 54.784 20.992l458.24-19.456c144.384-6.144 265.728-129.024 270.336-273.92l8.704-275.456c0.512-19.968-6.144-38.912-19.968-52.736-13.312-13.824-31.744-20.992-51.2-20.992z" fill="#373737" p-id="21025"></path><path d="M224.768 562.688c11.776-4.096 24.576-6.144 38.912-6.144 8.192 0 14.336-0.512 18.944-2.048 12.288-5.12 16.384-15.36 12.288-30.208-9.728-22.016-38.912-25.6-87.552-11.776-72.192 31.232-96.768 87.552-74.24 168.96 32.768 76.288 87.04 103.936 162.816 82.432 51.2-18.944 72.704-40.96 65.024-65.536-7.168-14.848-17.92-19.968-31.744-16.384-3.584 1.536-8.704 5.12-15.872 11.776-11.264 11.264-23.04 18.432-34.304 23.04-41.472 11.776-72.192-6.144-91.648-52.736-14.336-50.688-2.048-84.48 37.376-101.376z m137.216-75.776c-7.168-16.896-18.432-23.04-35.328-17.92-15.872 6.656-21.504 18.432-16.384 35.84l68.096 193.024c7.168 17.92 18.944 24.064 35.84 19.456l86.528-30.208c14.336-5.12 20.48-15.872 17.408-32.256-6.656-15.872-17.92-20.992-34.304-15.36l-60.928 21.504c0.512 0.512-60.928-174.08-60.928-174.08z m258.56-115.2c-15.872 6.656-21.504 18.432-16.384 35.84l43.008 121.856c9.728 35.84-1.024 61.44-32.768 75.264-33.792 9.728-58.88-2.56-74.24-37.888l-43.008-121.856c-7.168-16.896-18.432-23.04-35.328-17.92-15.872 6.656-21.504 18.432-16.384 35.84l43.52 124.416c27.136 59.392 73.728 79.872 140.288 61.44 62.464-27.136 85.504-72.192 69.12-135.168l-43.52-124.416c-6.144-16.384-17.92-22.528-34.304-17.408z m285.184 81.408c-13.824-30.72-38.4-43.52-73.216-39.424l-0.512-1.536c18.432-16.384 23.552-36.864 14.848-61.44-15.872-36.864-44.544-49.664-86.528-37.888l-66.048 23.552c-16.896 7.168-23.04 18.432-17.92 35.328l68.608 194.56c6.656 15.872 18.432 21.504 35.84 16.384l71.68-25.088c51.2-20.48 68.608-55.296 53.248-104.448z" fill="#373737" p-id="21026"></path><path d="M835.072 518.144l-40.448 14.336-19.968-56.832 36.352-12.8c23.552-8.192 38.912-3.584 46.08 14.336 5.632 19.456-1.536 32.768-22.016 40.96z m-49.664-97.792l-27.136 9.728-17.92-51.2 27.136-9.728c18.432-5.632 30.72-0.512 36.864 14.336 5.12 17.408-1.536 29.696-18.944 36.864z" fill="#FFFFFF" p-id="21027"></path></svg>