<?xml version="1.0" standalone="no"?><!DOCTYPE svg PUBLIC "-//W3C//DTD SVG 1.1//EN" "http://www.w3.org/Graphics/SVG/1.1/DTD/svg11.dtd"><svg t="1604555503647" class="icon" viewBox="0 0 1278 1024" version="1.1" xmlns="http://www.w3.org/2000/svg" p-id="28917" xmlns:xlink="http://www.w3.org/1999/xlink" width="159.75" height="128"><defs><style type="text/css"></style></defs><path d="M525.591271 0c-121.687221 0-220.338707 98.637726-220.358722 220.323696-0.01376 121.68597 98.612708 220.352467 220.299929 220.387492 121.670959-0.117587 220.278662-98.71028 220.410009-220.382489-0.01376-121.690973-98.666497-220.328699-220.351216-220.328699z m0.015011 385.745662c-91.333591 0.007506-165.384439-74.017073-165.408206-165.354417-0.017513-91.33234 73.998309-165.394446 165.335652-165.425719v0.003753c91.31858 0.072553 165.339406 74.065859 165.444483 165.384439 0 91.338594-74.035837 165.381937-165.371929 165.391944zM604.654565 442.768956a21.515864 21.515864 0 0 0-18.753828 6.069475l-60.372012 60.340739-60.372013-60.399533a21.498351 21.498351 0 0 0-18.753827-6.064471C235.980239 476.32995 123.621146 641.615566 121.480818 920.727607c-0.17638 18.871414 21.335731 27.725442 23.886362 28.694907 144.861807 55.153165 278.173849 74.578737 394.170624 74.578737 160.392008 0 287.668349-37.127374 366.564019-68.573059 7.764475-3.109793 23.738753-14.774643 23.591144-31.094176-2.666966-281.516313-115.201188-448.034088-325.038402-481.56506zM178.680492 902.685554c4.343202-237.652722 94.074361-374.409804 266.916799-406.658581l65.205576 65.176805c8.146006 8.135999 21.344487 8.135999 29.489243 0l65.178056-65.149285C819.554261 536.366716 869.426032 740.303329 872.495795 908.913896c-125.785242 49.390166-379.424752 112.168953-693.815303-6.228342z" fill="#161616" p-id="28918"></path><path d="M525.544987 883.7591a21.638454 21.638454 0 0 1-15.328802-6.362191l-81.646449-81.64895a21.684738 21.684738 0 0 1-5.24887-22.182606l81.652703-245.264584a21.653465 21.653465 0 0 1 20.512624-14.859706 21.653465 21.653465 0 0 1 20.512624 14.859706l81.852851 245.439713a21.688491 21.688491 0 0 1-5.242615 22.185108l-81.6477 81.530112a21.698498 21.698498 0 0 1-15.416366 6.303398z m-56.853168-109.228035l56.853168 56.853168 56.823146-56.735581-56.823146-170.885995-56.853168 170.768408z m0 0" fill="#161616" p-id="28919"></path></svg>