<?xml version="1.0" standalone="no"?><!DOCTYPE svg PUBLIC "-//W3C//DTD SVG 1.1//EN" "http://www.w3.org/Graphics/SVG/1.1/DTD/svg11.dtd"><svg t="1605010290878" class="icon" viewBox="0 0 1024 1024" version="1.1" xmlns="http://www.w3.org/2000/svg" p-id="14847" xmlns:xlink="http://www.w3.org/1999/xlink" width="128" height="128"><defs><style type="text/css"></style></defs><path d="M841.4 94.8h82.9v129.9h-82.9zM91.3 799.1h82.9V929H91.3z" fill="#161616" p-id="14848"></path><path d="M919.8 100v119.4H496V100h423.8m9.9-35.8H486c-14.3 0-25.9 11.6-25.9 25.9v139.3c0 14.3 11.6 25.9 25.9 25.9h443.7c14.3 0 25.9-11.6 25.9-25.9V90.1c0-14.3-11.6-25.9-25.9-25.9zM522.1 804.4v119.4H98.3V804.4h423.8m9.9-35.8H88.3c-14.3 0-25.9 11.6-25.9 25.9v139.3c0 14.3 11.6 25.9 25.9 25.9H532c14.3 0 25.9-11.6 25.9-25.9V794.4c0-14.3-11.6-25.8-25.9-25.8z" fill="#161616" p-id="14849"></path><path d="M759.1 882H535.5v-23.9h223.6c98.4 0 178.5-73.6 178.5-164.1s-80.1-164.1-178.5-164.1h-209V506h209c111.6 0 202.4 84.3 202.4 188s-90.8 188-202.4 188z" fill="#161616" p-id="14850"></path><path d="M556.6 529.8H271.9c-112.2 0-203.4-85.7-203.4-191s91.3-191 203.4-191h218.6v23.9H271.9c-99 0-179.6 75-179.6 167.1s80.6 167.1 179.6 167.1h284.8v23.9z" fill="#161616" p-id="14851"></path></svg>