<?xml version="1.0" standalone="no"?><!DOCTYPE svg PUBLIC "-//W3C//DTD SVG 1.1//EN" "http://www.w3.org/Graphics/SVG/1.1/DTD/svg11.dtd"><svg t="1605010334350" class="icon" viewBox="0 0 1024 1024" version="1.1" xmlns="http://www.w3.org/2000/svg" p-id="15740" xmlns:xlink="http://www.w3.org/1999/xlink" width="128" height="128"><defs><style type="text/css"></style></defs><path d="M43.359086 255.297829v738.421028h168.608914v-603.574857h592.340114v120.4224h168.608915V257.404343c0-9.128229-17.642057-13.838629-24.634515-17.173943L904.513829 219.428571c-6.114743-2.750171-9.157486-4.885943-15.213715-7.606857-11.439543-5.002971-18.578286-8.660114-29.959314-13.663085-53.686857-23.873829-122.090057-59.918629-175.455086-82.885486l-162.669714-76.770743c-28.8768-13.984914-22.352457-14.1312-44.412343-4.271543l-145.495771 73.435429c-9.742629 5.032229-19.134171 8.835657-29.4912 14.306743l-231.716572 116.297142c-6.202514 3.189029-26.741029 8.8064-26.741028 17.027658z" fill="#161616" p-id="15741"></path><path d="M275.777829 738.069943h144.5888v-117.408914h49.590857v305.386057h-49.590857v-143.798857H275.777829v143.798857H226.157714V620.661029h49.590857v117.408914zM542.778514 622.270171v229.405258c0 12.668343 2.135771 21.006629 6.407315 24.9856s9.596343 5.997714 16.003657 5.997714h118.198857c17.846857 0 26.799543-9.391543 26.799543-28.203886v-232.213943l49.590857-0.2048v230.4c0 24.810057-6.729143 43.446857-20.187429 55.998172-13.194971 12.258743-29.930057 18.402743-50.205257 18.402743H563.2c-22.147657 0-39.204571-5.851429-51.2-17.6128-12.551314-12.141714-18.812343-27.4432-18.812343-45.992229v-240.991086h49.590857zM997.7856 770.2528c9.742629 12.931657 14.599314 24.254171 14.599314 33.9968v61.410743c0 18.139429-6.3488 33.148343-18.987885 44.997486-11.849143 11.0592-25.248914 16.5888-40.199315 16.5888h-103.804343c-21.738057 0-38.999771-6.612114-51.8144-19.807086-12.668343-13.048686-18.987886-29.754514-18.987885-50.000457v-170.3936c0-19.338971 6.5536-35.284114 19.602285-47.806172a64.248686 64.248686 0 0 1 46.606629-19.192685h100.586057c18.402743 0 34.845257 6.612114 49.386057 19.807085 11.732114 10.6496 17.6128 23.522743 17.6128 38.590172v30.193371c0 21.445486-1.609143 36.132571-4.798171 44.002743-2.018743 4.827429-5.266286 10.678857-9.801143 17.6128z m-169.603657-23.990857h109.802057c7.343543 0 13.253486-2.077257 17.788343-6.202514a22.352457 22.352457 0 0 0 6.992457-16.9984v-33.792c0-7.080229-1.8432-12.814629-5.588114-17.2032-4.388571-5.207771-10.795886-7.811657-19.192686-7.811658H851.382857a23.3472 23.3472 0 0 0-14.394514 4.798172c-5.851429 4.534857-8.8064 10.093714-8.8064 16.5888v60.6208z m0 44.207543v63.195428c0 19.602286 7.811657 29.403429 23.405714 29.403429h80.193829c10.532571 0 18.666057-2.8672 24.400457-8.6016a22.996114 22.996114 0 0 0 6.612114-16.5888v-43.388343c0-5.851429-2.603886-11.351771-7.811657-16.413257-5.061486-5.061486-11.732114-7.606857-20.011886-7.606857h-106.788571z" fill="#161616" p-id="15742"></path></svg>