<?xml version="1.0" standalone="no"?><!DOCTYPE svg PUBLIC "-//W3C//DTD SVG 1.1//EN" "http://www.w3.org/Graphics/SVG/1.1/DTD/svg11.dtd"><svg t="1604403575164" class="icon" viewBox="0 0 1024 1024" version="1.1" xmlns="http://www.w3.org/2000/svg" p-id="9494" xmlns:xlink="http://www.w3.org/1999/xlink" width="128" height="128"><defs><style type="text/css"></style></defs><path d="M509.471248 188.789388c81.895435 0 156.89099 29.550272 214.907783 78.608058v-108.73633c0-53.248289-43.169407-96.417696-96.417696-96.417695h-226.467791c-53.248289 0-96.417696 43.169407-96.417696 96.417695v100.246949c56.427291-43.928032 127.340718-70.118676 204.3954-70.118677zM509.471248 854.971001c-77.054681 0-147.968108-26.154519-204.3954-70.082551v75.934805c0 53.248289 43.169407 96.417696 96.417696 96.417696h226.467791c53.248289 0 96.417696-43.169407 96.417696-96.417696v-84.424186c-57.980667 48.985536-132.976222 78.571933-214.907783 78.571932z" fill="#161616" p-id="9495"></path><path d="M510.518874 245.36118c-153.675863 0-278.234954 124.595216-278.234954 278.234953s124.595216 278.234954 278.234954 278.234954 278.234954-124.595216 278.234954-278.234954-124.559091-278.234954-278.234954-278.234953z m136.444225 302.113596c0 13.330135-10.801383 24.095393-24.095393 24.095393h-127.123968c-13.00501 0-23.553517-10.548508-23.553517-23.553518v-158.335991c0-13.00501 10.548508-23.553517 23.553517-23.553517h14.775136c13.00501 0 23.553517 10.548508 23.553517 23.553517V513.336626h88.795315c13.330135 0 24.095393 10.801383 24.095393 24.095393v10.042757z" fill="#161616" p-id="9496"></path></svg>