<?xml version="1.0" standalone="no"?><!DOCTYPE svg PUBLIC "-//W3C//DTD SVG 1.1//EN" "http://www.w3.org/Graphics/SVG/1.1/DTD/svg11.dtd"><svg t="1604405656268" class="icon" viewBox="0 0 1024 1024" version="1.1" xmlns="http://www.w3.org/2000/svg" p-id="16428" xmlns:xlink="http://www.w3.org/1999/xlink" width="128" height="128"><defs><style type="text/css"></style></defs><path d="M512 0A512 512 0 1 0 1024 512 512.602353 512.602353 0 0 0 512 0z m0 830.644706a72.282353 72.282353 0 1 1 72.282353-71.68 71.68 71.68 0 0 1-72.282353 71.68z m54.211765-252.385882a37.948235 37.948235 0 0 1-36.141177 36.141176h-36.141176a39.152941 39.152941 0 0 1-36.141177-36.141176L421.647059 234.917647a54.211765 54.211765 0 0 1 54.211765-54.211765h72.282352a54.211765 54.211765 0 0 1 54.211765 54.211765z" fill="#161616" p-id="16429"></path></svg>