<?xml version="1.0" standalone="no"?><!DOCTYPE svg PUBLIC "-//W3C//DTD SVG 1.1//EN" "http://www.w3.org/Graphics/SVG/1.1/DTD/svg11.dtd"><svg t="1604405541888" class="icon" viewBox="0 0 1024 1024" version="1.1" xmlns="http://www.w3.org/2000/svg" p-id="12998" xmlns:xlink="http://www.w3.org/1999/xlink" width="128" height="128"><defs><style type="text/css"></style></defs><path d="M45.556 948.7c0-2.2 1.8-4 4-4H974.44c2.2 0 4 1.8 4 4v53.816c0 2.2-1.8 4-4 4H49.556c-2.2 0-4-1.8-4-4v-53.816zM133 577.836c0-2.2 1.8-4 4-4h50.316c2.2 0 4 1.8 4 4v239.256c0 2.2-1.8 4-4 4H137c-2.2 0-4-1.8-4-4v-239.256zM832.688 330.556c0-2.2 1.8-4 4-4h50.304c2.2 0 4 1.8 4 4v486.536c0 2.2-1.8 4-4 4h-50.304c-2.2 0-4-1.8-4-4V330.556zM307.936 206.908c0-2.2 1.8-4 4-4H362.24c2.204 0 4 1.8 4 4v610.184c0 2.2-1.796 4-4 4H311.936c-2.2 0-4-1.8-4-4V206.908zM482.864 454.188c0-2.2 1.8-4 4-4h50.276c2.2 0 4 1.8 4 4v362.908c0 2.2-1.8 4-4 4h-50.276c-2.2 0-4-1.8-4-4v-362.908zM657.76 21.484c0-2.2 1.8-4 4-4h50.304c2.2 0 4 1.8 4 4v795.608c0 2.2-1.8 4-4 4H661.76c-2.2 0-4-1.8-4-4V21.484z" fill="#040000" p-id="12999"></path></svg>