<?xml version="1.0" standalone="no"?><!DOCTYPE svg PUBLIC "-//W3C//DTD SVG 1.1//EN" "http://www.w3.org/Graphics/SVG/1.1/DTD/svg11.dtd"><svg t="1604405632894" class="icon" viewBox="0 0 1024 1024" version="1.1" xmlns="http://www.w3.org/2000/svg" p-id="15565" xmlns:xlink="http://www.w3.org/1999/xlink" width="128" height="128"><defs><style type="text/css"></style></defs><path d="M486.4 473.6c-121.856 0-221.696-100.352-221.696-221.696S362.496 29.696 486.4 29.696s221.696 98.304 221.696 221.696S608.256 473.6 486.4 473.6z m0-379.904c-87.552 0-157.696 70.144-157.696 157.696S398.848 409.6 486.4 409.6s157.696-70.656 157.696-157.696S571.904 93.696 486.4 93.696z m213.504 900.608H270.848c-111.104 0-200.704-89.6-200.704-200.704v-55.296c0-111.104 89.6-200.704 200.704-200.704H486.4c16.896 0 32.256 14.848 32.256 31.744 0 16.896-14.848 31.744-31.744 31.744H270.848c-74.752 0-136.704 61.952-136.704 136.704V793.6c0 74.752 61.952 136.704 136.704 136.704h431.104c74.752 0 136.704-61.952 136.704-136.704 0-16.896 14.848-31.744 31.744-31.744s31.744 14.848 31.744 31.744c-2.048 111.104-91.648 200.704-202.24 200.704z" fill="#161616" p-id="15566"></path><path d="M654.336 521.216c20.48-23.04 36.352-48.64 34.816-76.8 0-3.072 0-5.632-0.512-8.704 0-1.536 1.024-2.56 2.56-2.56h2.56c61.44 0 110.592 47.104 110.592 105.984 0 4.608-0.512 8.704-1.024 12.8-0.512 2.56 2.56 3.584 4.096 2.048 17.408-16.896 29.184-39.936 31.744-65.024 0-1.536 2.048-2.56 3.584-2.048 40.448 24.064 67.584 66.56 67.584 115.712 0 55.808-35.328 103.936-86.016 124.416-9.216 3.584-19.456 4.096-28.672 1.536-22.016-6.144-42.496-17.92-59.904-34.816-6.656-6.144-12.288-13.312-16.896-20.48-1.024-1.536-3.584-1.536-4.096 0.512-5.12 14.848-7.68 30.72-7.168 46.08 0 2.048-2.048 3.072-3.584 2.048-45.056-22.528-76.288-67.584-76.288-119.808 0-29.184 9.216-57.344 25.6-79.36" fill="#161616" p-id="15567"></path></svg>