<?xml version="1.0" standalone="no"?><!DOCTYPE svg PUBLIC "-//W3C//DTD SVG 1.1//EN" "http://www.w3.org/Graphics/SVG/1.1/DTD/svg11.dtd"><svg t="1604405611779" class="icon" viewBox="0 0 1024 1024" version="1.1" xmlns="http://www.w3.org/2000/svg" p-id="14703" xmlns:xlink="http://www.w3.org/1999/xlink" width="128" height="128"><defs><style type="text/css"></style></defs><path d="M512 1024C229.2224 1024 0 794.7776 0 512S229.2224 0 512 0s512 229.2224 512 512-229.2224 512-512 512z m-156.2624-448.1024H287.488a32.256 32.256 0 0 0-31.488 32.768c0 18.0224 14.1824 32.768 31.488 32.768h58.2656l-13.6192 89.088a32.4608 32.4608 0 0 0 26.2144 37.0688 31.5392 31.5392 0 0 0 35.7376-27.2896l44.5952-294.4h167.1168l-19.968 130.048H505.9072a32.256 32.256 0 0 0-31.5392 32.768c0 17.9712 14.1824 32.768 31.5392 32.768h69.9392l-13.6192 88.9856a32.4608 32.4608 0 0 0 26.2144 37.12 31.5392 31.5392 0 0 0 35.7376-27.2896l15.2064-99.3792h65.6384a32.256 32.256 0 0 0 31.488-32.768 32.256 32.256 0 0 0-31.488-32.768h-55.6544l19.968-130.048h67.1744a32.256 32.256 0 0 0 31.488-32.768 32.256 32.256 0 0 0-31.488-32.768h-57.2416l13.1072-86.272a32.4608 32.4608 0 0 0-26.2144-37.12 31.5392 31.5392 0 0 0-35.6864 27.2896l-14.7456 96.1024H449.1776l13.1584-85.1968a32.4608 32.4608 0 0 0-26.2656-37.12 31.5392 31.5392 0 0 0-35.6864 27.2896L385.6896 380.928H318.976a32.256 32.256 0 0 0-31.488 32.768c0 18.0224 14.1824 32.768 31.488 32.768h57.2416l-20.48 129.4336z" fill="#161616" p-id="14704"></path></svg>