<?xml version="1.0" standalone="no"?><!DOCTYPE svg PUBLIC "-//W3C//DTD SVG 1.1//EN" "http://www.w3.org/Graphics/SVG/1.1/DTD/svg11.dtd"><svg t="1603694100590" class="icon" viewBox="0 0 1024 1024" version="1.1" xmlns="http://www.w3.org/2000/svg" p-id="19425" xmlns:xlink="http://www.w3.org/1999/xlink" width="128" height="128"><defs><style type="text/css"></style></defs><path d="M390.050618 421.661192H358.239825l-64.63069 180.677616h37.929485L348.405068 552.604411h53.402409l17.715376 49.750415h72.351134V535.625841h30.128954a63.685656 63.685656 0 0 0 50.198905-16.369905l0.848928-0.896981A65.287408 65.287408 0 0 0 581.940497 451.69404a48.436978 48.436978 0 0 0-14.944345-19.221023 51.928797 51.928797 0 0 0-21.863914-8.809635 136.148913 136.148913 0 0 0-21.639668-1.729892h-67.27358v173.325575L390.050618 421.661192z m137.270139 78.357704c-0.977069 0-1.970155 0-2.947223-0.144158h-32.499547v-42.910934h31.714688c1.073174 0 2.146348-0.080088 3.203504-0.080087a74.257219 74.257219 0 0 1 13.566839 1.265384 14.97638 14.97638 0 0 1 8.168934 6.26285 22.424527 22.424527 0 0 1 3.539872 12.814015v0.880963a20.454372 20.454372 0 0 1-5.477991 15.777257 33.63679 33.63679 0 0 1-19.333146 6.182762zM360.898733 518.64727l12.814015-37.256749c0.656718-1.922102 1.297419-3.860222 1.906085-5.81436q1.441577 4.212608 2.899171 8.361145l12.125262 34.709964z m305.822493-96.793868h-68.266666v180.485406h36.728171V535.625841h29.904708a64.070077 64.070077 0 0 0 50.198905-16.369905l0.848929-0.896981a65.255373 65.255373 0 0 0 8.889723-66.664915 48.29282 48.29282 0 0 0-14.944345-19.221023 51.84871 51.84871 0 0 0-21.863914-8.809635 135.059722 135.059722 0 0 0-21.495511-1.729892z m3.972345 78.165494c-1.009104 0-2.018207 0-3.011294-0.144158h-32.499546v-42.910934h31.714688c1.073174 0 2.146348-0.080088 3.203504-0.080087a74.081026 74.081026 0 0 1 13.550821 1.265384 15.056468 15.056468 0 0 1 8.184952 6.26285 22.520632 22.520632 0 0 1 3.539872 12.814015v0.880963a20.822775 20.822775 0 0 1-5.477991 15.777257 33.50865 33.50865 0 0 1-19.221023 6.182762zM793.980416 156.314969H230.019584v48.052558h563.960832v-48.052558z" p-id="19426" fill="#161616"></path><path d="M704.106116 48.052557a64.070077 64.070077 0 0 1 64.070077 64.070077v799.754732a64.070077 64.070077 0 0 1-64.070077 64.070077H319.893884a64.070077 64.070077 0 0 1-64.070077-64.070077V112.122634a64.070077 64.070077 0 0 1 64.070077-64.070077h384.212232m0-48.052557H319.893884A112.122634 112.122634 0 0 0 207.77125 112.122634v799.754732a112.122634 112.122634 0 0 0 112.122634 112.122634h384.212232a112.122634 112.122634 0 0 0 112.122634-112.122634V112.122634a112.122634 112.122634 0 0 0-112.122634-112.122634z" p-id="19427" fill="#161616"></path><path d="M793.980416 773.22972H230.019584v48.052557h563.960832v-48.052557zM590.461818 78.918317H433.61827a24.026279 24.026279 0 0 0-24.026279 24.026279 24.026279 24.026279 0 0 0 24.026279 24.026278h156.971688a24.026279 24.026279 0 0 0 24.026279-24.026278 24.026279 24.026279 0 0 0-24.026279-24.026279z" p-id="19428" fill="#161616"></path></svg>