<?xml version="1.0" standalone="no"?><!DOCTYPE svg PUBLIC "-//W3C//DTD SVG 1.1//EN" "http://www.w3.org/Graphics/SVG/1.1/DTD/svg11.dtd"><svg t="1605772437096" class="icon" viewBox="0 0 1024 1024" version="1.1" xmlns="http://www.w3.org/2000/svg" p-id="2872" xmlns:xlink="http://www.w3.org/1999/xlink" width="128" height="128"><defs><style type="text/css"></style></defs><path d="M512.002039 0.008158c-282.597568 0-511.639009 229.233154-511.639009 511.981645 0 282.783162 229.036342 512.010197 511.639009 512.010197 282.562897 0 511.63493-229.227035 511.63493-512.010197C1023.63697 229.241312 794.564936 0.008158 512.002039 0.008158L512.002039 0.008158zM512.002039 955.738092c-72.484683 0-140.86896-17.599825-201.32368-48.586897 0.331418-0.244739-0.96876-1.148236-4.500146-2.833879-40.236183-19.178394-85.500742-81.014872-87.634054-100.211622-2.130253-19.201848-2.130253-51.166858 12.789675-63.963671 14.927066-12.800892 38.341492-44.769981 68.184407-95.951116 29.814362-51.186233-48.996835-61.833419-70.31466-70.35341-21.322923-8.531209-55.397791-57.576992-95.903188-61.515257-40.464607-3.913791-25.544679 29.516596-38.335373 40.182136-11.92085 9.933362-17.187847 8.639302-24.746216-3.664973-1.002412-12.166609-1.637715-24.434173-1.637715-36.844502 0-74.07243 18.323846-143.889453 50.534615-205.354743 11.357949-7.363598 21.651282-16.495438 21.651282-16.495438l17.05222 0c2.130253 0 13.059908 12.561252 0.270233 23.227812-12.760102 10.651264-23.683639 47.169447 6.330593 45.034096 30.044825-2.130253 69.878208-7.231031 74.145852-38.218103 4.259486-30.982993-1.633636-36.685422 13.287312-43.081279 14.922987-6.380561 27.714702 2.130253 23.451137 21.333121-4.268664 19.201848 0 45.030017 19.151881 49.167133 19.187572 4.128958 12.792734 25.467178 31.980306 19.066222 19.151881-6.400956 8.52509-40.520693 23.412386-57.562715 14.921967-17.066497 21.317825-25.607903 21.317825-46.920629 0-21.317825 11.594531-41.921826 35.042608-52.583288 23.453176-10.670639 67.221765-2.848155 77.880168 22.734254 10.660442 25.582409 38.769786 46.896155 27.912533 55.427364-10.856234 8.536308-34.31043 19.201848-40.666517 27.737136-6.395857 8.516932-17.056299 14.916869-36.243871 31.96399-19.183493 17.067516-40.471745 49.051902-10.662481 72.504058 29.850053 23.462354 46.906353 36.24897 78.844849 36.24897 31.974188 0 59.659317 25.584449 78.846888 38.385341 19.1529 12.800892 25.543659 23.448078 31.939516 34.094243 6.394838 10.66656 2.135352 38.398598 12.791715 57.582091 10.660442 19.186552 10.660442 59.702146 10.660442 81.019971 0 21.332101 8.52611 51.185214 12.791715 70.363608 4.265604 19.206947-8.263015 62.331055 15.190161 64.471506 23.442979 2.125154 33.806674-13.300569 57.254752-58.065451 23.419525-44.77508 34.079967-42.635649 49.002954-61.837498 14.921967-19.19675 19.186552-36.24999 21.288252-55.431443 2.130253-19.201848 25.57833-21.333121 25.57833-57.566794 0-36.269365 0-37.730663-8.52611-57.244554-8.52611-19.524089-21.283153-21.650262-17.05222-40.857209 4.260506-19.177374-4.230933-19.177374 25.57833-34.095263 29.849034-14.936244 51.132187-17.066497 59.658297-38.384321 8.52509-21.317825 6.390759-49.050882 10.656363-61.846675 4.20136-12.620397 4.229913-18.571644 24.717663-12.56737 26.745941 57.064059 41.770903 120.660621 41.770903 187.750839C955.417891 756.672133 756.493677 955.738092 512.002039 955.738092L512.002039 955.738092zM512.002039 955.738092" p-id="2873" fill="#161616"></path></svg>