<?xml version="1.0" standalone="no"?><!DOCTYPE svg PUBLIC "-//W3C//DTD SVG 1.1//EN" "http://www.w3.org/Graphics/SVG/1.1/DTD/svg11.dtd"><svg t="1604918960733" class="icon" viewBox="0 0 1024 1024" version="1.1" xmlns="http://www.w3.org/2000/svg" p-id="4964" xmlns:xlink="http://www.w3.org/1999/xlink" width="128" height="128"><defs><style type="text/css"></style></defs><path d="M803.809705 394.774548l-205.25667 574.751294 66.624831 23.322768 221.48475-573.772716-82.852911-24.301346zM430.726962 400.646014l-342.50219 503.559768 51.864618 29.194234 358.730269-484.232858-68.092697-48.521144z" fill="#161616" p-id="4965"></path><path d="M475.578439 537.809986a57.654535 57.654535 0 0 1-32.619256-9.867325L300.331486 431.797404a58.062276 58.062276 0 0 1-15.82034-80.651111l19.73465-29.438879a58.062276 58.062276 0 0 1 80.651111-15.820339L527.850797 401.869236a58.143824 58.143824 0 0 1 15.82034 80.651111l-19.73465 29.438879a57.736083 57.736083 0 0 1-37.022856 24.464442 58.959306 58.959306 0 0 1-11.335192 1.386318zM342.65497 381.645297L474.029025 469.798837l11.82448-17.53285-131.374054-88.15354z" fill="#161616" p-id="4966"></path><path d="M139.681649 969.525842a63.689098 63.689098 0 0 1-35.718086-10.927451l-74.127259-49.825913a64.259935 64.259935 0 0 1-27.726368-43.709804 69.315919 69.315919 0 0 1 11.172095-49.744365l0.489289-0.733934L286.468302 431.226567a69.315919 69.315919 0 0 1 41.589551-28.623397 64.178387 64.178387 0 0 1 50.967588 9.133391l52.680099 35.391893a64.259935 64.259935 0 0 1 27.726368 43.709804 69.315919 69.315919 0 0 1-10.845903 48.928884L196.765347 938.619097a69.315919 69.315919 0 0 1-41.834196 29.112686 67.032571 67.032571 0 0 1-15.249502 1.794059z m0.652385-65.238512z m-73.393327-52.517003a3.832763 3.832763 0 0 0-0.652385 3.09883l73.393327 48.928884a4.240503 4.240503 0 0 0 2.446444-1.794059l252.309947-397.791829a3.995859 3.995859 0 0 0 0.815481-3.343474l-52.272358-34.984152s-1.141674 0.489289-2.283348 2.201799l-0.489289 0.733934z" fill="#161616" p-id="4967"></path><path d="M56.233437 808.623206l13.651158-20.305487 115.048117 77.340257-13.643004 20.305487zM869.37441 522.968225a58.143824 58.143824 0 0 1-19.653102-3.425022l-162.117703-58.225372a58.143824 58.143824 0 0 1-35.065701-74.290356l11.987577-33.35319a58.062276 58.062276 0 0 1 74.290356-35.0657l162.117703 58.143824a58.062276 58.062276 0 0 1 35.065701 74.290356l-11.987577 33.353189a58.225372 58.225372 0 0 1-54.637254 38.572271zM716.30855 402.358525l148.66226 53.332484 7.176237-19.897746-148.662261-53.332484z" fill="#161616" p-id="4968"></path><path d="M647.48192 1024a63.444453 63.444453 0 0 1-21.447161-3.751214l-84.076133-30.172812a67.195668 67.195668 0 0 1-38.898463-86.522577v-0.815482l171.251095-438.565899a69.315919 69.315919 0 0 1 33.353189-37.838338 64.178387 64.178387 0 0 1 51.619973-3.588118l59.693239 21.447161a65.238512 65.238512 0 0 1 37.593693 35.636538 69.315919 69.315919 0 0 1 1.549414 50.478299l-146.786652 448.514772a68.337342 68.337342 0 0 1-63.852194 45.17767z m0.570837-65.238512z m-83.668393-32.619257a3.914311 3.914311 0 0 0 0 3.180378l83.179104 29.683523a4.240503 4.240503 0 0 0 1.957155-2.283348l146.786653-447.943936a3.995859 3.995859 0 0 0 0-3.425021l-59.20395-21.120969s-0.978578 0.733933-1.630963 2.691089v0.815481z" fill="#161616" p-id="4969"></path><path d="M543.214467 886.632157l8.260827-23.02104 130.477025 46.816788-8.252672 23.029195zM480.634424 374.795254c2.527992-104.218524 62.139683-201.260811 158.611133-243.82894 47.134825-20.876324 109.926893-32.619256 160.568289-18.674525 85.707096 23.730509-50.396751 108.785219-75.513578 87.501155-21.93645-18.103687 92.638688-97.857769 109.763797-107.806642 40.040137-23.322768 125.747233-55.942024 127.541292 20.550132 1.223222 52.353906-48.031855 89.132118-83.505296 120.365055-36.859759 32.619256-67.766505 65.238512-85.95174 111.884049-14.352473 36.615115 44.769929 52.517002 58.959305 16.309628 25.687664-65.238512 97.857769-98.510154 138.631839-153.718245 33.353189-45.503862 47.297921-109.600701 14.678665-159.671259-78.530859-120.528152-258.833798 16.798917-319.342518 88.887473-32.619256 38.409174-49.499721 109.19296 14.107829 127.541292 52.109262 15.412599 126.72581-25.361472 161.873058-61.895039s43.138966-102.669109-4.729792-133.657402c-50.478299-32.619256-132.026439-25.524568-187.560723-11.906028-146.786653 36.207374-245.949192 169.049295-249.618858 318.037748-0.978578 39.387752 60.182528 39.387752 61.161106 0z" fill="#161616" p-id="4970"></path></svg>