<?xml version="1.0" standalone="no"?><!DOCTYPE svg PUBLIC "-//W3C//DTD SVG 1.1//EN" "http://www.w3.org/Graphics/SVG/1.1/DTD/svg11.dtd"><svg t="1605835839085" class="icon" viewBox="0 0 1024 1024" version="1.1" xmlns="http://www.w3.org/2000/svg" p-id="2659" width="32" height="32" xmlns:xlink="http://www.w3.org/1999/xlink"><defs><style type="text/css"></style></defs><path d="M312 874v-256h72v-48h40l88-112 88 112h40v48h72v256zM104 622.448h80v248.88c0 10.32-17.912 18.672-40 18.672s-40-8.36-40-18.664V622.448zM840 622.448h80v248.88c0 10.32-17.912 18.672-40 18.672s-40-8.36-40-18.664V622.448z" fill="#2c2c2c" p-id="2660"></path><path d="M512 166l121.84 128.512c18.952 19.824 31.664 32.984 38.16 39.48 3.6 3.6 5.992 16.936 7.16 40.008H680v248h-40v-52h-40l-88-112-88 112h-40v52h-40v-248h0.84c1.128-22.272 3.392-35.472 6.792-39.6l0.368-0.408c9.424-9.424 31.968-32.904 67.624-70.432L512 166z" fill="#2c2c2c" p-id="2661"></path><path d="M167.28 264c0-16-8-24 16-48s48-56 64-56l1.248 0.064c15.984 1.568 39.36 32.552 62.752 55.936 24 24 16 32 16 48h-160zM695.28 264c0-16-8-24 16-48s48-56 64-56l1.248 0.064c15.984 1.568 39.36 32.552 62.752 55.936 24 24 16 32 16 48h-160z" fill="#2c2c2c" p-id="2662"></path><path d="M104 626v-25.704c0.072-8.464 1.064-23.896 16-46.296 10.664-16 18.664-29.336 24-40l1.184 2.32c5.304 10.264 12.912 22.824 22.816 37.68 16 24 16 40 16 48v24H104zM840 626v-25.704c0.072-8.464 1.064-23.896 16-46.296 10.664-16 18.664-29.336 24-40l1.184 2.32c5.304 10.264 12.912 22.824 22.816 37.68 16 24 16 40 16 48v24H840z" fill="#2c2c2c" p-id="2663"></path><path d="M207.352 720V456c-36.96 0-29.56-8-36.96-32-13.52-43.92-36.944-72 7.4-72h140.416c44.344 0 20.92 28.08 7.392 72-7.392 24 0 32-36.952 32v264H207.352zM735.352 720V456c-36.96 0-29.56-8-36.96-32-13.52-43.92-36.944-72 7.4-72h140.416c44.344 0 20.92 28.08 7.392 72-7.392 24 0 32-36.952 32v264H735.352zM312 264a16 16 0 0 1 13.856 24L308 320h-120l-17.856-32A16 16 0 0 1 184 264h128zM840 264a16 16 0 0 1 13.856 24L836 320h-120l-17.856-32A16 16 0 0 1 712 264h128z" fill="#2c2c2c" p-id="2664"></path><path d="M184 622h128v248H184z" fill="#2c2c2c" p-id="2665"></path><path d="M274 622H312v248h-38z" fill="#2c2c2c" p-id="2666"></path><path d="M712 622h128v248H712z" fill="#2c2c2c" p-id="2667"></path><path d="M712 622h38v248H712z" fill="#2c2c2c" p-id="2668"></path><path d="M512 708a40 40 0 0 1 40 40V872H472V748a40 40 0 0 1 40-40z" fill="#2c2c2c" p-id="2669"></path><path d="M384 778a16 16 0 0 1 16 16V864h-32v-70a16 16 0 0 1 16-16z" fill="#2c2c2c" p-id="2670"></path><path d="M448 608h-24v48H316v-38H384V568h40l88-108L600 568h40v50h68V656H600v-48h-24l-64-76-64 76z" fill="#2c2c2c" p-id="2671"></path><path d="M640 778a16 16 0 0 1 16 16V864h-32v-70a16 16 0 0 1 16-16z" fill="#2c2c2c" p-id="2672"></path><path d="M672 384v230h-32V568h-40L512 460 424 568h-40v46h-32V384z" fill="#2c2c2c" p-id="2673"></path><path d="M508.664 184c8 16 104 136 120 160v44h48V336l-160-160c-10.664-5.336-13.328-2.664-8 8z" fill="#2c2c2c" p-id="2674"></path><path d="M512 184c-8 16-104 136-120 160v44h-48V336L504 176c10.664-5.336 13.336-2.664 8 8z" fill="#2c2c2c" p-id="2675"></path><path d="M356 388H392v230h-36z" fill="#2c2c2c" p-id="2676"></path><path d="M628 388H664v230h-36z" fill="#2c2c2c" p-id="2677"></path><path d="M200 324h96v24H200zM728 324h96v24H728z" fill="#2c2c2c" p-id="2678"></path><path d="M200 324h22v24H200zM728 324h22v24H728z" fill="#2c2c2c" p-id="2679"></path><path d="M296.568 360c16 8 24 8 12 44S276 430 272 438c-2.664 5.336-2.48 64 0.568 176h18V456c8-1.336 14.672-2 20-2 8 0 10-18 22-44s20-58 0-58h-40c-8 0-6.664 2.664 4 8zM824.568 360c16 8 24 8 12 44S804 430 800 438c-2.664 5.336-2.48 64 0.568 176h18V456c8-1.336 14.672-2 20-2 8 0 10-18 22-44s20-58 0-58h-40c-8 0-6.664 2.664 4 8z" fill="#2c2c2c" p-id="2680"></path><path d="M200.184 360c-16 8-24 8-12 44s32.568 26 36.568 34c2.672 5.336 2.48 64-0.568 176h-18V456c-8-1.336-14.672-2-20-2-8 0-10-18-22-44s-20-58 0-58h40c8 0 6.664 2.664-4 8zM728.184 360c-16 8-24 8-12 44s32.568 26 36.568 34c2.672 5.336 2.48 64-0.568 176h-18V456c-8-1.336-14.672-2-20-2-8 0-10-18-22-44s-20-58 0-58h40c8 0 6.664 2.664-4 8zM248 168c-8 10-36 48-42 60S200 256 200 260c0 2.664-10.664 4-32 4l-2-30L240 160h8c5.336-1.336 5.336 1.336 0 8zM776 168c-8 10-36 48-42 60S728 256 728 260c0 2.664-10.664 4-32 4l-2-30L768 160h8c5.336-1.336 5.336 1.336 0 8z" fill="#2c2c2c" p-id="2681"></path><path d="M248 168c8 10 36 48 42 60s6 28 6 32c0 2.664 10.664 4 32 4l2-30L256 160h-8c-5.336-1.336-5.336 1.336 0 8zM776 168c8 10 36 48 42 60s6 28 6 32c0 2.664 10.664 4 32 4l2-30L784 160h-8c-5.336-1.336-5.336 1.336 0 8z" fill="#2c2c2c" p-id="2682"></path><path d="M128 622c0-16 0-26 4-38l16-48-20 4c-13.336 12-21.336 24-24 36-2.664 12-2.664 27.336 0 46h24zM864 622c0-16 0-26 4-38l16-48-20 4c-13.336 12-21.336 24-24 36-2.664 12-2.664 27.336 0 46h24z" fill="#2c2c2c" p-id="2683"></path><path d="M158 622c0-16 0-26-4-38l-16-48 20 4c13.336 12 21.336 24 24 36 2.664 12 2.664 27.336 0 46h-24zM894 622c0-16 0-26-4-38l-16-48 20 4c13.336 12 21.336 24 24 36 2.664 12 2.664 27.336 0 46h-24z" fill="#2c2c2c" p-id="2684"></path><path d="M106 626H128v256H106zM844 626h22v256H844z" fill="#2c2c2c" p-id="2685"></path><path d="M158 626h22v256H158zM896 626h22v256H896z" fill="#2c2c2c" p-id="2686"></path><path d="M274 324H296v24h-22z" fill="#2c2c2c" p-id="2687"></path><path d="M496 296a46 16 90 1 0 32 0 46 16 90 1 0-32 0Z" fill="#2c2c2c" p-id="2688"></path><path d="M424.545187 335.141105a28 16 75 1 0 30.909626-8.28221 28 16 75 1 0-30.909626 8.28221Z" fill="#2c2c2c" p-id="2689"></path><path d="M599.455321 335.141172a16 28 15 1 1-30.909627-8.28221 16 28 15 1 1 30.909627 8.28221Z" fill="#2c2c2c" p-id="2690"></path><path d="M802 324H824v24h-22z" fill="#2c2c2c" p-id="2691"></path><path d="M776 128a8 8 0 0 1 7.944 7.064L784 136v17.192c8.264 2.368 15.888 8.768 32.624 26.376l3.728 3.944 13.064 14.048c1.824 1.96 3.488 3.736 5.04 5.376l4.424 4.6 4.592 4.656c13.52 13.96 18.16 24.224 17.776 36.44l-0.152 2.64-0.192 2.024-0.464 4.096c-0.216 1.944-0.336 3.28-0.4 4.576l-0.024 0.968L863.904 272h-1.272a23.96 23.96 0 0 1 1.248 10.424l-0.152 1.192-0.28 1.48 0.192 0.52a7.864 7.864 0 0 1-0.016 4.84l-0.4 0.976-0.44 0.808-20 32a8 8 0 0 1-5.76 3.696L836 328H832v16h14.208c22.208 0 33.792 7.32 33.792 23.016 0 5.568-1.488 11.76-4.48 20.28l-2.216 5.944-6.712 17.552a280.6 280.6 0 0 0-5.344 15.56c-0.512 1.664-0.968 3.304-1.4 5.032l-1.152 4.976-0.984 4.512c-3.52 15.712-10.184 21.528-30.384 22.832l-2.648 0.136 0.488 120.32c1.856-11.2 6.136-22.632 14.264-35.936l1.704-2.72 5.856-8.92 3.936-6.128c6.28-9.944 11.2-18.496 14.76-25.608 1.512-3.016 3.736-5.264 6.312-6.736V488a8 8 0 0 1 15.944-0.936L888 488l0.008 10.112c2.184 1.248 4.112 3.048 5.568 5.408l0.688 1.224 1.04 2.056 2.52 4.728c3.464 6.32 7.768 13.504 12.888 21.504l2.24 3.472 6.192 9.432c11.216 17.6 15.872 32.64 16.72 47.752l0.096 2.52L936 600v269.584c0 22.4-26.112 34.416-56 34.416-20.16 0-38.56-5.472-48.44-16H192.56c-9.848 10.496-28.336 16-48.56 16-27.832 0-52.28-10.424-55.632-30.144l-0.216-1.576-0.08-0.88L88 869.592V598.16c0.128-16 3.92-31.096 15.44-49.944l1.696-2.72 5.856-8.92 3.936-6.128c6.28-9.944 11.2-18.496 14.76-25.608 1.512-3.016 3.736-5.264 6.312-6.736V488a8 8 0 0 1 15.944-0.936L152 488l0.008 10.112c2.184 1.248 4.112 3.048 5.568 5.408l0.688 1.224 1.04 2.056 2.52 4.728c3.464 6.32 7.768 13.504 12.888 21.504l2.24 3.472 6.192 9.432c11.216 17.6 15.872 32.64 16.72 47.752l0.04 1.216-0.528-131.064-0.64-0.024c-21.16-1.008-28.376-6.368-32.112-21.496L164.8 434.056a106.64 106.64 0 0 0-2.04-7.704c-1.216-3.944-2.56-7.928-4.128-12.256l-1.704-4.584c-1.768-4.64-7.064-18.32-8.432-22.216C145.488 378.768 144 372.576 144 367.016c0-15.192 10.848-22.536 31.68-22.992l2.112-0.024H192v-16h-4a8 8 0 0 1-6.184-2.928l-0.6-0.832-20-32a7.88 7.88 0 0 1-1.088-5.704l0.232-0.92 0.184-0.52-0.272-1.48-0.12-0.896-0.08-0.904L160 280c0-2.8 0.48-5.496 1.36-8H160l-0.008-8.968-0.088-1.944-0.08-1.056-0.104-1.16-0.8-7.416-0.168-2.752c-0.4-12.24 4.232-22.52 17.776-36.512l4.592-4.656 4.416-4.6 3.28-3.48 15.04-16.16 5.56-5.864 3.496-3.616 3.384-3.416c10.8-10.768 17.256-15.544 23.704-17.392V136a8 8 0 0 1 15.944-0.936L256 136v17.192c8.264 2.368 15.888 8.768 32.624 26.376l3.728 3.944 13.064 14.048c1.824 1.96 3.488 3.736 5.04 5.376l4.424 4.6 4.592 4.656c13.52 13.96 18.16 24.224 17.776 36.44l-0.152 2.64-0.192 2.024-0.464 4.096c-0.216 1.944-0.336 3.28-0.4 4.576l-0.024 0.968L335.904 272h-1.272a23.96 23.96 0 0 1 1.248 10.424l-0.152 1.192-0.28 1.48 0.192 0.52a7.864 7.864 0 0 1-0.016 4.84l-0.4 0.976-0.44 0.808-20 32a8 8 0 0 1-5.76 3.696L308 328H304v16h14.208c4.616 0 8.776 0.32 12.464 0.96 1.56-12.296 4.048-20.584 8.32-26.32l0.776-0.976 0.92-0.984 9.744-9.936 26.4-27.448L408 246.56 500.384 149a16 16 0 0 1 22.248-0.96l0.976 0.952 121.808 128.464 21.28 22.2c7.504 7.768 13.04 13.448 16.616 17.024 5.384 5.384 8.304 14.096 10.064 28.264a70 70 0 0 1 10.296-0.92l2.12-0.024H720v-16h-4a8 8 0 0 1-6.184-2.928l-0.6-0.832-20-32a7.88 7.88 0 0 1-1.088-5.704l0.232-0.92 0.184-0.52-0.272-1.48-0.12-0.896-0.08-0.904L688 280c0-2.8 0.48-5.496 1.36-8H688l-0.008-8.968-0.088-1.944-0.08-1.056-0.104-1.16-0.8-7.416-0.168-2.752c-0.4-12.24 4.232-22.52 17.776-36.512l4.592-4.656 4.416-4.6 3.28-3.48 15.04-16.16 5.56-5.864 3.496-3.616 3.384-3.416c10.8-10.768 17.256-15.544 23.704-17.392V136a8 8 0 0 1 8-8z m80 541.152L855.984 696H880v16h-24.008L856 824h40v16h-40v26.76l0.528 0.336 1.216 0.664 1.088 0.504c5.248 2.304 12.864 3.736 21.168 3.736 8.56 0 16.368-1.52 21.592-3.928 0.616-0.28 1.16-0.56 1.624-0.824l0.784-0.488V800h-24v-16h24v-24h-24v-16h24v-74.816c-7.096 1.848-15.312 2.816-24 2.816-8.696 0-16.904-0.968-24-2.848z m-736 0L119.984 696H144v16H119.992L120 866.76l0.528 0.336 1.216 0.664 1.088 0.504C128.08 870.568 135.696 872 144 872c8.56 0 16.368-1.52 21.592-3.928 0.616-0.28 1.16-0.56 1.624-0.824l0.784-0.488V800H144v-16h24v-24H144v-16h24v-74.816C160.904 671.04 152.688 672 144 672c-8.696 0-16.904-0.968-24-2.848zM824 632H728v224h96V632z m-528 0H200v224h96V632z m216-91.2l-57.76 72.2a8 8 0 0 1-5.208 2.936L448 616h-16v40a8 8 0 0 1-7.064 7.944L424 664H328v192h32v-64a24 24 0 0 1 47.96-1.408L408 792v64h48V756h-40v-16h40v4a56 56 0 0 1 111.968-1.92L568 744v44h24v16h-24V856h48v-64a24 24 0 0 1 47.96-1.408L664 792v64h32V756h-24v-16h24V664H600a8 8 0 0 1-7.944-7.064L592 656v-40h-16a8 8 0 0 1-5.552-2.24l-0.696-0.76L512 540.8zM640 784a8 8 0 0 0-7.944 7.064L632 792v64h16v-64a8 8 0 0 0-8-8z m-128-64a24 24 0 0 0-23.96 22.592L488 744v112h48V744a24 24 0 0 0-24-24z m-128 64a8 8 0 0 0-7.944 7.064L376 792v64h16v-64a8 8 0 0 0-8-8zM160 824v16H120v-16h40z m232-132v16h-40v-16h40z m240 0v16h-40v-16h40zM512 592a24 24 0 0 1 23.96 22.592L536 616v48h-48v-48a24 24 0 0 1 24-24z m-344 48H120v12.368l1.248 0.44C127.448 654.832 135.456 656 144 656c9.152 0 17.68-1.344 24.016-3.624L168 640z m736 0h-48v12.368l1.248 0.44c6.2 2.024 14.208 3.192 22.752 3.192 9.152 0 17.68-1.344 24.016-3.624L904 640zM512 481.888l-75.416 96a16 16 0 0 1-11.256 6.056L424 584h-24v32a16 16 0 0 1-13.576 15.816l-1.232 0.144L384 632h-56v16h88v-40a8 8 0 0 1 7.064-7.944L424 600h20.152l61.6-77a8 8 0 0 1 11.816-0.744l0.68 0.744L579.84 600H600a8 8 0 0 1 7.944 7.064L608 608v40h88v-16h-56a16 16 0 0 1-15.816-13.576l-0.144-1.232L624 616v-32h-24a16 16 0 0 1-10.664-4.08l-1.048-1.024-0.872-1.008-75.416-96zM512 608a8 8 0 0 0-7.944 7.064L504 616v32h16v-32a8 8 0 0 0-6.16-7.792l-0.904-0.16L512 608zM143.992 544.312l-1.96 3.152-2.08 3.272-2.168 3.36-5.792 8.8c-8.784 13.76-11.592 23.36-11.952 33.584l-0.032 1.816L120 608h48v-7.84l-0.032-3.336c-0.28-10.04-3.16-20.104-11.76-33.6L154.64 560.8l-4.464-6.776-3.2-4.96L144 544.312z m736 0l-1.96 3.152-2.08 3.272-2.168 3.36-5.792 8.8c-8.784 13.76-11.592 23.36-11.952 33.584l-0.032 1.816L856 608h48v-7.84l-0.032-3.336c-0.28-10.04-3.16-20.104-11.76-33.6l-1.568-2.424-4.464-6.776-3.2-4.96-2.984-4.752zM696 446.968V600h31.928l-0.552-136.16-0.64-0.024c-18.824-0.896-26.616-5.24-30.736-16.848z m151.96-86.96L705.792 360c-4.816 0-8.4 0.232-11.032 0.72l0.096 1.344 0.096 0.224c0.544 1.416 0.88 2.936 1 4.512L696 368v6.08c16.72 0.04 32 16.104 32 33.04 0 6.328-0.216 10.576-1.16 15.664-1.92 10.472-6.448 18.416-14.28 21.656 2.64 3.2 8.072 3.56 22.792 3.56a8 8 0 0 1 7.944 7.04l0.056 0.928L743.928 600h65.304l-0.584-143.968a8 8 0 0 1 8-8.032l7.296-0.056c11.008-0.208 14.6-1.168 16.496-5.08l0.112-0.264c-5.76-3.92-9.248-10.96-10.88-19.816-0.928-5.088-1.152-9.336-1.152-15.664 0-17.72 16.72-34.488 34.328-32.936 0.784-2.96 1.152-5.296 1.152-7.168 0-4.72-3.04-6.84-16.04-7.008z m-528 0L177.792 360C163.312 360 160 362.096 160 367.016c0 2.032 0.432 4.616 1.336 7.92C180.432 369.896 200 387.952 200 407.12c0 6.328-0.216 10.576-1.16 15.664-1.92 10.472-6.448 18.416-14.28 21.656 2.64 3.2 8.072 3.56 22.792 3.56a8 8 0 0 1 7.944 7.04l0.056 0.928L215.928 600h65.304l-0.584-143.968a8 8 0 0 1 8-8.032l7.296-0.056c11.008-0.208 14.6-1.168 16.496-5.08l0.112-0.264c-5.76-3.92-9.248-10.96-10.88-19.816-0.928-5.088-1.152-9.336-1.152-15.664 0-15.392 12.624-30.08 27.48-32.64V368c0-2 0.368-3.92 1.04-5.696l0.104-0.248 0.096-1.336a56.576 56.576 0 0 0-9.28-0.712z m-20.64 103.696l-2.64 0.136 0.552 136.16H328V446.952c-3.96 11.184-11.32 15.632-28.672 16.752zM664 396H360v16h24v16h-24v80h24v16h-24V600h8v-32a16 16 0 0 1 13.576-15.816l1.232-0.144L384 552h32.216l59.712-76H456v-16h32.504l10.912-13.888a16 16 0 0 1 24.296-1.016l0.872 1.016L607.776 552H640a16 16 0 0 1 15.816 13.576l0.144 1.232L656 568v32h8V444h-24v-16h24v-32z m-8 128v16h-32v-16h32zM608 424a24 24 0 0 1 23.96 22.592L632 448v48h-48v-48a24 24 0 0 1 24-24z m-192 0a24 24 0 0 1 23.96 22.592L440 448v48h-48v-48a24 24 0 0 1 24-24z m0 16a8 8 0 0 0-7.944 7.064L408 448v32h16v-32a8 8 0 0 0-6.16-7.792l-0.904-0.16L416 440z m192 0a8 8 0 0 0-7.944 7.064L600 448v32h16v-32a8 8 0 0 0-6.16-7.792l-0.904-0.16L608 440z m168-72l1.88 0.088C792.416 369.48 800 385.32 800 404c0 15.112-10.464 32.744-21.544 35.664l-1.152 0.248L776 440c-11.6 0-24-19.536-24-36 0-18.984 7.816-34.968 22.56-35.952L776 368z m-528 0l1.88 0.088C264.416 369.48 272 385.32 272 404c0 15.112-10.464 32.744-21.544 35.664l-1.152 0.248L248 440c-11.6 0-24-19.536-24-36 0-18.984 7.816-34.968 22.56-35.952L248 368z m320 52v16h-32v-16h32z m128.232-29.816H696v3.536l4.4 11.488c2.2 5.896 4.024 11.176 5.648 16.44 0.592 1.928 1.12 3.824 1.616 5.792l0.208 0.856c1.424-1.584 2.48-4.32 3.24-8.4 0.704-3.872 0.888-7.36 0.888-12.776 0-8.296-8.096-16.608-15.768-16.936z m-528 0h-1.04l-0.52 0.056 5.728 14.96c2.2 5.904 4.024 11.184 5.648 16.448 0.592 1.928 1.12 3.824 1.616 5.792l0.208 0.856c1.424-1.584 2.48-4.32 3.24-8.4 0.704-3.872 0.888-7.36 0.888-12.776 0-8.296-8.096-16.608-15.768-16.936zM775.976 384l-0.536 0.056c-3.712 0.72-7.44 8.608-7.44 19.944 0 4.832 1.816 10.336 4.752 14.96 0.752 1.184 1.536 2.24 2.296 3.12l0.944 1 0.56-0.56c0.488-0.528 0.992-1.136 1.496-1.816l0.752-1.056 0.728-1.136c2.784-4.552 4.472-9.84 4.472-14.512 0-10.88-3.528-18.8-6.752-19.848l-0.504-0.104-0.768-0.048z m-528 0l-0.536 0.056c-3.712 0.72-7.44 8.608-7.44 19.944 0 4.832 1.816 10.336 4.752 14.96 0.752 1.184 1.536 2.24 2.296 3.12l0.944 1 0.56-0.56c0.488-0.528 0.992-1.136 1.496-1.816l0.752-1.056 0.728-1.136c2.784-4.552 4.472-9.84 4.472-14.512 0-10.88-3.528-18.8-6.752-19.848l-0.504-0.104-0.768-0.048zM328 393.736v-2.576l0.528-0.208c-6.344 2.28-12 9.232-12 16.16l0.032 3.744c0.08 3.44 0.32 6.136 0.856 9.04l0.44 2.096 0.096-0.344c1.296-4.208 2.72-8.432 4.368-12.976l5.68-14.936z m529.136-2.984l-0.608 0.2c-6.344 2.28-12 9.232-12 16.16l0.032 3.744c0.08 3.44 0.32 6.136 0.856 9.04l0.44 2.096 0.096-0.344c1.296-4.208 2.72-8.432 4.368-12.976l6.816-17.92zM512.008 183.264L420.056 280.328l-38.792 40.56-12.376 12.768-4.36 4.424-0.024 0.08c-0.352 1.08-0.72 2.576-1.08 4.456l-0.264 1.48c-1.008 5.88-1.8 14.16-2.336 24.712a16.04 16.04 0 0 1-0.576 3.52l-0.248 0.76v6.912h304v-6.88l-0.24-0.776a15.976 15.976 0 0 1-0.48-2.32l-0.104-1.208-0.32-5.72c-0.48-7.288-1.096-13.28-1.84-17.912l-0.272-1.672a46.392 46.392 0 0 0-1.096-4.856l-0.192-0.576-7.376-7.52c-5.84-6-13.512-13.976-23.048-23.936l-6.8-7.104L512.016 183.264z m-48.824 142.528c3.904 14.576-1.624 34.28-11.552 40l-1.08 0.56-1.232 0.424c-11.2 3-28.24-12.656-32.504-28.56-4.912-18.344-1.496-35.808 12.48-40.568l1.384-0.424 1.84-0.4c14.4-2.424 25.824 10.92 30.664 28.96z m128.288-28.96l1.84 0.4c15.136 4.048 18.944 22.048 13.872 40.976-4.264 15.912-21.296 31.568-32.504 28.56l-1.232-0.416c-10.6-4.864-16.68-25.464-12.632-40.56 4.84-18.048 16.256-31.392 30.656-28.96zM512 240l0.512 0.016 1.424 0.112C529.352 242.136 536 265.672 536 296c0 23.688-9.72 51.4-20.72 55.44l-0.944 0.28-0.88 0.16-0.472 0.056L512 352c-12.8 0-24-30.224-24-56 0-30.944 6.848-54.808 22.784-55.96L512 240z m-75.904 72.504l-0.544 0.024-0.752 0.16-0.496 0.192c-3.4 1.656-4.96 10.24-2.032 21.192 1.248 4.664 4.432 9.52 8.464 13.224 1.376 1.256 2.744 2.288 3.96 3l0.24 0.136 0.392-0.68c0.336-0.64 0.664-1.36 0.976-2.144l0.448-1.216 0.408-1.288c1.512-5.12 1.776-10.672 0.56-15.176-2.8-10.48-8.24-17.208-11.624-17.424z m140.176 17.424c-1.2 4.504-0.944 10.056 0.56 15.176l0.416 1.288c0.432 1.256 0.92 2.4 1.424 3.36l0.392 0.672 0.24-0.128c1.216-0.712 2.584-1.744 3.96-3 4.032-3.712 7.216-8.56 8.464-13.224 2.936-10.96 1.368-19.536-2.032-21.2l-0.496-0.184-0.752-0.16c-3.32-0.544-9.208 6.336-12.176 17.4zM816 328H736v16h80v-16z m-528 0H208v16h80v-16z m224.064-71.984l-0.064 0.12-0.64 0.84c-1.28 1.68-2.568 4.52-3.688 8.296C505.32 273.208 504 284.336 504 296c0 10.088 2.12 21.08 5.504 30.224 0.408 1.104 0.832 2.16 1.256 3.152l0.64 1.44 0.592 1.256 0.608-1.248 0.728-1.648 0.72-1.776 0.704-1.88C518 316.48 520 305.816 520 296c0-21.072-4.704-38.416-7.352-39.864l-0.264-0.096-0.32-0.024zM751.992 272H728v28.944l-11.04 5.52 3.464 5.536h111.144l3.464-5.544L824 300.944V272h-24v32h-48v-32z m-528 0H200v28.944l-11.04 5.52 3.464 5.536h111.144l3.464-5.544L296 300.944V272h-24v32h-48v-32zM840 272v19.048l3.552 1.776 2.36-3.776-0.072-1.12c0.008-0.696 0.104-1.392 0.304-2.08l0.376-1.04 0.88-1.744a8 8 0 0 0-6.464-11.016L840 272z m-128 0a8 8 0 0 0-7.392 11.064l0.944 1.912c0.408 0.984 0.6 2 0.608 2.992l-0.08 1.08 2.36 3.776 3.56-1.776V272z m-400 0v19.048l3.552 1.776 2.36-3.776-0.072-1.12c0.008-0.696 0.104-1.392 0.304-2.08l0.376-1.04 0.88-1.744a8 8 0 0 0-6.464-11.016L312 272z m-128 0a8 8 0 0 0-7.392 11.064l0.944 1.912c0.408 0.984 0.6 2 0.608 2.992l-0.08 1.08 2.36 3.776 3.56-1.776V272z m600 0h-16v16h16v-16z m-528 0h-16v16h16v-16zM775.928 168l-0.4 0.016c-5.64 0.296-12.784 6.024-30.624 24.8l-5.488 5.832-12.664 13.6-4.736 4.968-5.936 6.04c-10.656 10.944-13.552 17.224-13.336 24.84l0.08 1.608 0.68 6.296h144.984l0.64-5.688 0.08-1.064 0.048-1.104c0.24-7.64-2.656-13.92-13.336-24.888l-5.936-6.04-4.736-4.96-15.984-17.152-6.744-7.08-3.2-3.28-3.056-3.056c-9.672-9.536-14.616-12.912-18.856-13.568l-0.56-0.064L775.92 168z m-528 0l-0.4 0.016c-5.64 0.296-12.784 6.024-30.624 24.8l-5.488 5.832-12.664 13.6-4.736 4.968-5.936 6.04c-10.656 10.944-13.552 17.224-13.336 24.84l0.08 1.608 0.68 6.296h144.984l0.64-5.688 0.08-1.064 0.048-1.104c0.24-7.64-2.656-13.92-13.336-24.888l-5.936-6.04-4.736-4.96-15.984-17.152-6.744-7.08-3.2-3.28-3.056-3.056c-9.672-9.536-14.616-12.912-18.856-13.568l-0.56-0.064L247.92 168z" fill="#2c2c2c" p-id="2692"></path></svg>