<?xml version="1.0" standalone="no"?><!DOCTYPE svg PUBLIC "-//W3C//DTD SVG 1.1//EN" "http://www.w3.org/Graphics/SVG/1.1/DTD/svg11.dtd"><svg t="1604920677322" class="icon" viewBox="0 0 1024 1024" version="1.1" xmlns="http://www.w3.org/2000/svg" p-id="11775" xmlns:xlink="http://www.w3.org/1999/xlink" width="128" height="128"><defs><style type="text/css"></style></defs><path d="M902.103528 512.390095A389.315048 389.315048 0 0 0 738.263528 195.047619h15.750095V0h-487.619048v195.047619h19.358476a389.315048 389.315048 0 0 0-1.219047 633.904762h-18.188191v195.047619h487.619048v-195.047619h-14.57981A389.12 389.12 0 0 0 902.103528 512.390095zM315.107718 146.285714V48.761905h390.095238v97.523809h-59.733333C603.826956 131.072 558.966004 122.343619 512.00829 122.343619S420.189623 131.072 378.498194 146.285714h-63.390476z m390.144 731.428572v97.523809h-390.095238v-97.523809h60.903619c42.422857 15.798857 88.112762 24.868571 135.996952 24.868571s93.574095-9.069714 135.996953-24.868571h57.197714z m-66.852571-48.761905H385.617432a340.845714 340.845714 0 0 1-214.601142-316.562286A340.943238 340.943238 0 0 1 387.958004 195.047619h248.100571a340.845714 340.845714 0 0 1 216.941715 317.342476A340.845714 340.845714 0 0 1 638.399147 828.952381z" p-id="11776" fill="#161616"></path><path d="M696.669623 346.258286L507.034575 535.893333 386.982766 415.792762a24.380952 24.380952 0 0 0-34.474667 34.474667l137.898667 137.947428a24.380952 24.380952 0 0 0 34.474666 0c1.072762-1.024 1.560381-2.438095 2.389334-3.608381l203.873524-203.873524a24.380952 24.380952 0 0 0-34.474667-34.474666z" p-id="11777" fill="#161616"></path></svg>