<?xml version="1.0" standalone="no"?><!DOCTYPE svg PUBLIC "-//W3C//DTD SVG 1.1//EN" "http://www.w3.org/Graphics/SVG/1.1/DTD/svg11.dtd"><svg t="1605842099638" class="icon" viewBox="0 0 1024 1024" version="1.1" xmlns="http://www.w3.org/2000/svg" p-id="3314" width="32" height="32" xmlns:xlink="http://www.w3.org/1999/xlink"><defs><style type="text/css"></style></defs><path d="M718.222222 455.111111c0-29.354667-4.636444-57.614222-13.084444-84.167111C654.336 313.642667 580.380444 277.333333 497.777778 277.333333c-153.173333 0-277.333333 124.16-277.333334 277.333334 0 29.354667 4.636444 57.614222 13.084445 84.167111C284.344889 696.135111 358.286222 732.444444 440.888889 732.444444c153.173333 0 277.333333-124.16 277.333333-277.333333z" fill="#515151" p-id="3315"></path><path d="M440.888889 739.555556c-164.693333 0-298.666667-133.987556-298.666667-298.666667 0-164.693333 133.973333-298.666667 298.666667-298.666667 164.679111 0 298.666667 133.973333 298.666667 298.666667 0 164.679111-133.987556 298.666667-298.666667 298.666667z m0-554.666667c-141.155556 0-256 114.844444-256 256s114.844444 256 256 256 256-114.844444 256-256-114.844444-256-256-256z" fill="#515151" p-id="3316"></path><path d="M877.027556 450.375111c0-230.030222-187.150222-417.180444-417.180445-417.180444a21.333333 21.333333 0 1 0 0 42.666666c206.520889 0 374.513778 168.007111 374.513778 374.513778C834.360889 656.896 666.368 824.888889 459.847111 824.888889a374.513778 374.513778 0 0 1-181.973333-47.118222 21.347556 21.347556 0 0 0-20.778667 37.276444A417.464889 417.464889 0 0 0 455.111111 867.399111V952.888889h-128a21.333333 21.333333 0 0 0 0 42.666667h284.444445a21.333333 21.333333 0 0 0 0-42.666667h-113.777778v-87.139556c212.309333-19.228444 379.249778-198.144 379.249778-415.374222z" fill="#515151" p-id="3317"></path></svg>