<?xml version="1.0" standalone="no"?><!DOCTYPE svg PUBLIC "-//W3C//DTD SVG 1.1//EN" "http://www.w3.org/Graphics/SVG/1.1/DTD/svg11.dtd"><svg t="1604919013953" class="icon" viewBox="0 0 1024 1024" version="1.1" xmlns="http://www.w3.org/2000/svg" p-id="6647" xmlns:xlink="http://www.w3.org/1999/xlink" width="128" height="128"><defs><style type="text/css"></style></defs><path d="M795.085 236.083A401.51 401.51 0 0 0 500.48 119.091a399.923 399.923 0 0 0-388.3 388.352 401.51 401.51 0 0 0 116.94 294.4A396.237 396.237 0 0 0 511.59 919.04h12.186a398.285 398.285 0 0 0 271.36-116.94 398.54 398.54 0 0 0 116.992-271.36 396.442 396.442 0 0 0-117.043-294.657z m-522.24 43.469a337.357 337.357 0 0 1 195.072-96.358c-0.563 4.608-1.229 9.216-2.048 13.772a3.891 3.891 0 0 1 0 0.82c-0.82 4.71-1.69 9.37-2.714 13.977-0.358 1.587-0.768 3.175-1.126 4.813a303.183 303.183 0 0 1-2.458 9.78q-0.717 2.764-1.536 5.529c-0.819 2.97-1.74 5.99-2.662 8.96-0.563 1.894-1.178 3.737-1.792 5.632-0.973 2.918-2.048 5.837-3.072 8.755l-1.997 5.427q-1.74 4.557-3.686 9.063c-0.666 1.587-1.28 3.174-1.997 4.761-1.536 3.584-3.226 7.117-4.864 10.65l-1.383 2.918q-3.276 6.759-6.912 13.363l-1.69 2.919c-1.894 3.379-3.788 6.758-5.785 10.24l-2.816 4.454c-1.74 2.765-3.481 5.53-5.12 8.243l-3.277 4.762c-1.74 2.56-3.584 5.12-5.427 7.629l-3.533 4.761c-1.945 2.51-3.89 5.12-5.888 7.424l-3.584 4.455c-2.252 2.662-4.505 5.12-6.81 7.833l-3.225 3.636c-3.43 3.737-6.912 7.424-10.547 11.008s-7.629 6.912-11.366 10.342l-3.687 3.277-7.782 6.963-4.455 3.635c-2.457 1.997-5.12 3.943-7.424 5.837l-4.812 3.635a151.038 151.038 0 0 1-7.527 5.12c-1.587 1.127-3.225 2.304-5.12 3.38-2.662 1.791-5.12 3.481-8.038 5.12-1.536 0.972-3.072 1.996-4.66 2.918-3.174 1.945-6.4 3.789-9.625 5.58l-3.328 1.895c-4.352 2.406-8.755 4.71-13.26 6.86-1.076 0.564-2.151 1.025-3.278 1.537a263.16 263.16 0 0 1-10.24 4.71l-5.12 2.1c-2.918 1.228-5.888 2.457-8.857 3.583l-5.53 2.048-8.704 3.021-5.632 1.843c-2.97 0.922-5.99 1.844-9.011 2.663l-5.427 1.536q-5.12 1.28-10.24 2.457l-4.557 1.076q-14.182 3.072-28.62 5.12a336.691 336.691 0 0 1 96.92-195.482zM174.08 537.037l4.352-0.512 7.629-0.973q5.12-0.666 10.24-1.536l7.526-1.28a241.306 241.306 0 0 0 10.24-2.048l7.22-1.536c3.635-0.82 7.219-1.74 10.803-2.662l6.656-1.741c3.993-1.075 7.987-2.304 11.98-3.533l5.12-1.587c5.735-1.843 11.367-3.84 16.999-5.94l1.382-0.563q7.68-2.918 15.36-6.144l5.427-2.406c3.636-1.638 7.27-3.277 10.855-5.12l6.451-2.816a252.16 252.16 0 0 0 9.728-5.12l6.502-3.584c3.072-1.74 6.093-3.482 9.165-5.12l6.451-3.942 8.807-5.735c2.15-1.382 4.25-2.765 6.297-4.25 2.919-1.996 5.837-4.044 8.653-6.143l5.837-4.813 8.704-6.861c1.843-1.485 3.686-2.918 5.53-4.454 3.123-2.612 6.144-5.12 9.216-7.988l4.505-3.942c4.455-4.147 8.909-8.346 13.21-12.646s8.499-8.756 12.646-13.21l3.943-4.506q4.096-4.608 7.987-9.216c1.536-1.843 2.97-3.686 4.454-5.58 2.304-2.868 4.608-5.735 6.861-8.653l4.864-6.042c2.1-2.816 4.147-5.734 6.144-8.601 1.485-2.1 2.867-4.25 4.3-6.35 1.895-2.918 3.79-5.836 5.633-8.806 1.382-2.15 2.713-4.3 3.993-6.502 1.844-3.02 3.584-6.042 5.12-9.114 1.23-2.15 2.458-4.3 3.636-6.502 1.69-3.226 3.328-6.451 5.12-9.677 1.075-2.099 2.15-4.198 3.174-6.297 1.74-3.584 3.38-7.168 5.12-10.804 0.82-1.843 1.69-3.635 2.509-5.478 2.099-5.12 4.147-10.24 6.041-15.36 0-0.512 0.461-1.024 0.615-1.536 2.099-5.58 4.096-11.264 5.939-16.947 0.563-1.69 1.024-3.38 1.536-5.12 1.28-4.045 2.509-8.09 3.635-12.135 0.563-2.15 1.075-4.352 1.639-6.502a265.515 265.515 0 0 0 2.713-11.008c0.563-2.304 1.024-4.66 1.536-7.014 0.717-3.584 1.434-7.117 2.1-10.701l1.228-7.322c0.563-3.533 1.075-7.117 1.587-10.7l0.922-7.373c0-1.485 0.41-3.021 0.563-4.506a338.944 338.944 0 0 1 319.949 320.614l-4.454 0.564-7.476 0.921-10.65 1.587-7.32 1.23-10.65 2.098c-2.356 0.512-4.762 0.973-7.117 1.536-3.635 0.82-7.27 1.741-10.906 2.663l-6.553 1.69c-4.045 1.126-8.039 2.355-11.981 3.583l-5.12 1.588a387.486 387.486 0 0 0-16.896 5.888l-1.741 0.716c-5.12 1.895-10.24 3.892-14.848 5.99l-5.632 2.56c-3.584 1.588-7.168 3.175-10.65 5.12l-6.45 3.226c-3.175 1.639-6.4 3.277-9.524 5.12-2.253 1.178-4.454 2.458-6.605 3.687-3.02 1.69-6.041 3.43-9.011 5.12l-6.605 4.045c-2.918 1.843-5.837 3.686-8.704 5.58l-6.451 4.352c-2.867 1.997-5.683 4.045-8.5 6.093s-4.095 2.97-6.143 4.557c-2.867 2.15-5.735 4.454-8.55 6.707l-5.633 4.557c-3.072 2.56-6.092 5.12-9.113 7.885l-4.608 4.096c-4.455 4.096-8.909 8.243-13.21 12.595s-8.55 8.755-12.646 13.21l-3.943 4.505c-2.713 3.072-5.12 6.093-7.987 9.216-1.536 1.843-2.97 3.687-4.454 5.53a569.42 569.42 0 0 0-6.861 8.704l-4.454 5.99c-2.1 2.867-4.148 5.786-6.196 8.704-1.433 2.048-2.816 4.147-4.198 6.247-1.946 2.97-3.891 5.888-5.734 8.908-1.332 2.1-2.663 4.25-3.943 6.4-1.843 3.021-3.584 6.144-5.376 9.216-1.177 2.15-2.406 4.25-3.533 6.4-1.792 3.277-3.43 6.554-5.12 9.83-1.024 2.049-2.099 4.097-3.072 6.145-1.74 3.635-3.43 7.321-5.12 11.008-0.768 1.792-1.638 3.533-2.355 5.12q-3.328 7.68-6.297 15.36c0 0.358-0.308 0.717-0.41 1.075-2.1 5.632-4.096 11.264-5.94 16.998-0.562 1.639-1.023 3.328-1.535 5.12-1.229 4.045-2.509 8.09-3.635 12.186-0.564 2.15-1.076 4.352-1.639 6.502a263.168 263.168 0 0 0-2.713 10.957l-1.536 7.117c-0.717 3.533-1.434 7.014-2.048 10.547-0.461 2.509-0.87 5.12-1.28 7.527q-0.87 5.12-1.536 10.24c-0.359 2.508-0.666 5.12-0.973 7.628 0 1.485-0.359 2.919-0.512 4.352A338.74 338.74 0 0 1 174.08 537.037zM751.872 758.63a336.998 336.998 0 0 1-195.533 96.41q1.946-14.438 5.12-28.57c0.307-1.587 0.717-3.123 1.075-4.71a309.354 309.354 0 0 1 2.458-9.882c0.46-1.843 1.024-3.686 1.536-5.478 0.82-3.02 1.74-5.99 2.662-8.96q0.87-2.816 1.844-5.683c0.972-2.867 1.945-5.786 3.02-8.653 0.666-1.843 1.332-3.686 2.048-5.53 1.127-2.97 2.356-5.888 3.533-8.857 0.717-1.639 1.383-3.328 2.15-5.12 1.485-3.43 3.073-6.81 4.66-10.24 0.512-1.127 1.024-2.253 1.587-3.38a269.217 269.217 0 0 1 6.86-13.209c0.564-1.126 1.23-2.202 1.895-3.328 1.792-3.226 3.635-6.451 5.581-9.626 0.922-1.587 1.946-3.123 2.918-4.659 1.69-2.713 3.38-5.376 5.12-8.038q1.588-2.458 3.38-5.12c1.74-2.509 3.481-5.12 5.12-7.475a171.526 171.526 0 0 1 3.635-4.864c1.894-2.458 3.84-5.12 5.785-7.322 1.23-1.536 2.407-3.072 3.687-4.557 2.15-2.611 4.403-5.12 6.707-7.731l3.277-3.686c3.43-3.738 6.912-7.424 10.24-11.06s7.321-7.065 11.059-10.24l3.686-3.276c2.56-2.304 5.12-4.557 7.732-6.708 1.484-1.28 3.02-2.457 4.505-3.686l7.424-5.837 4.762-3.584c2.509-1.792 5.12-3.635 7.577-5.376l4.864-3.328c2.663-1.792 5.376-3.533 8.09-5.12 1.536-0.973 3.02-1.945 4.608-2.867a370.376 370.376 0 0 1 9.728-5.683l3.226-1.792a325.632 325.632 0 0 1 13.26-6.912l3.226-1.485c3.43-1.638 6.86-3.226 10.24-4.762l5.12-2.048c2.918-1.228 5.888-2.457 8.858-3.584l5.53-2.048c2.866-1.075 5.785-2.099 8.652-3.02l5.734-1.895a252.243 252.243 0 0 1 8.858-2.611l5.58-1.587 9.626-2.355 5.12-1.178c4.455-0.973 8.96-1.843 13.466-2.662h1.536c4.506-0.768 8.96-1.434 13.466-1.997a336.998 336.998 0 0 1-96.103 194.97z" p-id="6648" fill="#161616"></path></svg>