<?xml version="1.0" standalone="no"?><!DOCTYPE svg PUBLIC "-//W3C//DTD SVG 1.1//EN" "http://www.w3.org/Graphics/SVG/1.1/DTD/svg11.dtd"><svg t="1604919055643" class="icon" viewBox="0 0 1026 1024" version="1.1" xmlns="http://www.w3.org/2000/svg" p-id="8377" xmlns:xlink="http://www.w3.org/1999/xlink" width="128.25" height="128"><defs><style type="text/css"></style></defs><path d="M333.106 733.062c-58.348 52.21-97.04 49.05-136.467 9.492l-45.157-48.463c-39.428-39.541-39.428-103.667 0-143.226l193.261-193.849c39.427-39.559 103.356-39.559 142.784 0l35.68 35.794c30.457 30.556 37.398 75.763 20.801 112.998l86.287 66.04c59.149-59.33 59.149-155.518 0-214.83L523.207 249.6c-59.134-59.33-155.01-59.33-214.161 0L44.394 515.072c-59.133 59.314-59.133 155.502 0 214.83l107.088 107.416c59.134 59.314 155.027 59.314 214.177 0l102.162-105.647-72.98-70.034-61.735 71.425zM987.24 285.395L880.168 177.98c-59.15-59.33-155.027-59.33-214.177 0 0 0 4.223-1.065-57.99 61.343l71.114 68.167 31.605-34.877c39.428-39.542 103.357-39.542 142.784 0l35.696 35.81c39.428 39.542 39.428 103.668 0 143.226L714.863 632.847c-39.428 39.542-103.341 39.542-142.769 0l-29.395-48.462c-61.884-46.254-42.866-57.318-37.612-88.545l-78.495-77.71c-59.15 59.33-59.15 155.518 0 214.83l107.073 107.434c59.149 59.313 155.027 59.313 214.177 0L987.24 500.227c84.387-97.302 0-214.832 0-214.832z" p-id="8378" fill="#161616"></path></svg>