<?xml version="1.0" standalone="no"?><!DOCTYPE svg PUBLIC "-//W3C//DTD SVG 1.1//EN" "http://www.w3.org/Graphics/SVG/1.1/DTD/svg11.dtd"><svg t="1604994904955" class="icon" viewBox="0 0 1024 1024" version="1.1" xmlns="http://www.w3.org/2000/svg" p-id="13350" xmlns:xlink="http://www.w3.org/1999/xlink" width="128" height="128"><defs><style type="text/css"></style></defs><path d="M761.28 636.8a19.712 19.712 0 0 0-2.56-27.52A425.344 425.344 0 0 0 596.48 523.392c82.752-39.552 139.968-122.24 139.968-217.28C736.448 172.928 624.256 64 486.4 64 348.608 64 236.352 172.8 236.352 306.048c0 95.296 57.408 178.112 140.48 217.6-157.568 43.328-281.92 177.28-312.448 349.376a20.032 20.032 0 0 0 15.744 22.976h3.2a20.224 20.224 0 0 0 19.712-16.384c34.112-191.616 195.584-331.456 383.232-331.456 90.56 0 175.808 31.552 247.424 91.264a19.84 19.84 0 0 0 27.584-2.56zM275.648 306.048c0-111.488 94.464-202.752 210.56-202.752 116.224 0 210.688 91.264 210.688 202.752 0 111.552-94.4 202.752-210.56 202.752S275.648 417.6 275.648 306.048z m261.184 456.768c0 11.072 8.576 19.648 19.712 19.648h319.488a19.328 19.328 0 0 0 19.712-19.648 19.328 19.328 0 0 0-19.712-19.712H556.544a19.328 19.328 0 0 0-19.712 19.712z m339.328 93.76H556.544a19.328 19.328 0 0 0-19.712 19.712c0 11.072 8.576 19.648 19.712 19.648h319.488a19.328 19.328 0 0 0 19.712-19.648 19.2 19.2 0 0 0-19.584-19.712z" p-id="13351"></path></svg>