<?xml version="1.0" standalone="no"?><!DOCTYPE svg PUBLIC "-//W3C//DTD SVG 1.1//EN" "http://www.w3.org/Graphics/SVG/1.1/DTD/svg11.dtd"><svg t="1604919031772" class="icon" viewBox="0 0 1024 1024" version="1.1" xmlns="http://www.w3.org/2000/svg" p-id="7503" xmlns:xlink="http://www.w3.org/1999/xlink" width="128" height="128"><defs><style type="text/css"></style></defs><path d="M769.266526 591.858526c100.628211 0 182.204632 81.293474 182.204632 181.584842a180.304842 180.304842 0 0 1-31.157895 101.584843L1003.789474 958.214737 951.302737 1010.526316l-84.176842-83.887158a181.800421 181.800421 0 0 1-97.859369 28.382316c-100.628211 0-182.204632-81.293474-182.204631-181.578106 0-100.291368 81.583158-181.584842 182.204631-181.584842zM512.303158 20.210526c124.382316 0 233.977263 81.434947 269.480421 200.232421 35.503158 118.797474-11.526737 246.723368-115.637895 314.543158-52.749474 36.796632-116.850526 49.030737-146.566737 57.357474-36.998737 10.374737-88.569263 28.712421-123.176421 38.837895-160.390737 46.942316-277.497263 194.708211-277.497263 369.738105H20.210526c0.013474-211.792842 136.407579-399.669895 338.256842-465.933474-104.111158-67.819789-151.141053-195.745684-115.637894-314.543158C278.332632 101.645474 387.927579 20.210526 512.303158 20.210526z m256.963368 645.753263c-59.755789 0-108.099368 48.175158-108.099368 107.479579 0 59.297684 48.343579 107.472842 108.099368 107.472843s108.099368-48.175158 108.099369-107.472843c0-59.304421-48.343579-107.479579-108.099369-107.479579z m-257.28-554.172631c-104.353684 0-188.948211 84.304842-188.94821 188.301474 0 104.003368 84.594526 188.308211 188.94821 188.30821 67.503158 0 129.886316-35.893895 163.637895-94.154105a187.755789 187.755789 0 0 0 0-188.308211c-33.751579-58.260211-96.134737-94.154105-163.637895-94.154105z" p-id="7504" fill="#161616"></path></svg>