<?xml version="1.0" standalone="no"?><!DOCTYPE svg PUBLIC "-//W3C//DTD SVG 1.1//EN" "http://www.w3.org/Graphics/SVG/1.1/DTD/svg11.dtd"><svg t="1604994927453" class="icon" viewBox="0 0 1024 1024" version="1.1" xmlns="http://www.w3.org/2000/svg" p-id="13811" xmlns:xlink="http://www.w3.org/1999/xlink" width="128" height="128"><defs><style type="text/css"></style></defs><path d="M870.4 174.4128c17.6896 0 32 14.2848 32 32V870.4c0 17.6896-14.3104 32-32 32H134.4C116.7104 902.4 102.4 888.0896 102.4 870.4V206.3872c0-17.664 14.3104-32 32-32h168.0128v-64c0-4.3776 3.584-7.9872 7.9872-7.9872h56.0128c4.3776 0 7.9872 3.584 7.9872 8.0128v64h256v-64c0-4.4032 3.584-8.0128 8.0128-8.0128h55.9872c4.4032 0 8.0128 3.584 8.0128 8.0128v64H870.4zM812.8 761.6h-550.4v-499.2A6.4 6.4 0 0 0 256 256H211.2a6.4 6.4 0 0 0-6.4 6.4v550.4c0 3.5072 2.8928 6.4 6.4 6.4h601.6a6.4 6.4 0 0 0 6.4-6.4V768a6.4 6.4 0 0 0-6.4-6.4zM332.8 697.6h44.8A6.4 6.4 0 0 0 384 691.2v-115.2a6.4 6.4 0 0 0-6.4-6.4H332.8a6.4 6.4 0 0 0-6.4 6.4V691.2c0 3.5072 2.8928 6.4 6.4 6.4z m121.6 0h44.8a6.4 6.4 0 0 0 6.4-6.4V435.2a6.4 6.4 0 0 0-6.4-6.4h-44.8a6.4 6.4 0 0 0-6.4 6.4v256c0 3.5072 2.8928 6.4 6.4 6.4z m121.6 0h44.8a6.4 6.4 0 0 0 6.4-6.4v-193.6128a6.4 6.4 0 0 0-6.4-6.4H576a6.4 6.4 0 0 0-6.4 6.4V691.2c0 3.5072 2.8928 6.4 6.4 6.4z m121.6 0H742.4a6.4 6.4 0 0 0 6.4-6.4V371.2a6.4 6.4 0 0 0-6.4-6.4h-44.8a6.4 6.4 0 0 0-6.4 6.4V691.2c0 3.5072 2.8928 6.4 6.4 6.4z" fill="#161616" p-id="13812"></path></svg>