<?xml version="1.0" standalone="no"?><!DOCTYPE svg PUBLIC "-//W3C//DTD SVG 1.1//EN" "http://www.w3.org/Graphics/SVG/1.1/DTD/svg11.dtd"><svg t="1603278264868" class="icon" viewBox="0 0 1024 1024" version="1.1" xmlns="http://www.w3.org/2000/svg" p-id="5051" xmlns:xlink="http://www.w3.org/1999/xlink" width="128" height="128"><defs><style type="text/css"></style></defs><path d="M909.7216 923.2384H942.08V1003.52H81.92v-80.2816h37.4784V297.3696a26.8288 26.8288 0 0 1 26.86976-26.76736h268.8a26.8288 26.8288 0 0 1 26.89024 26.76736V923.2384h37.6832V456.84736h146.69824l173.01504 172.2368V923.2384h40.30464L839.61856 612.352 643.072 416.68608h-163.4304V47.22688c0-14.80704 12.04224-26.74688 26.86976-26.74688h376.32c14.848 0 26.89024 11.93984 26.89024 26.76736V923.2384zM774.2464 187.8016h83.90656V104.1408h-83.90656V187.8016z m0 146.432h83.90656v-83.68128h-83.90656v83.6608z m0 125.48096h83.90656v-83.6608h-83.90656v83.6608zM648.37632 187.8016h83.90656V104.1408H648.3968V187.8016z m0 146.432h83.90656v-83.68128H648.3968v83.6608z m0 418.304h83.90656V668.8768H648.3968v83.6608z m0 125.48096h83.90656v-83.6608H648.3968v83.6608z m-125.89056-271.89248h83.92704V522.4448h-83.92704v83.6608z m0 146.41152h83.92704V668.8768h-83.92704v83.6608z m0 125.48096h83.92704v-83.6608h-83.92704v83.6608zM291.71712 438.80448h83.90656V355.1232h-83.90656v83.68128z m0 104.57088h83.90656v-83.6608h-83.90656v83.6608z m0 104.57088h83.90656v-83.6608h-83.90656v83.6608z m0 104.59136h83.90656V668.8768h-83.90656v83.6608z m0 104.57088h83.90656v-83.6608h-83.90656v83.6608zM186.81856 438.80448h83.92704V355.1232H186.81856v83.68128z m0 104.57088h83.92704v-83.6608H186.81856v83.6608z m0 104.57088h83.92704v-83.6608H186.81856v83.6608z m0 104.59136h83.92704V668.8768H186.81856v83.6608z m0 104.57088h83.92704v-83.6608H186.81856v83.6608z m335.6672-522.89536h83.92704v-83.6608h-83.92704v83.6608z" p-id="5052" fill="#409EFF"></path></svg>