<?xml version="1.0" standalone="no"?><!DOCTYPE svg PUBLIC "-//W3C//DTD SVG 1.1//EN" "http://www.w3.org/Graphics/SVG/1.1/DTD/svg11.dtd"><svg t="1603278297899" class="icon" viewBox="0 0 1024 1024" version="1.1" xmlns="http://www.w3.org/2000/svg" p-id="5905" xmlns:xlink="http://www.w3.org/1999/xlink" width="128" height="128"><defs><style type="text/css"></style></defs><path d="M640 0a64 64 0 0 1 64 64v256a64 64 0 0 1-64 64h-88.288v73.152h232.832c33.376 0 60.96 26.112 63.424 58.88l0.16 4.736V640H944a64 64 0 0 1 64 64v256a64 64 0 0 1-64 64h-256a64 64 0 0 1-64-64v-256c0-36.896 21.344-58.24 64-64h75.328v-98.016H255.296V640H336a64 64 0 0 1 64 64v256a64 64 0 0 1-64 64h-256a64 64 0 0 1-64-64v-256c0-36.896 21.344-58.24 64-64h90.496v-119.232c0-33.376 26.08-60.992 58.88-63.424l4.736-0.16 232.8-0.032V384H384a64 64 0 0 1-64-64V64c0-36.896 21.344-58.24 64-64h256z" p-id="5906" fill="#409EFF"></path></svg>