<?xml version="1.0" standalone="no"?><!DOCTYPE svg PUBLIC "-//W3C//DTD SVG 1.1//EN" "http://www.w3.org/Graphics/SVG/1.1/DTD/svg11.dtd"><svg t="1603934123070" class="icon" viewBox="0 0 1024 1024" version="1.1" xmlns="http://www.w3.org/2000/svg" p-id="12461" xmlns:xlink="http://www.w3.org/1999/xlink" width="128" height="128"><defs><style type="text/css"></style></defs><path d="M512 64.5C264.9 64.5 64.5 264.9 64.5 512S264.9 959.5 512 959.5 959.5 759.1 959.5 512 759.1 64.5 512 64.5zM750.4 438L561 707.1c-12.6 16.2-30.1 24.7-49 24.7s-36.4-8.5-48.1-23.4L273.6 438c-10.2-14.4-6.7-34.4 7.8-44.5 14.5-10.2 34.4-6.7 44.5 7.7L512 665.8l186.1-264.6c10.2-14.4 30.1-17.9 44.5-7.7 14.4 10.1 17.9 30 7.8 44.5z" p-id="12462"></path></svg>