<?xml version="1.0" standalone="no"?><!DOCTYPE svg PUBLIC "-//W3C//DTD SVG 1.1//EN" "http://www.w3.org/Graphics/SVG/1.1/DTD/svg11.dtd"><svg t="1603934013471" class="icon" viewBox="0 0 1024 1024" version="1.1" xmlns="http://www.w3.org/2000/svg" p-id="8406" xmlns:xlink="http://www.w3.org/1999/xlink" width="128" height="128"><defs><style type="text/css"></style></defs><path d="M691.5072 762.3168l-165.5808 165.5808a62.3104 62.3104 0 0 1-45.2608 18.8928 63.8464 63.8464 0 0 1-45.4656-18.8928l-335.8208-335.1552a64 64 0 0 1 0-90.5216l166.4-165.632a24.0128 24.0128 0 0 1 33.8944 33.9456L134.0928 536.064a16.0256 16.0256 0 0 0-4.6592 11.3664 14.8992 14.8992 0 0 0 4.6592 11.2128l335.9744 335.9744a15.9744 15.9744 0 0 0 22.6304 0l164.8128-166.1952a24.0128 24.0128 0 1 1 35.1232 32.7168z" fill="#333333" p-id="8407"></path><path d="M481.28 951.9104h-0.512a69.5296 69.5296 0 0 1-48.896-20.48L95.744 596.3264a69.12 69.12 0 0 1 0-97.7408L262.144 332.8a29.0816 29.0816 0 0 1 41.2672 40.96L137.728 539.6992a10.9056 10.9056 0 0 0-3.1744 7.7312 9.7792 9.7792 0 0 0 3.072 7.4752L473.7024 890.88a10.9056 10.9056 0 0 0 7.68 3.2256 10.752 10.752 0 0 0 7.68-3.1744l164.864-166.2976a29.1328 29.1328 0 0 1 40.96-1.3312 29.184 29.184 0 0 1 1.4336 40.96l-1.3824 1.3824-165.5296 165.5296a68.096 68.096 0 0 1-48.128 20.736zM282.112 335.2576a18.5856 18.5856 0 0 0-12.8512 5.12L102.9632 505.8048a58.88 58.88 0 0 0 0 83.3024l336.0256 335.2064a59.1872 59.1872 0 0 0 41.6768 17.3568H481.28a57.7536 57.7536 0 0 0 40.96-17.3056l165.7856-165.7856 0.9216-0.9216a18.944 18.944 0 0 0-0.9216-26.7264 18.8928 18.8928 0 0 0-26.6752 0.9728l-165.3248 166.7072a20.48 20.48 0 0 1-14.7456 5.888 21.1968 21.1968 0 0 1-14.9504-6.2464l-335.872-335.9744a20.1728 20.1728 0 0 1-6.144-15.0016 20.8896 20.8896 0 0 1 6.144-14.7968l165.632-165.632a18.944 18.944 0 0 0 0-25.6 18.7392 18.7392 0 0 0-13.9776-5.9904zM765.44 342.6304A79.9744 79.9744 0 1 0 742.0928 399.36a79.9744 79.9744 0 0 0 23.3472-56.7296z m-79.9744 48.0256a47.9744 47.9744 0 1 1 33.8944-14.08 48.0768 48.0768 0 0 1-33.8944 14.08z" fill="#333333" p-id="8408"></path><path d="M685.4656 427.8784a85.1456 85.1456 0 0 1 0-170.24 85.248 85.248 0 0 1 85.0944 84.992 85.0432 85.0432 0 0 1-84.9408 85.248z m0-160a74.9056 74.9056 0 0 0 0 149.76 74.8032 74.8032 0 0 0 74.752-75.008 74.9568 74.9568 0 0 0-74.752-74.752z m0 128a53.1456 53.1456 0 0 1 0-106.24 53.1456 53.1456 0 0 1 0 106.24z m0-96a42.9056 42.9056 0 1 0 0 85.76 42.8032 42.8032 0 0 0 30.2592-12.5952 42.9056 42.9056 0 0 0 0-60.672 42.7008 42.7008 0 0 0-30.3104-12.5952z" fill="#333333" p-id="8409"></path><path d="M910.5408 543.2832l-145.408 145.6128a24.0128 24.0128 0 0 1-35.1232-32.7168 13.3632 13.3632 0 0 1 1.1776-1.2288l141.1584-141.9264a13.9264 13.9264 0 0 0 2.048-2.2016 16.1792 16.1792 0 0 0 4.352-10.752V164.096a16.0256 16.0256 0 0 0-16.0256-16.0256h-335.9744a17.7664 17.7664 0 0 0-10.752 4.352l-1.7408 1.5872-142.3872 142.2336A24.0128 24.0128 0 0 1 337.92 262.2976l145.6128-145.408a63.6416 63.6416 0 0 1 43.008-16.9472h336.0256A64 64 0 0 1 926.72 163.84v336.0768a64.0512 64.0512 0 0 1-16.9472 43.2128z" fill="#333333" p-id="8410"></path><path d="M747.52 701.44a29.1328 29.1328 0 0 1-21.248-48.9984l1.4336-1.4336 141.0048-141.568a14.592 14.592 0 0 0 1.5872-1.6896l0.3584-0.4608a10.752 10.752 0 0 0 2.9696-7.2704V164.096a10.9056 10.9056 0 0 0-10.9056-10.9056h-335.9744a12.544 12.544 0 0 0-7.3728 3.072l-1.6896 1.536-142.2336 142.08a29.1328 29.1328 0 0 1-41.2672-40.96l145.7152-145.664a69.2224 69.2224 0 0 1 46.6432-18.432h336.0256A69.1712 69.1712 0 0 1 931.84 163.84v336.0768a68.864 68.864 0 0 1-12.5952 39.5776l2.0992 0.3584-152.4224 152.6272a29.0304 29.0304 0 0 1-20.1728 9.1648z m130.816-187.5456a19.712 19.712 0 0 1-2.6624 2.816l-140.8512 141.6704-1.0752 1.0752a18.8928 18.8928 0 0 0-5.12 13.5168 18.9952 18.9952 0 0 0 19.5584 18.2272 18.944 18.944 0 0 0 13.1584-5.9904l138.24-138.7008h-0.4608l6.4-6.9632a58.6752 58.6752 0 0 0 16.0768-39.6288V163.84a58.9312 58.9312 0 0 0-58.88-58.88h-336.1792a58.368 58.368 0 0 0-39.5264 15.36L341.5552 265.9328a18.8928 18.8928 0 0 0 26.7776 26.5728L512.5632 148.48a22.8864 22.8864 0 0 1 13.8752-5.6832h336.2816a21.1456 21.1456 0 0 1 21.1456 21.1456v336.128a21.3504 21.3504 0 0 1-5.5296 14.0288zM419.84 439.1424a14.2848 14.2848 0 0 1 19.968-2.816 16.0256 16.0256 0 0 1 2.7648 2.816l135.68 135.8336a13.8752 13.8752 0 0 1 0 22.528 14.08 14.08 0 0 1-19.712 2.8672 15.36 15.36 0 0 1-2.8672-2.8672L419.84 461.6704a14.08 14.08 0 0 1-2.8672-19.712 13.568 13.568 0 0 1 2.8672-2.816zM335.6672 523.776a14.08 14.08 0 0 1 19.712-2.8672 15.36 15.36 0 0 1 2.8672 2.8672l135.8336 135.68a16.0768 16.0768 0 0 1-22.7328 22.6816l-135.68-135.8336a14.08 14.08 0 0 1-2.816-19.712 12.2368 12.2368 0 0 1 2.816-2.816z" fill="#333333" p-id="8411"></path><path d="M482.7136 691.968a20.9408 20.9408 0 0 1-14.9504-6.1952L332.288 550.1952a19.3024 19.3024 0 0 1-7.168-12.5952 18.8928 18.8928 0 0 1 3.6352-14.2336 19.1488 19.1488 0 0 1 3.2768-3.4816 19.4048 19.4048 0 0 1 12.1856-6.912 19.1488 19.1488 0 0 1 14.2336 3.6352 17.2544 17.2544 0 0 1 3.6352 3.584l135.6288 135.424a21.1968 21.1968 0 0 1-15.0016 36.1472z m-135.7312-168.96a9.1136 9.1136 0 0 0-7.2192 3.6352l-1.024 1.024a9.8816 9.8816 0 0 0-1.792 1.792 8.96 8.96 0 0 0 1.792 12.544l0.5632 0.512 135.68 135.8336a10.9568 10.9568 0 0 0 15.36-15.36l-136.192-136.1408a7.8848 7.8848 0 0 0-1.8432-1.8432 9.0112 9.0112 0 0 0-5.3248-1.792z m219.8016 85.0944a19.2 19.2 0 0 1-11.4688-3.84 17.2544 17.2544 0 0 1-3.6352-3.584L416.3072 465.5616a19.2 19.2 0 0 1-3.584-26.6752 21.0944 21.0944 0 0 1 3.328-3.4304 19.0464 19.0464 0 0 1 12.3392-6.912 19.2512 19.2512 0 0 1 14.336 3.7376 18.688 18.688 0 0 1 3.5328 3.4304l135.168 135.3728a19.0464 19.0464 0 0 1 3.9424 26.3168 18.2272 18.2272 0 0 1-3.6352 3.7888 19.2 19.2 0 0 1-14.9504 7.1168zM431.0528 438.5792h-1.28a8.8064 8.8064 0 0 0-5.9904 3.5328l-1.024 1.024a8.7552 8.7552 0 0 0-1.8432 1.792 9.1136 9.1136 0 0 0-1.6896 6.656 8.9088 8.9088 0 0 0 3.5328 5.888l0.5632 0.4608 136.2944 136.4992a7.8848 7.8848 0 0 0 1.8432 1.8432 8.96 8.96 0 0 0 12.544-1.8432l1.0752-1.0752a7.9872 7.9872 0 0 0 1.9968-1.9456 8.8064 8.8064 0 0 0-1.9968-12.288l-0.6144-0.5632-136.1408-136.3456a9.8816 9.8816 0 0 0-1.792-1.792 9.1648 9.1648 0 0 0-5.4784-1.8432z" fill="#333333" p-id="8412"></path></svg>