<?xml version="1.0" standalone="no"?><!DOCTYPE svg PUBLIC "-//W3C//DTD SVG 1.1//EN" "http://www.w3.org/Graphics/SVG/1.1/DTD/svg11.dtd"><svg t="1603934165632" class="icon" viewBox="0 0 1024 1024" version="1.1" xmlns="http://www.w3.org/2000/svg" p-id="14135" xmlns:xlink="http://www.w3.org/1999/xlink" width="128" height="128"><defs><style type="text/css"></style></defs><path d="M439.195 738.314H284.132c-15.675 0-28.389-12.713-28.389-28.392 0-15.676 12.714-28.385 28.389-28.385h158.175a256.62 256.62 0 0 1 74.557-141.921H284.132a28.39 28.39 0 0 1 0-56.779h323.203a255.442 255.442 0 0 1 88.371-15.966c52.442 0 101.205 15.849 141.917 42.894v-353.32c-0.096-31.311-25.453-56.67-56.763-56.767H184.79c-31.312 0.097-56.667 25.456-56.765 56.767v709.6c0.098 31.312 25.453 56.668 56.765 56.767h347.748a256.748 256.748 0 0 1-93.343-184.498zM259.549 298.369a28.392 28.392 0 0 1 24.582-14.193h397.371a28.398 28.398 0 0 1 24.588 14.193 28.381 28.381 0 0 1 0 28.392 28.396 28.396 0 0 1-24.588 14.193h-397.37a28.394 28.394 0 0 1-24.582-14.193 28.393 28.393 0 0 1-0.001-28.392z" p-id="14136"></path><path d="M495.241 724.125c0 40.185 11.937 77.529 32.297 108.901l298.993-260.557a199.469 199.469 0 0 0-130.84-48.8c-110.703-0.008-200.45 89.742-200.45 200.456zM863.869 615.224L564.862 875.776a199.454 199.454 0 0 0 130.843 48.8c110.714 0 200.469-89.75 200.469-200.464a199.403 199.403 0 0 0-32.305-108.888z" p-id="14137"></path></svg>