<?xml version="1.0" standalone="no"?><!DOCTYPE svg PUBLIC "-//W3C//DTD SVG 1.1//EN" "http://www.w3.org/Graphics/SVG/1.1/DTD/svg11.dtd"><svg t="1603934140430" class="icon" viewBox="0 0 1024 1024" version="1.1" xmlns="http://www.w3.org/2000/svg" p-id="13215" xmlns:xlink="http://www.w3.org/1999/xlink" width="128" height="128"><defs><style type="text/css"></style></defs><path d="M942.592 360.448L545.28 13.312C536.064 5.12 523.776 0.512 512 0.512s-23.552 4.096-33.28 12.8L81.408 360.448c-34.816 30.72-12.8 87.552 33.28 87.552h173.568v153.6c0 20.992 16.896 38.4 38.4 38.4h370.688c20.992 0 38.4-16.896 38.4-38.4v-153.6h173.568c46.08 0 67.584-56.832 33.28-87.552zM671.744 384v191.488H352.256V384H151.552L512 69.12 872.448 384h-200.704zM320.512 767.488h383.488c17.408 0 31.744 14.336 31.744 31.744 0 17.408-14.336 31.744-31.744 31.744H320.512c-17.408 0-31.744-14.336-31.744-31.744-0.512-17.408 13.824-31.744 31.744-31.744zM384 959.488h256c17.408 0 31.744 14.336 31.744 31.744 0 17.408-14.336 31.744-31.744 31.744H384c-17.408 0-31.744-14.336-31.744-31.744 0-17.408 14.336-31.744 31.744-31.744z" p-id="13216"></path></svg>