<?xml version="1.0" standalone="no"?><!DOCTYPE svg PUBLIC "-//W3C//DTD SVG 1.1//EN" "http://www.w3.org/Graphics/SVG/1.1/DTD/svg11.dtd"><svg t="1603934181229" class="icon" viewBox="0 0 1024 1024" version="1.1" xmlns="http://www.w3.org/2000/svg" p-id="14899" xmlns:xlink="http://www.w3.org/1999/xlink" width="128" height="128"><defs><style type="text/css"></style></defs><path d="M445.046154 389.907692L354.461538 638.030769h185.107693l-90.584616-248.123077z" p-id="14900"></path><path d="M799.507692 126.030769H94.523077C43.323077 126.030769 0 169.353846 0 224.492308v704.984615C0 980.676923 43.323077 1024 94.523077 1024h704.984615c51.2 0 94.523077-43.323077 94.523077-94.523077V224.492308c3.938462-55.138462-39.384615-98.461538-94.523077-98.461539z m-181.16923 724.676923L567.138462 708.923077h-236.307693l-51.2 141.784615H189.046154l212.676923-547.446154h94.523077L708.923077 850.707692h-90.584615z" p-id="14901"></path><path d="M1024 94.523077C1024 43.323077 980.676923 0 929.476923 0H169.353846c-23.630769 0-43.323077 15.753846-43.323077 31.507692s19.692308 31.507692 43.323077 31.507693h787.692308v787.692307c0 23.630769 15.753846 43.323077 31.507692 43.323077s31.507692-19.692308 31.507692-43.323077v-169.353846V94.523077z" p-id="14902"></path></svg>