<?xml version="1.0" standalone="no"?><!DOCTYPE svg PUBLIC "-//W3C//DTD SVG 1.1//EN" "http://www.w3.org/Graphics/SVG/1.1/DTD/svg11.dtd"><svg t="1603934037016" class="icon" viewBox="0 0 1024 1024" version="1.1" xmlns="http://www.w3.org/2000/svg" p-id="9202" xmlns:xlink="http://www.w3.org/1999/xlink" width="128" height="128"><defs><style type="text/css"></style></defs><path d="M827.39 192.34h-635.2c-71.762 0-130.145 55.657-130.145 124.066v65.463h895.488v-65.463c0-68.409-58.382-124.065-130.143-124.065zM62.045 770.343c0 68.41 58.382 124.067 130.145 124.067h635.2c71.761 0 130.144-55.657 130.144-124.067V508.759H62.044v261.584z m540.346-67.156h186.242c18.65 0 33.769 15.119 33.769 33.77s-15.118 33.769-33.77 33.769h-186.24c-18.652 0-33.77-15.119-33.77-33.77s15.118-33.769 33.77-33.769z" p-id="9203"></path></svg>