<?xml version="1.0" standalone="no"?><!DOCTYPE svg PUBLIC "-//W3C//DTD SVG 1.1//EN" "http://www.w3.org/Graphics/SVG/1.1/DTD/svg11.dtd"><svg t="1604643422607" class="icon" viewBox="0 0 1024 1024" version="1.1" xmlns="http://www.w3.org/2000/svg" p-id="34133" xmlns:xlink="http://www.w3.org/1999/xlink" width="128" height="128"><defs><style type="text/css"></style></defs><path d="M509.732571 1010.285714C233.289143 1010.285714 9.142857 786.139429 9.142857 509.696 9.142857 233.216 233.252571 9.106286 509.732571 9.106286c276.443429 0 500.589714 224.073143 500.589715 500.589714-0.036571 276.443429-224.182857 500.589714-500.589715 500.589714z m0-917.723428c-230.4 0-417.133714 186.733714-417.133714 417.133714s186.733714 417.133714 417.133714 417.133714 417.133714-186.733714 417.133715-417.133714S740.096 92.562286 509.732571 92.562286z m250.258286 625.737143c-23.04 0-41.728-18.688-41.728-41.728v-166.875429a41.728 41.728 0 0 1 83.456 0V676.571429c0 23.04-18.688 41.728-41.728 41.728z m-166.838857 0c-23.04 0-41.728-18.688-41.728-41.728v-291.986286a41.728 41.728 0 0 1 83.456 0V676.571429a41.764571 41.764571 0 0 1-41.728 41.728z m-166.875429 0c-23.04 0-41.728-18.688-41.728-41.728V301.129143a41.728 41.728 0 0 1 83.456 0V676.571429c0 23.04-18.688 41.728-41.728 41.728z m-166.838857 0c-23.04 0-41.728-18.688-41.728-41.728v-166.875429a41.728 41.728 0 0 1 83.456 0V676.571429a41.764571 41.764571 0 0 1-41.728 41.728z" p-id="34134"></path></svg>