<?xml version="1.0" standalone="no"?><!DOCTYPE svg PUBLIC "-//W3C//DTD SVG 1.1//EN" "http://www.w3.org/Graphics/SVG/1.1/DTD/svg11.dtd"><svg t="1604643147417" class="icon" viewBox="0 0 1024 1024" version="1.1" xmlns="http://www.w3.org/2000/svg" p-id="30871" xmlns:xlink="http://www.w3.org/1999/xlink" width="128" height="128"><defs><style type="text/css"></style></defs><path d="M683.2 157.6c11.2 0 28.1 3.7 43 7.5 18.7 3.7 39.3 9.4 58 9.4 18.7 0 31.8-3.7 43-13.1 18.7-16.8 26.2-44.9 20.6-89.8v-7.5L821.6 66v7.5c3.7 35.5 0 58-13.1 69.2-5.6 5.6-15 7.5-26.2 7.5-15 0-33.7-3.7-52.4-9.4-16.8-3.7-33.7-7.5-48.6-7.5-13.1 0-22.4 3.7-29.9 9.4-11.2 9.4-15 26.2-11.2 50.5v5.6H599l-29.9 368.5h-26.2V380.2L410.1 455v-76.7L217.5 486.8v78.6h-43V960H788V565.4h-76.7l-22.4-361v-7.5h-22.4 5.6l-1.9-7.5c-3.7-18.7 0-26.2 1.9-26.2 1.8-3.8 3.6-5.6 11.1-5.6zM443.8 877.7l-1.9 7.5-20.6-3.7 1.9-7.5c0-1.9 7.5-52.4-44.9-86-39.3-26.2-41.2-69.2-37.4-99.1l-43 43-15-15 78.6-76.7 78.6 76.7-15 15-58-58c-7.5 24.3-13.1 71.1 24.3 95.4 63.6 41.1 52.4 106.6 52.4 108.4z m222.6 0v7.5l-20.6-3.7 1.9-7.5c0-1.9 7.5-52.4-44.9-86-39.3-26.2-41.2-69.2-37.4-99.1l-43 43-15-15 78.6-76.7 78.6 76.7-15 15-58-58c-7.5 24.3-15 71.1 24.3 95.4 61.7 41.1 52.4 104.7 50.5 108.4z" p-id="30872" fill="#161616"></path></svg>