<?xml version="1.0" standalone="no"?><!DOCTYPE svg PUBLIC "-//W3C//DTD SVG 1.1//EN" "http://www.w3.org/Graphics/SVG/1.1/DTD/svg11.dtd"><svg t="1604643195369" class="icon" viewBox="0 0 1024 1024" version="1.1" xmlns="http://www.w3.org/2000/svg" p-id="32616" xmlns:xlink="http://www.w3.org/1999/xlink" width="128" height="128"><defs><style type="text/css"></style></defs><path d="M872.875559 149.784767C776.293523 53.201387 647.930203 0 511.332519 0 374.757688 0 246.352692 53.181222 149.790823 149.763257 53.207443 246.346636 0.004712 374.751633 0.004712 511.327807c0 99.519519 28.60719 195.973837 82.730826 278.961441 10.721478 16.491583 32.76672 21.079973 49.213938 10.37866 16.468729-10.721478 21.100138-32.765376 10.35715-49.234105-46.533233-71.428573-71.150285-154.439031-71.150285-240.105996 0-242.722172 197.45535-440.177522 440.176178-440.177522 242.723516 0 440.177522 197.45535 440.177522 440.177522 0 242.720827-197.45535 440.176178-440.177522 440.176178-80.370084 0-159.004566-21.850306-227.38945-63.194209-16.811547-10.164903-38.684707-4.781981-48.84961 12.051076-10.163558 16.812891-4.760471 38.684707 12.030911 48.8281 79.51371 48.055078 170.841885 73.466662 264.208149 73.466662 136.576174 0 264.961005-53.181222 361.54304-149.763257 96.58338-96.58338 149.784767-224.96821 149.784767-361.56455 0-136.576174-53.201387-264.981171-149.784767-361.54304z" p-id="32617" fill="#161616"></path><path d="M387.37744 277.789136h-100.237421a9.679579 9.679579 0 0 0-9.679579 9.679579v100.237421c0 60.60761 49.308046 109.915656 109.917 109.915656 60.60761 0 109.915656-49.308046 109.915655-109.915656s-49.308046-109.917-109.915655-109.917z m61.918386 109.917c0 34.142027-27.776359 61.918386-61.918386 61.918386s-61.918386-27.776359-61.918386-61.918386v-61.918386h61.918386c34.142027 0.001344 61.918386 27.777704 61.918386 61.918386zM737.54563 277.789136h-100.237421c-60.608954 0-109.917 49.308046-109.917 109.917 0 60.60761 49.308046 109.915656 109.917 109.915656s109.917-49.308046 109.917-109.915656v-100.237421a9.679579 9.679579 0 0 0-9.679579-9.679579z m-38.319034 47.999958v61.918387c0 34.142027-27.776359 61.918386-61.918387 61.918386s-61.918386-27.776359-61.918386-61.918386 27.776359-61.918386 61.918386-61.918387h61.918387zM635.287597 527.72125c-60.60761 0-109.915656 49.308046-109.915655 109.917 0 60.608954 49.308046 109.917 109.915655 109.917h100.237421a9.679579 9.679579 0 0 0 9.679579-9.679579v-100.237421c0-60.60761-49.308046-109.917-109.917-109.917z m61.918386 109.917v61.918386h-61.918386c-34.142027 0-61.918386-27.776359-61.918386-61.918386s27.776359-61.918386 61.918386-61.918386 61.918386 27.776359 61.918386 61.918386zM385.356828 527.72125c-60.608954 0-109.917 49.308046-109.917 109.917v100.237421a9.679579 9.679579 0 0 0 9.679579 9.679579h100.237421c60.608954 0 109.917-49.308046 109.917-109.917 0-60.608954-49.30939-109.917-109.917-109.917z m61.917042 109.917c0 34.142027-27.776359 61.918386-61.917042 61.918386H323.437097v-61.918386c0-34.142027 27.776359-61.918386 61.918386-61.918386s61.918386 27.776359 61.918387 61.918386z" p-id="32618" fill="#161616"></path></svg>