<?xml version="1.0" standalone="no"?><!DOCTYPE svg PUBLIC "-//W3C//DTD SVG 1.1//EN" "http://www.w3.org/Graphics/SVG/1.1/DTD/svg11.dtd"><svg t="1604643390536" class="icon" viewBox="0 0 1024 1024" version="1.1" xmlns="http://www.w3.org/2000/svg" p-id="33614" xmlns:xlink="http://www.w3.org/1999/xlink" width="128" height="128"><defs><style type="text/css"></style></defs><path d="M281.287 910.222a91.932 91.932 0 0 1-91.648-91.648V268.629a91.932 91.932 0 0 1 91.648-91.648c16.043 0 29.781 13.767 29.781 29.781v43.549c-34.36 9.16-59.562 20.622-59.562 57.287V772.75c0 41.244 32.056 75.605 75.605 75.605h400.98c41.245 0 75.635-34.36 75.635-75.605V307.598c0-36.665-25.23-48.128-61.867-54.983v-43.548a27.876 27.876 0 0 1 27.477-32.085 91.932 91.932 0 0 1 91.648 91.648v549.945a91.932 91.932 0 0 1-91.647 91.647H281.316z m274.972-245.191h183.297c16.043 0 29.781 13.767 29.781 29.81 0 16.042-13.738 32.085-29.781 32.085H556.26a30.322 30.322 0 0 1-29.81-29.81c0-16.042 13.767-32.057 29.81-32.057z m0-242.859h183.297c16.043 0 29.781 13.739 29.781 29.781s-13.738 29.782-29.781 29.782H556.26a30.322 30.322 0 0 1-29.81-29.782c0-16.042 13.767-29.781 29.81-29.781zM372.907 238.848v-32.057c0-16.014 13.739-29.781 29.781-29.781h29.81a91.932 91.932 0 0 1 91.676-91.677 91.932 91.932 0 0 1 91.648 91.648h32.085c16.043 0 29.782 13.767 29.782 29.782v29.81l-304.754 2.275z m-80.213 187.904c4.608-4.58 13.767-4.58 20.65 0l50.404 50.404L473.743 367.16c6.855-6.856 18.318-6.856 22.898 0 6.883 6.883 6.883 16.042 0 22.926L377.487 509.24c-4.551 2.275-9.16 4.55-13.739 4.55-4.58 0-6.883-2.275-9.159-4.55l-59.591-59.591c-9.16-9.16-9.16-18.318-2.276-22.898z m167.282 325.376c-6.855 6.855-18.319 6.855-22.898 0L388.95 704l-48.128 48.128c-6.855 6.855-18.318 6.855-22.898 0-6.883-6.884-6.883-18.347 0-22.926l48.1-48.128-48.1-48.1c-6.883-6.883-6.883-18.347 0-22.926 6.855-6.855 16.043-6.855 22.898 0l48.128 48.128 48.128-48.128c6.855-6.855 18.318-6.855 22.898 0 6.883 6.884 6.883 16.043 0 22.926l-48.1 48.1 48.1 48.128c6.883 4.58 6.883 16.042 0 22.926z" p-id="33615" fill="#161616"></path></svg>