<?xml version="1.0" standalone="no"?><!DOCTYPE svg PUBLIC "-//W3C//DTD SVG 1.1//EN" "http://www.w3.org/Graphics/SVG/1.1/DTD/svg11.dtd"><svg t="1604643173229" class="icon" viewBox="0 0 1024 1024" version="1.1" xmlns="http://www.w3.org/2000/svg" p-id="31758" xmlns:xlink="http://www.w3.org/1999/xlink" width="128" height="128"><defs><style type="text/css"></style></defs><path d="M258.46 676.45c-15.72 0-28.88 21.18-28.88 36.9s13.16 36.9 28.88 36.9h99.48c16 0 28.88-20.86 28.88-36.9s-12.83-36.9-28.88-36.9z m453.43-164.3c0-16-13.16-36.9-28.88-36.9H258.46c-15.72 0-28.88 20.86-28.88 36.9s11.87 35.94 28.88 35.94H683c15.72 0 28.88-21.18 28.88-36.9zM258.46 349.46h424.87c16 0 28.88-20.86 28.88-36.9s-12.83-36.9-28.88-36.9H258.46c-15.72 0-28.88 21.18-28.88 36.9s13.16 36.9 28.88 36.9z m0 0" p-id="31759" fill="#161616"></path><path d="M839 530.12V175.85a78 78 0 0 0-77.66-77H188.19A102 102 0 0 0 98 188.37V835a101.72 101.72 0 0 0 90.17 89.53h444.14a34.66 34.66 0 0 0 38.51-35c0-23.1-16.69-44.93-32.09-45.25H211.62c-22.79 0-32.09-10.27-32.09-32.09V207c0-19.9 8-27.92 27.92-27.92h522.1c20.22 0 28.24 8 28.24 27.92v323.12c0 15.72 21.5 29.52 45.89 29.52a32.09 32.09 0 0 0 35-29.52z m0 0" p-id="31760" fill="#161616"></path><path d="M469.61 718.17a56.8 56.8 0 1 0 56.8-57.76 57.45 57.45 0 0 0-56.8 57.76z m227.2-57.76a57.76 57.76 0 1 0 56.8 57.76 57.13 57.13 0 0 0-56.8-57.76z m171.36 0A57.76 57.76 0 1 0 925 718.17a57.76 57.76 0 0 0-56.8-57.76z m0 0" p-id="31761" fill="#161616"></path></svg>