<?xml version="1.0" standalone="no"?><!DOCTYPE svg PUBLIC "-//W3C//DTD SVG 1.1//EN" "http://www.w3.org/Graphics/SVG/1.1/DTD/svg11.dtd"><svg t="1604403460097" class="icon" viewBox="0 0 1024 1024" version="1.1" xmlns="http://www.w3.org/2000/svg" p-id="5327" xmlns:xlink="http://www.w3.org/1999/xlink" width="128" height="128"><defs><style type="text/css"></style></defs><path d="M949.158074 419.46289c0.58017-4.06119 0-7.832295-1.74051-11.6034v-0.290085c-0.290085-0.870255-0.58017-1.450425-1.16034-2.030595-0.870255-1.450425-1.74051-2.610765-3.190935-4.06119-0.290085-0.290085-0.870255-0.58017-1.16034-1.16034-0.290085-0.290085-0.58017-0.58017-0.870255-0.58017-0.290085-0.290085-0.58017-0.58017-1.16034-0.870254-0.58017-0.290085-0.870255-0.870255-1.450425-1.16034l-117.774504-67.879887V202.769405c0-58.887252-47.864023-106.751275-106.751275-106.751275H309.52068c-58.887252 0-106.751275 47.864023-106.751275 106.751275v127.347309l-114.873654 66.429462c-0.290085 0-0.290085 0.290085-0.58017 0.290085l-1.74051 0.870255c-0.290085 0-0.290085 0.290085-0.58017 0.58017-1.16034 0.58017-2.030595 1.16034-2.90085 2.030594-0.870255 0.870255-1.74051 1.74051-2.610765 2.90085 0 0.290085-0.290085 0.290085-0.290085 0.58017-0.58017 0.58017-1.16034 1.16034-1.74051 2.030595-0.290085 0.290085-0.290085 0.870255-0.290085 1.16034-0.58017 1.16034-0.870255 2.610765-1.450425 3.771105v0.290085c-0.290085 1.450425-0.870255 2.610765-0.870255 4.06119 0 0.290085-0.290085 0.870255-0.290085 1.16034v405.248725c0 0.58017 0.290085 1.450425 0.290085 2.030595v1.16034C76.582436 882.148442 121.545609 928.271955 176.951841 928.271955h669.516148c55.406232 0 100.65949-46.123513 102.109915-103.56034v-1.16034c0-0.58017 0.290085-1.450425 0.290085-2.030595V419.46289z m-329.536544 199.288385l286.894051-165.638527v331.277054l-286.894051-165.638527z m265.717847-202.769405l-64.108782 37.130878v-74.261756l64.108782 37.130878zM309.52068 138.660623h405.248725c35.390368 0 64.108782 28.718414 64.108782 64.108782v275.000567l-266.588102 154.035127-266.588102-154.035127V202.769405c-0.290085-35.390368 28.428329-64.108782 63.818697-64.108782zM117.484419 453.112748l286.894051 165.638527-286.894051 165.638527V453.112748z m85.284986-0.290085l-63.818697-36.840793 63.818697-36.840794v73.681587z m643.988669 432.516714H177.241926c-29.298584 0-53.665722-22.626629-58.597167-52.215298l328.376204-189.71558 64.979037 37.420963 64.979037-37.420963 328.376204 189.71558c-4.931445 29.588669-29.298584 52.215297-58.597167 52.215298z" p-id="5328" fill="#161616"></path><path d="M330.696884 277.321246h362.606232c11.893484 0 21.466289-9.572805 21.466289-21.466288 0-11.893484-9.572805-21.466289-21.466289-21.466289H330.696884c-11.893484 0-21.466289 9.572805-21.466289 21.466289 0.290085 11.893484 9.572805 21.466289 21.466289 21.466288zM330.696884 384.072521h181.303116c11.893484 0 21.466289-9.572805 21.466289-21.466289 0-11.893484-9.572805-21.466289-21.466289-21.466289H330.696884c-11.893484 0-21.466289 9.572805-21.466289 21.466289 0.290085 11.893484 9.572805 21.466289 21.466289 21.466289z" p-id="5329" fill="#161616"></path></svg>