<?xml version="1.0" standalone="no"?><!DOCTYPE svg PUBLIC "-//W3C//DTD SVG 1.1//EN" "http://www.w3.org/Graphics/SVG/1.1/DTD/svg11.dtd"><svg t="1603963457548" class="icon" viewBox="0 0 1024 1024" version="1.1" xmlns="http://www.w3.org/2000/svg" p-id="16452" xmlns:xlink="http://www.w3.org/1999/xlink" width="128" height="128"><defs><style type="text/css"></style></defs><path d="M0 0h1024v1024H0V0z m73.142857 73.142857v877.714286h877.714286V73.142857H73.142857z" p-id="16453"></path><path d="M219.428571 394.386286c0-16.822857 2.925714-31.597714 8.777143-44.470857a93.988571 93.988571 0 0 1 55.296-50.907429c11.922286-4.315429 23.917714-6.436571 35.986286-6.436571a106.057143 106.057143 0 0 1 68.461714 25.161142c9.362286 8.557714 16.969143 19.309714 22.820572 32.182858 5.851429 12.873143 8.777143 27.721143 8.777143 44.470857V614.4c0 17.554286-2.925714 32.548571-8.777143 45.056a92.891429 92.891429 0 0 1-22.820572 31.012571 100.352 100.352 0 0 1-32.475428 19.309715 105.398857 105.398857 0 0 1-35.986286 6.436571c-12.068571 0-24.137143-2.194286-35.986286-6.436571a93.915429 93.915429 0 0 1-31.890285-19.309715 89.307429 89.307429 0 0 1-23.405715-31.012571C222.354286 647.021714 219.428571 631.954286 219.428571 614.4V394.386286zM279.113143 614.4c0 14.409143 4.022857 25.088 11.995428 31.890286 8.045714 6.802286 17.481143 10.24 28.379429 10.24 10.971429 0 20.406857-3.437714 28.379429-10.24 8.045714-6.802286 11.995429-17.481143 11.995428-31.890286V394.386286c0-14.409143-4.022857-25.088-11.995428-31.890286a42.276571 42.276571 0 0 0-28.379429-10.24 42.276571 42.276571 0 0 0-28.379429 10.24c-8.045714 6.802286-11.995429 17.481143-11.995428 31.890286V614.4z m225.28 98.304V352.256h-69.046857v-56.173714h197.778285v56.173714h-69.046857v360.448h-59.684571z m243.419428-145.700571l-29.257142-150.966858h-1.170286l-29.257143 150.966858h59.684571zM600.356571 712.704L693.394286 296.082286h49.737143l93.037714 416.621714h-59.684572l-17.554285-89.526857H677.595429l-17.554286 89.526857h-59.684572z" p-id="16454"></path></svg>