<?xml version="1.0" standalone="no"?><!DOCTYPE svg PUBLIC "-//W3C//DTD SVG 1.1//EN" "http://www.w3.org/Graphics/SVG/1.1/DTD/svg11.dtd"><svg t="1603963476428" class="icon" viewBox="0 0 1144 1024" version="1.1" xmlns="http://www.w3.org/2000/svg" p-id="16765" xmlns:xlink="http://www.w3.org/1999/xlink" width="143" height="128"><defs><style type="text/css"></style></defs><path d="M1068.23333304 271.22352911l-107.64705849 571.09411757C949.80392122 900.00588271 883.60980364 944.35294151 812.28039241 944.35294151H360.26862786c-71.32941211 0-137.50588213-44.34705879-148.35882393-102.01764727L104.33333304 271.22352911C85.09803909 168.85294121 152.58039241 79.64705849 256.60980423 79.64705849h659.32941181c104.02941182 0 171.51176513 89.20588271 152.294117 191.57647062zM867.74509846 679.80588242a19.64117637 19.64117637 0 1 0-19.64117724 19.41176426 19.55294122 19.55294122 0 0 0 19.64117724-19.41176426z m-128.61176484 112.94117666c13.78235303 17.8764706 1.76470576 38.48823545 0 51.17647061-5.15294121 35.78823545 34.81764698 39.30000029 48.6 36.47647002 57.08823487-11.64705908 59.68235302-88.14705908 53.47058818-123.52941123-12.7235294-72.35294151-86.59411787-67.16470605-86.59411787-67.16470606a70.81764698 70.81764698 0 0 0-60.37058847 40.18235274c-12.51176484 46.81764667 35.32941211 50.50588271 44.91176485 62.91176484z m82.46470518-138.33529453a19.64117637 19.64117637 0 1 0-19.64117637 19.41176514 19.55294122 19.55294122 0 0 0 19.65882393-19.34117667z m-56.91176455-4.76470547a19.64117637 19.64117637 0 1 0-19.58823545 19.41176426 19.55294122 19.55294122 0 0 0 19.58823545-19.41176426z m-92.27647003 58.41176485a38.96470547 38.96470547 0 1 0-39.26470605-39.00000059 39.10588242 39.10588242 0 0 0 39.26470605 39.00000059z m-136.21764726-89.1529418a38.7 38.7 0 1 0-38.68235332 38.82352939 38.8235294 38.8235294 0 0 0 38.66470576-38.82352939zM383.84509817 829.8235294c13.58823516 2.80588271 52.94117637-0.68823545 47.87647032-36.40588242-1.76470576-12.63529424-13.58823516-33.19411729 0-51.03529366 9.42352911-12.35294122 56.59411729-16.04117636 44.25882362-62.70000029a69.95294122 69.95294122 0 0 0-59.48823515-40.11176514s-72.79411729-5.10000029-85.34117636 67.05882422c-6.05294121 35.2235294-3.56470576 111.58235332 52.69411757 123.19411729z m61.41176456-230.36470577a19.41176513 19.41176513 0 1 0-19.41176427 19.41176426 19.41176513 19.41176513 0 0 0 19.41176427-19.39411758z m-56.09999971 4.8529415a19.41176513 19.41176513 0 1 0-19.41176514 19.41176427 19.41176513 19.41176513 0 0 0 19.41176514-19.41176427z m-64.81764756 44.73529365a19.41176513 19.41176513 0 1 0-19.41176426-19.41176425 19.41176513 19.41176513 0 0 0 19.41176426 19.41176425z m590.85882334-350.70000029a85.76470547 85.76470547 0 0 0-57.51176396-47.92941122 862.2 862.2 0 0 0-518.96470606 0 85.74705879 85.74705879 0 0 0-57.51176485 47.91176455 50.75294151 50.75294151 0 0 0-1.76470576 29.99999971 54.40588242 54.40588242 0 0 0 2.38235274 7.35882363q0.74117636 1.76470576 1.60588213 3.52941152t1.88823516 3.5294124a72.56470606 72.56470606 0 0 0 10.18235302 13.64117608q40.58823516 43.23529424 76.09411758 89.31176455a96.58235303 96.58235303 0 0 0 92.41764786 31.95882422 574.9764706 574.9764706 0 0 1 268.23529335 0 96.59999971 96.59999971 0 0 0 92.41764785-31.92352998q35.5764709-46.00588271 76.12941094-89.27647031a72.84705908 72.84705908 0 0 0 10.18235302-13.64117696 56.84117607 56.84117607 0 0 0 5.89411758-14.52352939 50.77058818 50.77058818 0 0 0-1.6764706-29.9470588z" p-id="16766" fill="#161616"></path><path d="M500.12156849 287.75882393l-61.49999971 81.93529336v13.48235331h61.32352939v28.00588272h13.32352969V383.1764706h19.81764669v-11.59411728h-19.8v-83.82352939h-13.16470606z m-0.67058789 18.49411758h0.51176425v65.29411757H450.39215726z m55.57058789-18.49411758l-6.49411787 68.09999941h13.32352969a24.33529424 24.33529424 0 0 1 10.94117695-11.06470547 30.97058818 30.97058818 0 0 1 15.54705878-3.79411787 26.47058818 26.47058818 0 0 1 20.84117607 8.11764668 31.76470547 31.76470547 0 0 1 7.85294122 22.81764726 28.51764698 28.51764698 0 0 1-29.55882393 29.55882393 30.22941182 30.22941182 0 0 1-18.61764697-5.52352939 24.08823545 24.08823545 0 0 1-9.22941123-17.98235332h-13.83529394A35.62941182 35.62941182 0 0 0 559.80392151 404.7764706a43.41176455 43.41176455 0 0 0 27.51176515 8.82352969 43.87058789 43.87058789 0 0 0 30.40588212-11.24117665 39.61764668 39.61764668 0 0 0 13.1470585-30.6 43.72941182 43.72941182 0 0 0-10.94117608-31.28823546 37.34117666 37.34117666 0 0 0-28.23529394-11.06470547 38.40000029 38.40000029 0 0 0-15.5470588 2.92941124 31.76470547 31.76470547 0 0 0-13.14705937 9.33529394h-0.63529365l4.09411758-41.31176396h59.45294091v-12.6h-70.88823544zM662.15686273 390.58823516a9.37058818 9.37058818 0 0 0-7.34117608 3.10588242 10.21764727 10.21764727 0 0 0-3.07058819 7.60588242 10.11176455 10.11176455 0 0 0 3.07058819 7.42941211 9.37058818 9.37058818 0 0 0 7.34117608 3.10588242 10.58823545 10.58823545 0 0 0 0-21.24705937z m28.37647089-102.8470588v12.97058819h65.7705876l-45.44117578 110.45294121h14.82352911l44.92941151-111.82941123v-11.5764706h-80.11764667z" p-id="16767" fill="#161616"></path></svg>