<?xml version="1.0" standalone="no"?><!DOCTYPE svg PUBLIC "-//W3C//DTD SVG 1.1//EN" "http://www.w3.org/Graphics/SVG/1.1/DTD/svg11.dtd"><svg t="1604491518095" class="icon" viewBox="0 0 1024 1024" version="1.1" xmlns="http://www.w3.org/2000/svg" p-id="26230" xmlns:xlink="http://www.w3.org/1999/xlink" width="128" height="128"><defs><style type="text/css"></style></defs><path d="M512 106.76906667c108.1344 0 210.26133333 42.05226667 286.72 118.51093333s118.51093333 178.5856 118.51093333 286.72-42.05226667 210.26133333-118.51093333 286.72-178.5856 118.51093333-286.72 118.51093333-210.26133333-42.05226667-286.72-118.51093333-118.51093333-178.5856-118.51093333-286.72 42.05226667-210.26133333 118.51093333-286.72S403.8656 106.76906667 512 106.76906667m0-85.74293334c-270.88213333 0-490.42773333 219.5456-490.42773333 490.42773334s219.5456 490.42773333 490.42773333 490.42773333 490.42773333-219.5456 490.42773333-490.42773333S782.88213333 21.02613333 512 21.02613333z" p-id="26231" fill="#161616"></path><path d="M451.3792 750.11413333L277.16266667 273.88586667h125.61066666l109.22666667 340.24106666 117.9648-340.24106666h119.05706667L565.52106667 750.11413333H451.3792z" p-id="26232" fill="#161616"></path></svg>