<?xml version="1.0" standalone="no"?><!DOCTYPE svg PUBLIC "-//W3C//DTD SVG 1.1//EN" "http://www.w3.org/Graphics/SVG/1.1/DTD/svg11.dtd"><svg t="1604491435780" class="icon" viewBox="0 0 1024 1024" version="1.1" xmlns="http://www.w3.org/2000/svg" p-id="23497" xmlns:xlink="http://www.w3.org/1999/xlink" width="128" height="128"><defs><style type="text/css"></style></defs><path d="M782.740211 333.069474c-81.300211 72.326737-181.679158 136.596211-278.959158 175.346526-91.028211 36.271158-219.055158 60.200421-385.158737 72.811789-33.091368 2.533053-61.978947-21.908211-64.538948-54.541473-2.56-32.660211 22.204632-61.170526 55.296-63.676632 154.893474-11.749053 271.737263-33.603368 349.372632-64.538947 83.941053-33.414737 172.463158-90.273684 243.550316-153.492211l-68.096-74.617263c-14.821053-16.222316-13.473684-41.202526 2.96421-55.781052 6.440421-5.739789 14.578526-9.242947 23.228632-10.024422l266.051368-23.552a39.909053 39.909053 0 0 1 43.493053 35.84c0.350316 3.718737 0.134737 7.464421-0.592842 11.156211l-51.577263 258.533053a40.043789 40.043789 0 0 1-47.050106 31.151158 40.205474 40.205474 0 0 1-22.042947-12.341895l-65.94021-72.245895zM140.234105 706.021053h80.141474c44.247579 0 80.141474 35.381895 80.141474 79.036631v79.063579c0 43.654737-35.893895 79.036632-80.141474 79.036632H140.234105C95.932632 943.157895 60.092632 907.776 60.092632 864.121263v-79.063579c0-43.654737 35.866947-79.036632 80.141473-79.036631zM460.8 626.984421h80.141474c44.247579 0 80.114526 35.381895 80.114526 79.036632v158.10021c0 43.654737-35.866947 79.036632-80.114526 79.036632H460.8c-44.274526 0-80.141474-35.381895-80.141474-79.036632V706.021053c0-43.654737 35.866947-79.036632 80.141474-79.036632zM781.338947 468.884211h80.141474c44.274526 0 80.141474 35.381895 80.141474 79.063578v316.173474c0 43.654737-35.866947 79.036632-80.141474 79.036632h-80.141474c-44.247579 0-80.141474-35.381895-80.141473-79.036632V547.947789c0-43.654737 35.893895-79.063579 80.141473-79.063578z" p-id="23498" fill="#161616"></path></svg>