<?xml version="1.0" standalone="no"?><!DOCTYPE svg PUBLIC "-//W3C//DTD SVG 1.1//EN" "http://www.w3.org/Graphics/SVG/1.1/DTD/svg11.dtd"><svg t="1604491484552" class="icon" viewBox="0 0 1024 1024" version="1.1" xmlns="http://www.w3.org/2000/svg" p-id="25055" xmlns:xlink="http://www.w3.org/1999/xlink" width="128" height="128"><defs><style type="text/css"></style></defs><path d="M896 831.99999969h-6.40000031C858.87999969 922.88 704 992 512 992S165.12000031 922.88 134.40000031 831.99999969H128v-576h6.40000031A99.19999969 99.19999969 0 0 1 128 224c0-106.24000031 172.15999969-192 384-192s384 85.75999969 384 192a99.84 99.84 0 0 1-6.40000031 31.99999969h6.40000031zM512 96.00000031c-176.64 0-319.99999969 57.6-319.99999969 127.99999969s143.35999969 127.99999969 319.99999969 127.99999969 319.99999969-57.6 319.99999969-127.99999969-143.35999969-127.99999969-319.99999969-127.99999969z m319.99999969 234.24A552.96 552.96 0 0 1 512 416a552.96 552.96 0 0 1-319.99999969-86.4V416c0 70.39999969 143.35999969 127.99999969 319.99999969 127.99999969s319.99999969-57.6 319.99999969-127.99999969z m0 192A552.96 552.96 0 0 1 512 608a552.96 552.96 0 0 1-319.99999969-86.4V608c0 70.39999969 143.35999969 127.99999969 319.99999969 127.99999969s319.99999969-57.6 319.99999969-127.99999969zM512 800a552.96 552.96 0 0 1-319.99999969-86.4V800c0 71.04 143.35999969 127.99999969 319.99999969 127.99999969s319.99999969-57.6 319.99999969-127.99999969v-86.4A552.96 552.96 0 0 1 512 800z" fill="#161616" p-id="25056"></path></svg>