<?xml version="1.0" standalone="no"?><!DOCTYPE svg PUBLIC "-//W3C//DTD SVG 1.1//EN" "http://www.w3.org/Graphics/SVG/1.1/DTD/svg11.dtd"><svg t="1604318461500" class="icon" viewBox="0 0 1024 1024" version="1.1" xmlns="http://www.w3.org/2000/svg" p-id="4539" xmlns:xlink="http://www.w3.org/1999/xlink" width="128" height="128"><defs><style type="text/css"></style></defs><path d="M513.0752 303.377067q-55.534933 0-89.975467 38.638933t-34.56 116.224q0 78.830933 34.474667 117.896533c22.954667 26.043733 52.155733 39.099733 87.313067 39.099734a106.6496 106.6496 0 0 0 37.085866-6.417067 260.9152 260.9152 0 0 0-56.1152-28.194133l25.4464-51.8144a309.111467 309.111467 0 0 1 85.572267 46.08 136.174933 136.174933 0 0 0 26.248533-49.681067q8.738133-29.115733 8.772267-66.884267 0-77.9264-34.338133-116.360533t-89.924267-38.5024z m0 0" fill="#161616" p-id="4540"></path><path d="M914.773333 454.826667c0-226.850133-180.292267-410.692267-402.773333-410.692267S109.226667 227.976533 109.226667 454.826667a412.910933 412.910933 0 0 0 152.183466 321.501866c155.392 147.421867 444.842667 203.537067 444.842667 203.537067l-36.625067-146.8928C813.755733 770.440533 914.773333 624.64 914.773333 454.826667zM714.530133 728.132267a204.1856 204.1856 0 0 1-40.174933-16.861867q-4.334933-2.116267-60.398933-39.8336-44.1856 19.285333-97.809067 19.3536-103.645867 0-162.3552-61.064533T295.0144 458.24q0-110.062933 58.845867-171.264T513.706667 225.774933q100.027733 0 158.549333 61.201067t58.538667 171.264q0 58.248533-16.264534 102.4-12.253867 33.7408-39.253333 65.348267a296.6016 296.6016 0 0 0 72.721067 38.024533z m0 0" fill="#161616" p-id="4541"></path></svg>