<?xml version="1.0" standalone="no"?><!DOCTYPE svg PUBLIC "-//W3C//DTD SVG 1.1//EN" "http://www.w3.org/Graphics/SVG/1.1/DTD/svg11.dtd"><svg t="1604318507427" class="icon" viewBox="0 0 1024 1024" version="1.1" xmlns="http://www.w3.org/2000/svg" p-id="5403" xmlns:xlink="http://www.w3.org/1999/xlink" width="128" height="128"><defs><style type="text/css"></style></defs><path d="M913.6 14.1C907.5 5.2 898.5 0 889 0H320c-35.3 0-64 35-64 78.2v195.6c0 43.2 28.7 78.2 64 78.2h128v96H135c-9.5 0-18.5 5.2-24.6 14.1L0 624l110.4 161.9c6.1 8.9 15.1 14.1 24.6 14.1h313v160c0 35.3 28.7 64 64 64s64-28.7 64-64V800h128c35.3 0 64-35 64-78.2V526.2c0-43.2-28.7-78.2-64-78.2H576v-96h313c9.5 0 18.5-5.2 24.6-14.1L1024 176 913.6 14.1z" p-id="5404" fill="#161616"></path></svg>