<?xml version="1.0" standalone="no"?><!DOCTYPE svg PUBLIC "-//W3C//DTD SVG 1.1//EN" "http://www.w3.org/Graphics/SVG/1.1/DTD/svg11.dtd"><svg t="1604405453084" class="icon" viewBox="0 0 1024 1024" version="1.1" xmlns="http://www.w3.org/2000/svg" p-id="10993" xmlns:xlink="http://www.w3.org/1999/xlink" width="128" height="128"><defs><style type="text/css"></style></defs><path d="M637.952 701.878857m-304.761905 0a304.761905 304.761905 0 1 0 609.52381 0 304.761905 304.761905 0 1 0-609.52381 0Z" fill="#161616" opacity=".6" p-id="10994"></path><path d="M885.223619 676.035048V421.692952c0-118.00381-73.240381-212.796952-187.099429-262.339047C675.693714 81.773714 601.185524 24.380952 512 24.380952 425.496381 24.380952 355.230476 79.481905 333.092571 156.281905c-118.00381 48.615619-194.31619 145.017905-194.31619 265.411047v254.000762C71.387429 688.859429 24.380952 736.01219 24.380952 795.648v43.398095c0 37.059048 35.742476 67.242667 79.628191 67.242667h329.923047c-2.389333 6.729143-4.87619 13.55581-4.87619 21.113905C429.056 967.241143 466.212571 999.619048 512 999.619048c45.787429 0 82.944-32.377905 82.944-72.216381 0-7.558095-2.486857-14.384762-4.87619-21.211429h329.923047c43.885714 0 79.62819-30.183619 79.628191-67.242667v-43.398095c0-59.001905-46.32381-106.008381-114.395429-119.466666z m-370.102857-586.605715c29.159619 0 56.07619 11.946667 76.263619 30.866286a533.699048 533.699048 0 0 0-76.263619-5.558857c-25.161143 0-49.347048 2.096762-72.801524 5.363809 18.822095-19.017143 44.27581-30.72 72.801524-30.72z m418.328381 754.054096L97.52381 848.65219v-44.860952c0-31.207619 29.793524-52.955429 75.28838-52.955428h42.861715V417.694476c0-138.630095 123.270095-235.422476 299.78819-235.422476 176.566857 0 299.885714 96.792381 299.885715 235.422476v291.986286H400.237714c-23.649524 0-42.861714 16.725333-42.861714 37.302857 0 20.626286 19.21219 37.351619 42.861714 37.351619h528.286476c2.925714 5.948952 4.87619 12.434286 4.876191 19.504762v39.643429z" fill="#161616" p-id="10995"></path></svg>