<?xml version="1.0" standalone="no"?><!DOCTYPE svg PUBLIC "-//W3C//DTD SVG 1.1//EN" "http://www.w3.org/Graphics/SVG/1.1/DTD/svg11.dtd"><svg t="1604483539796" class="icon" viewBox="0 0 1024 1024" version="1.1" xmlns="http://www.w3.org/2000/svg" p-id="18809" xmlns:xlink="http://www.w3.org/1999/xlink" width="128" height="128"><defs><style type="text/css"></style></defs><path d="M911.546182 60.113455C718.277818 0.686545 467.700364 0 465.454545 0c-2.269091 0-252.776727 0.686545-446.138181 60.113455L0 66.048l0.046545 447.069091c0.244364 3.816727 6.272 94.522182 62.231273 200.727273 33.186909 63.045818 100.608 119.482182 154.426182 167.703272 66.222545 59.392 147.362909 106.414545 241.117091 139.752728L465.454545 1024l7.633455-2.699636c93.521455-33.268364 174.429091-80.093091 240.570182-139.205819 53.725091-48.046545 121.157818-104.32 154.472727-167.179636 56.820364-107.450182 62.522182-198.144 62.731636-201.937454L930.909091 66.048l-19.362909-5.934545zM370.350545 256.349091h241.524364c23.005091 0 46.010182-0.698182 69.015273-2.059636v32.47709a1221.341091 1221.341091 0 0 0-69.015273-2.024727h-93.346909v34.513455h71.04c22.993455 0 44.648727-0.686545 64.954182-2.036364v36.503273a453.445818 453.445818 0 0 0-62.929455-4.037818h-73.064727v34.490181h138.018909v34.501819a913.198545 913.198545 0 0 0-62.917818-2.036364h-75.101091v38.597818h85.259636c27.042909 0 56.133818-0.686545 87.284364-2.036363v36.549818a984.32 984.32 0 0 0-87.284364-4.061091H358.178909v18.257454h-42.624c1.314909-32.465455 1.989818-87.261091 2.024727-164.398545-17.605818 29.765818-33.838545 52.084364-48.709818 66.955636-9.495273-12.16-18.967273-20.957091-28.416-26.379636a615.645091 615.645091 0 0 0 39.575273-51.746909 2932.247273 2932.247273 0 0 0 37.550545-56.843637c13.544727-20.980364 25.053091-47.685818 34.501819-80.116363a780.253091 780.253091 0 0 0 48.721454 24.354909c-6.784 5.410909-16.930909 18.920727-30.452364 40.576z m274.024728 336.907636c0 28.416 0.686545 53.457455 2.036363 75.112728h-42.624v-22.30691H352.081455v24.343273h-42.624c2.850909-25.611636 4.200727-51.374545 4.06109-77.149091 0-28.404364-1.349818-52.759273-4.06109-73.064727h336.954181c-1.373091 20.305455-2.048 44.660364-2.036363 73.064727z m-40.645818 20.328728v-60.904728H352.081455v60.869818l251.648 0.03491zM477.928727 319.266909v-34.513454H358.178909v34.513454h119.749818z m0 64.942546v-34.490182H358.178909v34.490182h119.749818z m0 71.04v-38.574546H358.178909v38.574546h119.749818z m54.807273-219.205819c-8.133818 2.722909-20.305455 7.470545-36.549818 14.196364-4.049455-10.810182-12.846545-26.379636-26.379637-46.696727a159.709091 159.709091 0 0 0 34.501819-16.232728c13.521455 21.666909 22.981818 37.911273 28.427636 48.733091z m0 0" p-id="18810" fill="#161616"></path></svg>