<?xml version="1.0" standalone="no"?><!DOCTYPE svg PUBLIC "-//W3C//DTD SVG 1.1//EN" "http://www.w3.org/Graphics/SVG/1.1/DTD/svg11.dtd"><svg t="1604403431886" class="icon" viewBox="0 0 1024 1024" version="1.1" xmlns="http://www.w3.org/2000/svg" p-id="5090" xmlns:xlink="http://www.w3.org/1999/xlink" width="128" height="128"><defs><style type="text/css"></style></defs><path d="M941.6 386.8c-7.9 0.8-15.9 1.2-23.9 1.2-134.2 0-243-108.8-243-243 0-16.4 1.6-32.5 4.7-48C627.7 76.1 571.2 64.7 512 64.7c-247.3 0-447.3 200-447.3 447.2 0 246.6 200.1 447.4 447.3 447.4 247.3 0 447.3-200.8 447.3-447.3 0-43.4-6.1-85.4-17.7-125.2zM519.7 635.1c-49 0-95.1-18.2-129.7-51.4l31.5-30.1c26.2 25.1 61.1 38.9 98.2 38.9 31.8 0 61.7-10 86.5-28.9l27.8 33.3c-32.3 24.6-72.9 38.2-114.3 38.2z m277-52.5c0 14.6-11.5 26.5-25.7 26.5h-0.1c-7.2 20.3-16.8 39.7-28.4 57.9 0.9 3.3 1.5 6.7 1.5 10.2 0 21.7-17.1 39.3-38.2 39.3s-38.2-17.6-38.2-39.3c0-21 16-38 36.2-39.1 6.4-10.2 12-20.9 16.7-32-8.3-4.4-14.1-13.2-14.1-23.5V440.7c0-10.3 5.8-19.1 14.1-23.5-35.5-82.5-115.6-140.3-208.6-140.3S338.8 334.6 303.4 417c8.5 4.3 14.4 13.2 14.4 23.6v141.9c0 14.6-11.5 26.5-25.7 26.5h-39c-14.2 0-25.7-11.8-25.7-26.5V440.7c0-14.6 11.5-26.5 25.7-26.5h0.1C291.8 305.5 393 227.6 511.9 227.6c118.8 0 220 77.9 258.7 186.6h0.4c14.2 0 25.7 11.9 25.7 26.5v141.9z" p-id="5091" fill="#161616"></path></svg>