<?xml version="1.0" standalone="no"?><!DOCTYPE svg PUBLIC "-//W3C//DTD SVG 1.1//EN" "http://www.w3.org/Graphics/SVG/1.1/DTD/svg11.dtd"><svg t="1604643109821" class="icon" viewBox="0 0 1024 1024" version="1.1" xmlns="http://www.w3.org/2000/svg" p-id="29993" xmlns:xlink="http://www.w3.org/1999/xlink" width="128" height="128"><defs><style type="text/css"></style></defs><path d="M712.815 149.547S773.2-10.848 911.04 0.587s91.021 110.106 71.765 129.05-43.463 36.038-94.434 4.266c-71.736-45.51-175.613 15.644-175.613 15.644z m188.953 508.664v337.914a27.847 27.847 0 0 1-27.847 27.847H45.604a27.847 27.847 0 0 1-27.846-27.847V220.998a27.847 27.847 0 0 1 40.56-24.888l551.074 278.75V214.344a27.847 27.847 0 0 1 41.557-24.235l67.981 38.371a55.722 55.722 0 0 1 28.444 48.497v268.767l123.76 62.804a55.722 55.722 0 0 1 30.634 49.692z m-745.915-22.329h-62.86v302.615h61.381l1.394-302.729z m116.62 0h-62.946v302.615h61.382z m116.62 0h-62.946v302.615h61.382z" p-id="29994" fill="#161616"></path></svg>