<?xml version="1.0" standalone="no"?><!DOCTYPE svg PUBLIC "-//W3C//DTD SVG 1.1//EN" "http://www.w3.org/Graphics/SVG/1.1/DTD/svg11.dtd"><svg t="1603697025214" class="icon" viewBox="0 0 1024 1024" version="1.1" xmlns="http://www.w3.org/2000/svg" p-id="21557" xmlns:xlink="http://www.w3.org/1999/xlink" width="128" height="128"><defs><style type="text/css"></style></defs><path d="M442.853 385.981a98.1 98.1 0 1 0 138.732-138.737 98.1 98.1 0 1 0-138.732 138.737zM771.1 599.3l-51.7-27.2c-1.2-1.6-2.4-3.1-3.7-4.7L620.3 443c-2.8-5.7-8.5-9.2-14.8-9.2H419c-6.3 0-12 3.6-14.8 9.2l-95.4 124.4c-1.2 1.6-2.4 3.1-3.7 4.7l-51.7 27.2c-15.4 13.1-17.3 36.3-4.2 51.7 13.1 15.4 36.3 17.3 51.7 4.2l63.4-37.1c1.2-1.6 2.4-3.1 3.7-4.7l40.8-53.6v294.5c0 27 21.9 49 49 49 27 0 49-21.9 49-49V686H518v219.8c0 27 21.9 48.9 48.9 48.9s48.9-21.9 48.9-48.9V600.5l1.1-39.2 39.6 52.2c1.2 1.6 2.4 3.1 3.7 4.7l63.4 37.1c15.4 13.1 38.6 11.3 51.7-4.2 13.1-15.5 11.2-38.7-4.2-51.8z" p-id="21558"></path><path d="M793.9 559.4h-42.7v-195c0-130.3-106-236.4-236.4-236.4S278.4 234 278.4 364.4v195.1h-42.7V364.4c0-153.9 125.2-279 279-279s279 125.2 279 279v195z" p-id="21559"></path></svg>