<?xml version="1.0" standalone="no"?><!DOCTYPE svg PUBLIC "-//W3C//DTD SVG 1.1//EN" "http://www.w3.org/Graphics/SVG/1.1/DTD/svg11.dtd"><svg t="1607751195183" class="icon" viewBox="0 0 1024 1024" version="1.1" xmlns="http://www.w3.org/2000/svg" p-id="2848" xmlns:xlink="http://www.w3.org/1999/xlink" width="128" height="128"><defs><style type="text/css"></style></defs><path d="M730.550857 249.234286a29.037714 29.037714 0 0 1-30.390857-25.746286V103.387429c0-16.420571 12.873143-29.732571 28.672-29.769143l1.718857 0.036571h20.955429c15.981714-0.658286 29.44 12.105143 30.281143 28.635429v121.270857a28.891429 28.891429 0 0 1-30.281143 27.428571l-20.955429-1.755428z m-430.445714 0a28.196571 28.196571 0 0 1-32.768-23.369143l-0.365714-2.377143V103.387429A28.854857 28.854857 0 0 1 294.107429 73.142857a27.136 27.136 0 0 1 5.997714 0.438857h20.443428c16.018286-0.658286 29.732571 12.032 30.902858 28.635429v121.270857c-1.206857 16.420571-14.994286 28.708571-30.72 27.465143h-0.219429l-20.406857-1.718857z m579.401143-78.884572c30.390857-1.645714 56.32 22.637714 57.929143 54.162286a78.994286 78.994286 0 0 1 0 5.888v655.652571c-2.304 32.768-29.001143 57.929143-60.672 57.161143H168.777143C137.508571 943.579429 111.469714 918.381714 109.714286 886.016V230.363429c0-33.170286 25.929143-60.086857 57.929143-60.086858a11.337143 11.337143 0 0 1 1.133714 0.036572H231.131429v53.211428c0.877714 38.217143 31.488 68.498286 68.352 67.510858h21.613714c35.913143-0.292571 65.060571-30.281143 65.645714-67.547429V172.032h275.858286v51.492571c0 38.217143 29.878857 69.229714 66.779428 69.229715h21.504c36.900571 1.572571 67.986286-28.123429 69.449143-66.304l0.073143-2.889143V172.032l59.099429-1.682286zM168.777143 886.016H878.445714V371.090286H168.777143v514.925714z" p-id="2849"></path><path d="M305.444571 687.798857h69.010286v-117.248h151.698286v-72.96H400.164571a623.798857 623.798857 0 0 1-64.731428 91.830857 220.964571 220.964571 0 0 0-26.587429-22.966857 441.819429 441.819429 0 0 0 91.282286-147.163428l35.145143 9.435428c-5.997714 13.531429-12.288 26.660571-18.870857 39.350857h294.838857v29.513143h-150.418286v72.96h143.140572v28.708572h-143.140572v88.539428h169.728v29.513143h-169.728v110.665143h-34.706286v-110.665143H305.444571v-29.513143z m102.875429 0h117.869714v-88.539428H408.32v88.539428z" p-id="2850"></path></svg>