<?xml version="1.0" standalone="no"?><!DOCTYPE svg PUBLIC "-//W3C//DTD SVG 1.1//EN" "http://www.w3.org/Graphics/SVG/1.1/DTD/svg11.dtd"><svg t="1604656741459" class="icon" viewBox="0 0 1075 1024" version="1.1" xmlns="http://www.w3.org/2000/svg" p-id="34888" xmlns:xlink="http://www.w3.org/1999/xlink" width="134.375" height="128"><defs><style type="text/css"></style></defs><path d="M589.824 105.813333H505.173333a68.266667 68.266667 0 0 0-68.266666 68.266667v675.84a68.266667 68.266667 0 0 0 68.266666 68.266667h84.650667a68.266667 68.266667 0 0 0 68.266667-68.266667v-675.84a68.266667 68.266667 0 0 0-68.266667-68.266667z m15.701333 744.106667a15.701333 15.701333 0 0 1-15.701333 15.701333H505.173333a15.701333 15.701333 0 0 1-15.701333-15.701333v-675.84a15.701333 15.701333 0 0 1 15.701333-15.701333h84.650667a15.701333 15.701333 0 0 1 15.701333 15.701333zM876.544 105.813333H791.893333a68.266667 68.266667 0 0 0-68.266666 68.266667v675.84a68.266667 68.266667 0 0 0 68.266666 68.266667h84.650667a68.266667 68.266667 0 0 0 68.266667-68.266667v-675.84a68.266667 68.266667 0 0 0-68.266667-68.266667z m15.701333 744.106667a15.701333 15.701333 0 0 1-15.701333 15.701333H791.893333a15.701333 15.701333 0 0 1-15.701333-15.701333v-675.84a15.701333 15.701333 0 0 1 15.701333-15.701333h84.650667a15.701333 15.701333 0 0 1 15.701333 15.701333z" p-id="34889" fill="#409eff"></path><path d="M963.925333 0h-546.133333A110.592 110.592 0 0 0 307.2 110.592v331.093333H153.6V0H0v593.92h307.2v318.122667A110.592 110.592 0 0 0 417.792 1024h546.133333a111.274667 111.274667 0 0 0 111.274667-110.592V110.592A111.274667 111.274667 0 0 0 963.925333 0zM1024 913.408a58.026667 58.026667 0 0 1-58.026667 58.026667h-546.133333a58.026667 58.026667 0 0 1-58.026667-58.026667V546.133333H51.2V53.930667h51.2v438.954666h257.365333v-382.293333a58.026667 58.026667 0 0 1 58.026667-58.026667h546.133333a58.026667 58.026667 0 0 1 58.026667 58.026667z" p-id="34890" fill="#409eff"></path></svg>