<?xml version="1.0" standalone="no"?><!DOCTYPE svg PUBLIC "-//W3C//DTD SVG 1.1//EN" "http://www.w3.org/Graphics/SVG/1.1/DTD/svg11.dtd"><svg t="1605518415023" class="icon" viewBox="0 0 1024 1024" version="1.1" xmlns="http://www.w3.org/2000/svg" p-id="2859" xmlns:xlink="http://www.w3.org/1999/xlink" width="128" height="128"><defs><style type="text/css"></style></defs><path d="M346.63354 731.428571c0-38.161491 6.360248-69.962733 12.720497-101.763975 12.720497-31.801242 25.440994-63.602484 44.521739-89.043478 19.080745-31.801242 44.521739-57.242236 69.962733-76.322981 25.440994-19.080745 57.242236-38.161491 89.043479-50.881988 0 0 12.720497-12.720497 12.720496-19.080745 6.360248 0 12.720497-6.360248 19.080746-12.720497 6.360248-6.360248 6.360248-12.720497 12.720497-19.080746 6.360248-6.360248 6.360248-19.080745 6.360248-31.801242v-25.440994c0-6.360248-6.360248-12.720497-6.360248-19.080745 0-6.360248-6.360248-6.360248-12.720497-12.720497 0-25.440994 0-50.881988-6.360249-76.322981 0-19.080745-6.360248-44.521739-12.720497-69.962733-6.360248-25.440994-19.080745-44.521739-38.16149-63.602485-6.360248 0-12.720497-12.720497-25.440994-19.080745-12.720497-6.360248-25.440994-12.720497-44.521739-25.440994-12.720497-6.360248-31.801242-6.360248-44.521739-12.720497C403.875776 0 384.795031 0 365.714286 0c-12.720497 0-25.440994 0-44.521739 6.360248-12.720497 0-31.801242 6.360248-44.52174 12.720497-12.720497 0-31.801242 12.720497-44.521739 19.080746-12.720497 12.720497-25.440994 25.440994-38.16149 44.521739-12.720497 19.080745-25.440994 38.161491-31.801243 63.602484 0 19.080745-6.360248 44.521739-12.720496 63.602485 0 25.440994-6.360248 44.521739-6.360249 69.962733 0 6.360248-6.360248 12.720497-6.360248 19.080745 0 6.360248-6.360248 12.720497-6.360249 19.080745 0 6.360248 0 19.080745 6.360249 25.440994 0 12.720497 6.360248 19.080745 12.720497 25.440994 0 6.360248 6.360248 12.720497 6.360248 19.080745 6.360248 0 6.360248 6.360248 12.720497 6.360249 12.720497 19.080745 12.720497 25.440994 38.161491 50.881987 12.720497 6.360248 19.080745 19.080745 31.801242 25.440994 6.360248 6.360248 12.720497 19.080745 12.720497 31.801242v25.440994c0 6.360248 0 12.720497-6.360249 25.440994 0 6.360248-6.360248 12.720497-12.720497 25.440994-12.720497 6.360248-19.080745 12.720497-31.801242 19.080745-12.720497 6.360248-63.602484 25.440994-76.322981 31.801242-12.720497 6.360248-50.881988 25.440994-57.242236 31.801243-12.720497 6.360248-19.080745 12.720497-25.440994 25.440993-6.360248 12.720497-12.720497 25.440994-12.720497 38.161491-6.360248 38.161491-6.360248 69.962733-6.360248 95.403727 6.360248 25.440994 6.360248 38.161491 12.720496 44.521739 6.360248 0 12.720497 6.360248 25.440994 6.360248s12.720497 6.360248 31.801242 6.360249c19.080745 6.360248 38.161491 12.720497 63.602485 12.720497s50.881988 6.360248 76.322981 6.360248c25.440994 0 50.881988 6.360248 76.322982 6.360249h89.043478c-12.720497-25.440994-25.440994-50.881988-31.801242-82.68323-19.080745-25.440994-19.080745-57.242236-19.080746-89.043479m489.739131-31.801242c-12.720497 0-25.440994 6.360248-31.801242 12.720497l-76.322982-38.161491c6.360248-6.360248 12.720497-19.080745 12.720497-31.801242 0-31.801242-25.440994-57.242236-57.242236-57.242236s-57.242236 25.440994-57.242236 57.242236c0 12.720497 6.360248 25.440994 12.720497 31.801242l-63.602485 82.68323h-19.080745c-25.440994 0-44.521739 19.080745-44.521739 44.521739s19.080745 44.521739 44.521739 44.521739 44.521739-19.080745 44.521739-44.521739c0-12.720497-6.360248-19.080745-6.360248-25.440993l57.242236-82.68323c6.360248 6.360248 12.720497 6.360248 25.440994 6.360248s25.440994-6.360248 31.801242-12.720497l82.68323 38.161491c0 6.360248-6.360248 12.720497-6.360249 19.080745 0 25.440994 19.080745 44.521739 44.521739 44.521739 25.440994 0 44.521739-19.080745 44.521739-44.521739 12.720497-25.440994-6.360248-44.521739-38.16149-44.521739m171.726708 273.490683l-82.68323-63.602484c12.720497-19.080745 25.440994-38.161491 38.161491-63.602485 12.720497-38.161491 25.440994-69.962733 25.440994-114.484472 0-38.161491-6.360248-76.322981-25.440994-114.484472-12.720497-38.161491-38.161491-63.602484-63.602485-89.043478-25.440994-25.440994-57.242236-44.521739-89.043478-63.602484-44.521739-19.080745-82.68323-25.440994-120.84472-25.440994-38.161491 0-76.322981 6.360248-114.484473 25.440994-38.161491 12.720497-63.602484 38.161491-89.043478 63.602484-25.440994 25.440994-44.521739 57.242236-63.602484 89.043478-12.720497 38.161491-25.440994 69.962733-25.440994 114.484472 0 38.161491 6.360248 76.322981 25.440994 114.484472 12.720497 38.161491 38.161491 63.602484 63.602484 89.043479 25.440994 25.440994 57.242236 44.521739 89.043478 63.602484 38.161491 12.720497 69.962733 25.440994 114.484473 25.440994 38.161491 0 76.322981-6.360248 114.484472-25.440994 31.801242-12.720497 57.242236-31.801242 82.683229-50.881987l82.68323 63.602484c6.360248 6.360248 25.440994 6.360248 31.801242 0l6.360249-6.360248c6.360248-12.720497 6.360248-25.440994 0-31.801243m-318.012422-12.720496c-127.204969 0-235.329193-101.763975-235.329193-235.329193 0-127.204969 101.763975-235.329193 235.329193-235.329193 127.204969 0 235.329193 101.763975 235.329192 235.329193s-108.124224 235.329193-235.329192 235.329193" p-id="2860" fill="#161616"></path></svg>