<?xml version="1.0" standalone="no"?><!DOCTYPE svg PUBLIC "-//W3C//DTD SVG 1.1//EN" "http://www.w3.org/Graphics/SVG/1.1/DTD/svg11.dtd"><svg t="1604918939821" class="icon" viewBox="0 0 1024 1024" version="1.1" xmlns="http://www.w3.org/2000/svg" p-id="3933" xmlns:xlink="http://www.w3.org/1999/xlink" width="128" height="128"><defs><style type="text/css"></style></defs><path d="M65.547367 900.321166h102.003162V797.035802h-102.003162v103.286388z m127.514185 0h102.003162V693.749414h-102.003162v206.571752z m748.371452-88.833211l-158.632926-156.905586c-18.392906-18.190291-45.946448-20.175505-67.413366-7.833409l-84.869946-83.936691c44.726667-49.136094 72.173786-113.952308 72.173786-185.28596 0-153.196101-125.577067-277.384541-280.477996-277.384541-154.893766 0-280.474926 124.18844-280.474926 277.384541 0 127.113049 86.430488 234.233766 204.325595 267.048126v255.746731h102.003162v-246.586094c52.5304-4.802376 100.768031-24.083511 140.91131-53.54859l86.732364 85.799108c-12.476149 21.242813-10.478655 48.479131 7.910156 66.669422l158.65851 156.907633c21.919219 21.685905 57.421804 21.685905 79.34 0l19.814277-19.604501c21.919219-21.653159 21.919219-56.80782 0-78.470189z m-493.366617-228.676189v-43.991934h-102.003162v31.777751c-78.841649-30.03506-134.781706-105.663528-134.781706-194.208167 0-32.428573 8.139378-62.721507 21.511943-90.068342 15.542998 14.437827 39.286772 36.724413 39.286772 37.903262 0-24.25031 74.619488-98.061386 97.411587-98.061386-1.169639 0-23.254633-22.234397-37.882796-37.108153 27.378557-12.898775 57.674561-20.716834 90.034573-20.716834 116.15958 0 210.338542 93.1444 210.338542 208.054523 0 106.031918-80.227206 193.562461-183.915753 206.41928z" fill="#161616" p-id="3934"></path></svg>