<?xml version="1.0" standalone="no"?><!DOCTYPE svg PUBLIC "-//W3C//DTD SVG 1.1//EN" "http://www.w3.org/Graphics/SVG/1.1/DTD/svg11.dtd"><svg t="1604403277016" class="icon" viewBox="0 0 1024 1024" version="1.1" xmlns="http://www.w3.org/2000/svg" p-id="1263" xmlns:xlink="http://www.w3.org/1999/xlink" width="128" height="128"><defs><style type="text/css"></style></defs><path d="M945.230769 393.846154a78.769231 78.769231 0 0 1 78.769231 78.769231v472.615384a78.769231 78.769231 0 0 1-78.769231 78.769231H78.769231a78.769231 78.769231 0 0 1-78.769231-78.769231V472.615385a78.769231 78.769231 0 0 1 78.769231-78.769231h866.461538zM388.883692 535.945846H306.648615l-112.009846 349.735385h70.892308l24.576-89.796923h113.427692l24.576 89.796923h73.255385l-112.482462-349.735385z m254.188308 0H547.131077v349.735385h99.721846c103.030154 0 169.196308-58.604308 169.196308-176.285539 0-118.153846-66.166154-173.449846-172.977231-173.449846z m-4.253538 55.768616c65.220923 0 105.865846 32.137846 105.865846 117.68123 0 85.070769-40.644923 120.044308-105.865846 120.044308h-21.740308V591.714462h21.740308zM347.372308 588.878769l20.164923 76.878769c3.465846 12.760615 6.931692 25.363692 10.555077 37.494154l10.397538 38.281846H305.230769l10.397539-38.281846c10.397538-36.391385 20.795077-76.091077 29.774769-114.372923h1.890461zM866.461538 157.538462a78.769231 78.769231 0 0 1 78.769231 78.76923v78.769231H78.769231V236.307692a78.769231 78.769231 0 0 1 78.769231-78.76923h708.923076zM708.923077 0a78.769231 78.769231 0 0 1 78.769231 78.769231H236.307692a78.769231 78.769231 0 0 1 78.769231-78.769231h393.846154z" p-id="1264" fill="#161616"></path></svg>