<?xml version="1.0" standalone="no"?><!DOCTYPE svg PUBLIC "-//W3C//DTD SVG 1.1//EN" "http://www.w3.org/Graphics/SVG/1.1/DTD/svg11.dtd"><svg t="1603888088375" class="icon" viewBox="0 0 1024 1024" version="1.1" xmlns="http://www.w3.org/2000/svg" p-id="7631" xmlns:xlink="http://www.w3.org/1999/xlink" width="128" height="128"><defs><style type="text/css"></style></defs><path d="M64.007226 1024A64.131095 64.131095 0 0 1 0.008258 959.753294V671.700134a64.098063 64.098063 0 0 1 63.998968-64.213674h396.810116V430.452928a51.199174 51.199174 0 0 1 51.199174-51.364333 51.199174 51.199174 0 0 1 51.199174 51.364333v177.050048h396.810116A64.098063 64.098063 0 0 1 1023.991742 671.700134v288.036644A64.131095 64.131095 0 0 1 959.992774 1023.983484z m197.893066-208.099869a51.298269 51.298269 0 0 0 51.199174 51.397364 51.314785 51.314785 0 0 0 51.199174-51.397364 51.281754 51.281754 0 0 0-51.199174-51.364333 51.199174 51.199174 0 0 0-51.199174 51.331301z m-155.150014 0a51.314785 51.314785 0 0 0 51.199174 51.397364 51.298269 51.298269 0 0 0 51.199175-51.397364 51.199174 51.199174 0 0 0-51.199175-51.364333 51.298269 51.298269 0 0 0-51.199174 51.331301zM788.376446 392.251738a279.877808 279.877808 0 0 0-136.553153-249.141788 276.937985 276.937985 0 0 0-282.999306 0 279.861293 279.861293 0 0 0-136.553153 249.141788 51.199174 51.199174 0 0 1-51.199174 51.364333 51.199174 51.199174 0 0 1-51.199174-51.364333A382.705569 382.705569 0 0 1 317.344043 52.900308a378.774794 378.774794 0 0 1 386.124353 0 382.722085 382.722085 0 0 1 187.273366 339.318398 51.199174 51.199174 0 0 1-51.199174 51.364333 51.199174 51.199174 0 0 1-51.149627-51.380849z m-155.860196-2.87376a122.035709 122.035709 0 0 0-122.052225-122.052225 122.019193 122.019193 0 0 0-122.019193 122.052225 51.397365 51.397365 0 0 1-51.397365 51.364333 51.397365 51.397365 0 0 1-51.397365-51.364333A224.830438 224.830438 0 0 1 510.480541 164.54754 224.813922 224.813922 0 0 1 735.294463 389.278883a51.380849 51.380849 0 0 1-51.397365 51.364332 51.364333 51.364333 0 0 1-51.380848-51.364332z" p-id="7632"></path></svg>