<?xml version="1.0" standalone="no"?><!DOCTYPE svg PUBLIC "-//W3C//DTD SVG 1.1//EN" "http://www.w3.org/Graphics/SVG/1.1/DTD/svg11.dtd"><svg t="1604491407147" class="icon" viewBox="0 0 1024 1024" version="1.1" xmlns="http://www.w3.org/2000/svg" p-id="23242" xmlns:xlink="http://www.w3.org/1999/xlink" width="128" height="128"><defs><style type="text/css"></style></defs><path d="M1005.526514 89.733239c-2.699991-26.999906-5.399981-48.589832-8.099972-64.789775A28.693901 28.693901 0 0 0 975.836617 0.643548a27.146906 27.146906 0 0 0-29.689897 13.489953c0 2.699991-5.389981 8.099972-37.789869 24.299916-24.299916 13.489953-53.989813 26.999906-89.089691 43.19985A1843.17361 1843.17361 0 0 0 581.707983 205.802837c-94.479672 62.089785-151.169476 129.579551-175.469391 202.469298v13.489953a657.337721 657.337721 0 0 0-86.379701-80.989719 477.505345 477.505345 0 0 0-126.82956-75.589738A378.081689 378.081689 0 0 0 33.679883 235.502734a20.381929 20.381929 0 0 0-18.899934 10.799962 21.005927 21.005927 0 0 0-8.099972 18.899935c1.579995 26.119909 0.669998 52.329819-2.699991 78.279728-5.76998 70.119757-4.859983 140.619513 2.699991 210.56927a487.131311 487.131311 0 0 0 29.689897 116.129598 354.239772 354.239772 0 0 0 70.179757 107.969625 346.876797 346.876797 0 0 0 148.469485 91.789682 611.125881 611.125881 0 0 0 207.819279 32.399888 241.569163 241.569163 0 0 1-16.199943 83.68971c-5.69998 13.169954 0.359999 28.459901 13.519953 34.159881 0.869997 0.379999 1.769994 0.709998 2.67999 0.989997 3.169989 2.149993 6.999976 3.109989 10.799963 2.69999 10.869962 0.859997 20.909928-5.83998 24.299916-16.199943a213.655259 213.655259 0 0 0 18.899934-102.579645 594.33394 594.33394 0 0 0 215.959252-35.149878 398.353619 398.353619 0 0 0 161.979438-107.969626 442.947464 442.947464 0 0 0 91.839682-164.699429 635.673796 635.673796 0 0 0 32.399887-183.569363c13.489953-124.16957-2.699991-245.649148-13.489953-323.948877v-0.03z m-858.457024 650.597744C41.779855 629.651367 52.589818 459.571957 60.68979 346.19235c0-21.589925 2.699991-40.48986 2.69999-56.689804 89.089691 5.389981 167.36942 51.299822 221.359233 94.479673a644.168767 644.168767 0 0 1 105.289635 105.289635c-4.559984 33.089885-6.359978 66.499769-5.389981 99.889653a791.503256 791.503256 0 0 0 24.299915 153.879467 690.436606 690.436606 0 0 0 37.789869 107.939626c-134.979532-8.099972-234.869186-43.19985-299.658961-110.679616v0.029999z m712.677529-16.179943c-67.499766 75.589738-170.07941 116.129597-302.348951 124.169569h-24.299916a546.297106 546.297106 0 0 1 105.279635-334.738839 984.607587 984.607587 0 0 1 215.959251-213.269261c12.279957-8.77997 15.119948-25.84991 6.349978-38.139868-8.219972-11.49996-23.839917-14.839949-36.039875-7.709973a959.322674 959.322674 0 0 0-232.179195 226.719214 596.434932 596.434932 0 0 0-110.679616 264.559083c-2.699991 13.489953-2.699991 26.999906-5.389982 37.789869 0-2.699991 0-2.699991-2.69999-5.389982-5.389981-16.199944-10.799963-32.399888-16.199944-51.299822a534.433147 534.433147 0 0 1-18.899935-102.579644v-8.099972a465.471386 465.471386 0 0 1 18.899935-188.959345c18.899934-62.089785 70.179757-118.779588 153.879466-175.469392a1433.52803 1433.52803 0 0 1 229.459205-118.789588c45.839841-21.589925 80.989719-37.789869 107.969626-51.299822 0 5.389981 2.699991 10.799963 2.69999 16.199944 21.629925 159.259448 59.419794 456.218418-91.759682 626.307829z" p-id="23243" fill="#161616"></path></svg>