<?xml version="1.0" standalone="no"?><!DOCTYPE svg PUBLIC "-//W3C//DTD SVG 1.1//EN" "http://www.w3.org/Graphics/SVG/1.1/DTD/svg11.dtd"><svg t="1604403492714" class="icon" viewBox="0 0 1024 1024" version="1.1" xmlns="http://www.w3.org/2000/svg" p-id="6225" xmlns:xlink="http://www.w3.org/1999/xlink" width="128" height="128"><defs><style type="text/css"></style></defs><path d="M877.188778 232.099653a94.710174 94.710174 0 0 0-77.645277-85.324481L751.335169 26.467654a45.648597 45.648597 0 0 0-42.66224-26.450589H317.033561a46.07522 46.07522 0 0 0-42.66224 26.450589L224.456499 148.055039A95.136796 95.136796 0 0 0 146.384599 241.485346v540.957209a95.136796 95.136796 0 0 0 77.218655 93.430307l48.208332 119.454273A45.648597 45.648597 0 0 0 317.033561 1023.910836h388.226388a45.648597 45.648597 0 0 0 45.221975-28.583701l47.355087-117.747784a79.351767 79.351767 0 0 0 79.351767-79.351767V232.099653zM846.045343 767.937393a79.77839 79.77839 0 0 1-79.77839 79.77839H274.371321a95.136796 95.136796 0 0 1-95.990041-97.269908V273.482026A95.563419 95.563419 0 0 1 274.371321 177.918608h476.110603a95.563419 95.563419 0 0 1 95.136796 85.324481V767.937393z" p-id="6226" fill="#161616"></path><path d="M602.017327 511.96395a93.430307 93.430307 0 0 0-186.860613 0 93.430307 93.430307 0 0 0 186.860613 0zM397.665196 380.137627a62.286871 62.286871 0 1 0-62.286872-62.286871 61.860249 61.860249 0 0 0 62.286872 62.286871zM642.973078 380.137627a61.860249 61.860249 0 1 0-66.553095-57.167402 61.860249 61.860249 0 0 0 66.553095 57.167402zM397.665196 643.363651a62.286871 62.286871 0 1 0 61.860248 62.286871 62.286871 62.286871 0 0 0-61.860248-62.286871zM634.014008 644.216896a61.860249 61.860249 0 0 0-57.594025 66.126473 62.286871 62.286871 0 0 0 124.573742-8.959071 61.860249 61.860249 0 0 0-66.979717-57.167402zM369.508117 511.96395a62.286871 62.286871 0 1 0-62.286871 61.860249A62.286871 62.286871 0 0 0 369.508117 511.96395zM712.51253 451.383569a61.860249 61.860249 0 1 0 66.126473 57.594025 61.860249 61.860249 0 0 0-66.126473-57.594025z" p-id="6227" fill="#161616"></path></svg>