<?xml version="1.0" standalone="no"?><!DOCTYPE svg PUBLIC "-//W3C//DTD SVG 1.1//EN" "http://www.w3.org/Graphics/SVG/1.1/DTD/svg11.dtd"><svg t="1603522390478" class="icon" viewBox="0 0 1024 1024" version="1.1" xmlns="http://www.w3.org/2000/svg" p-id="2805" xmlns:xlink="http://www.w3.org/1999/xlink" width="128" height="128"><defs><style type="text/css"></style></defs><path d="M916.2 514.985c-123.676-92.831-299.19-67.827-392.021 55.85C434.627 690.142 454.338 858.709 569 954.137H110.752c-25.082 0.186-45.565-19.997-45.751-45.078l-0.001-0.506V305.321c0-25.2 20.16-45.584 45.752-45.584h759.696c25.256 0 45.752 20.048 45.752 45.584v209.664zM333.8 393.073c24.752 0 44.8-19.936 44.8-44.408-0.123-24.628-20.172-44.501-44.8-44.408-24.752 0-44.8 19.88-44.8 44.408 0 24.472 20.048 44.408 44.8 44.408z m313.6 0c24.752 0 44.8-19.936 44.8-44.408-0.123-24.628-20.172-44.501-44.8-44.408-24.752 0-44.8 19.88-44.8 44.408 0 24.472 20.048 44.408 44.8 44.408zM737 954.137c-123.712 0-224-100.288-224-224s100.288-224 224-224 224 100.288 224 224-100.288 224-224 224z m93.352-217.616c10.304 0 18.648-8.4 18.648-18.76 0.031-10.339-8.309-18.754-18.648-18.816H782.08l48.16-48.72c7.28-7.372 7.28-19.228 0-26.6-7.253-7.268-19.025-7.28-26.293-0.027l-0.027 0.027-68.488 69.104L667 623.625c-7.222-7.299-18.994-7.361-26.293-0.139l-0.139 0.139c-7.317 7.379-7.317 19.277 0 26.656l48.272 48.664h-45.136c-10.361 0.031-18.735 8.455-18.704 18.816 0 10.36 8.4 18.76 18.704 18.76h74.648v37.632h-74.704c-10.33 0.031-18.679 8.43-18.648 18.76v0.056c0 10.416 8.4 18.872 18.648 18.872h74.704v43.904c0 10.416 8.344 18.816 18.648 18.816s18.704-8.4 18.704-18.816v-43.904h74.648c10.304 0 18.648-8.4 18.648-18.872 0.062-10.33-8.262-18.754-18.592-18.816h-74.704v-37.632h74.648z" p-id="2806" fill="#161616"></path><path d="M669.8 282.137v-44.8c-2.474-98.969-84.711-177.194-183.68-174.72-95.489 2.387-172.332 79.231-174.72 174.72v44.8h44.8v-44.52c-0.278-74.103 59.568-134.401 133.671-134.679l0.729-0.001c74.2 0 134.4 60.48 134.4 134.68v44.52h44.8z" p-id="2807" fill="#161616"></path></svg>