<?xml version="1.0" standalone="no"?><!DOCTYPE svg PUBLIC "-//W3C//DTD SVG 1.1//EN" "http://www.w3.org/Graphics/SVG/1.1/DTD/svg11.dtd"><svg t="1603963900597" class="icon" viewBox="0 0 1024 1024" version="1.1" xmlns="http://www.w3.org/2000/svg" p-id="24096" xmlns:xlink="http://www.w3.org/1999/xlink" width="128" height="128"><defs><style type="text/css"></style></defs><path d="M621.184 32.256c27.584 0 50.304 22.528 50.304 50.24l-0.064 75.84h59.712a133.12 133.12 0 0 1 132.992 132.992v59.008h75.84a50.304 50.304 0 0 1 0 100.48h-75.84v120.32l75.84 0.064a50.304 50.304 0 0 1 0 100.48h-75.84v59.84a133.12 133.12 0 0 1-132.992 132.928h-59.712v75.264c0 28.16-22.016 50.24-50.24 50.24a50.368 50.368 0 0 1-50.24-50.24v-75.264H450.56v75.264c0 28.16-22.208 50.24-50.24 50.24a50.368 50.368 0 0 1-50.24-50.24v-75.264h-59.2a133.12 133.12 0 0 1-132.992-132.928v-59.84H82.752a50.368 50.368 0 0 1-50.24-50.24c0-27.52 22.528-50.24 50.24-50.24h75.2v-120.32H82.752a50.368 50.368 0 0 1-50.24-50.24c0-27.584 22.528-50.24 50.24-50.24l75.2-0.064v-59.008a133.12 133.12 0 0 1 132.992-132.992h59.2V82.496c0-27.52 22.528-50.24 50.24-50.24 27.52 0 50.24 22.528 50.24 50.24v75.84h120.32V82.496c0-27.52 22.592-50.24 50.24-50.24z m-330.24 225.856a33.28 33.28 0 0 0-32.64 32.64v440.128c0 17.536 15.104 32.64 32.64 32.64h440.192a33.28 33.28 0 0 0 32.64-32.64V291.328a33.28 33.28 0 0 0-32.64-32.64H290.944v-0.64z m273.024 431.232v48.64H458.624v-48.64h105.344z m0-79.296v48.192H458.624v-48.192h105.344z m0-63.36v47.808H458.624v-47.808h105.344zM511.36 284.8L620.16 423.296h-56.256v115.904H458.112V423.296h-56.256l109.44-138.496z" p-id="24097"></path></svg>