<?xml version="1.0" standalone="no"?><!DOCTYPE svg PUBLIC "-//W3C//DTD SVG 1.1//EN" "http://www.w3.org/Graphics/SVG/1.1/DTD/svg11.dtd"><svg t="1603330447186" class="icon" viewBox="0 0 1024 1024" version="1.1" xmlns="http://www.w3.org/2000/svg" p-id="10164" xmlns:xlink="http://www.w3.org/1999/xlink" width="128" height="128"><defs><style type="text/css"></style></defs><path d="M512.41 956.86c-246.63 0-447.26-200.64-447.26-447.26S265.78 62.34 512.41 62.34 959.67 262.98 959.67 509.6 759.03 956.86 512.41 956.86z m0-831.52c-211.88 0-384.27 172.39-384.27 384.27s172.39 384.27 384.27 384.27 384.27-172.4 384.27-384.28-172.39-384.26-384.27-384.26z" fill="#409EFF" p-id="10165"></path><path d="M642.31 698.34c-6.1 0-12.26-1.23-18.12-3.75l-110.93-47.77-113.34 46.58c-17.11 7.03-36.62 3.11-49.69-9.98s-16.96-32.6-9.9-49.71L470.7 317.88c7.09-17.17 23.65-28.25 42.22-28.25h0.11c18.61 0.04 35.17 11.21 42.2 28.45l129.34 317.3c7.03 17.25 2.98 36.82-10.32 49.86-8.75 8.57-20.23 13.09-31.94 13.1zM513.4 582.38c6.16 0 12.33 1.23 18.06 3.69l78.8 33.93-97.44-239.07-98.4 238.4 81.63-33.55c5.52-2.26 11.44-3.4 17.35-3.4z m15.52-240.47l-0.02 0.05c0.01-0.01 0.02-0.03 0.02-0.05z" fill="#409EFF" p-id="10166"></path></svg>