<?xml version="1.0" standalone="no"?><!DOCTYPE svg PUBLIC "-//W3C//DTD SVG 1.1//EN" "http://www.w3.org/Graphics/SVG/1.1/DTD/svg11.dtd"><svg t="1604318437084" class="icon" viewBox="0 0 1024 1024" version="1.1" xmlns="http://www.w3.org/2000/svg" p-id="3687" xmlns:xlink="http://www.w3.org/1999/xlink" width="128" height="128"><defs><style type="text/css"></style></defs><path d="M877.824 146.2784H292.6592a146.2784 146.2784 0 0 0-146.2784 146.2784v585.1648A146.2784 146.2784 0 0 0 292.6592 1024h585.1648A146.2784 146.2784 0 0 0 1024.1024 877.7216V292.5568a146.2784 146.2784 0 0 0-146.2784-146.2784z m-292.5568 804.5568a73.216 73.216 0 1 1 0-146.3808 73.216 73.216 0 0 1 0 146.3808z m73.1136-305.9712v86.5792H512.1024v-146.2784c0-40.3968 32.768-73.1648 73.1648-73.1648A73.216 73.216 0 1 0 512.1024 438.8352H365.824a219.4432 219.4432 0 0 1 438.8864 0 218.9312 218.9312 0 0 1-146.3296 206.0288z" fill="#161616" p-id="3688"></path><path d="M884.6336 209.7664v419.584h1.024v-409.6c-0.0512-3.4816-0.8704-6.656-1.024-9.984z m-256-209.5104H220.0064A219.4432 219.4432 0 0 0 0.5632 219.6992v407.2448c-0.0512 0.8192-0.4608 1.536-0.4608 2.3552a36.5568 36.5568 0 1 0 73.1648 0c0-0.9216-0.4608-1.7408-0.512-2.6112V219.6992a146.2784 146.2784 0 0 1 146.2784-146.2784h409.6a36.5568 36.5568 0 1 0 0-73.1648z" fill="#161616" p-id="3689"></path></svg>