<?xml version="1.0" standalone="no"?><!DOCTYPE svg PUBLIC "-//W3C//DTD SVG 1.1//EN" "http://www.w3.org/Graphics/SVG/1.1/DTD/svg11.dtd"><svg t="1603330489683" class="icon" viewBox="0 0 1024 1024" version="1.1" xmlns="http://www.w3.org/2000/svg" p-id="11860" xmlns:xlink="http://www.w3.org/1999/xlink" width="128" height="128"><defs><style type="text/css"></style></defs><path d="M341.317818 1024h-204.8A136.936727 136.936727 0 0 1 0 887.482182v-204.8a136.936727 136.936727 0 0 1 136.517818-136.564364h204.8a136.936727 136.936727 0 0 1 136.564364 136.564364v204.8A136.936727 136.936727 0 0 1 341.317818 1024z m-204.8-409.6c-37.515636 0-68.235636 30.72-68.235636 68.282182v204.8c0 37.515636 30.72 68.235636 68.235636 68.235636h204.8c37.562182 0 68.282182-30.72 68.282182-68.235636v-204.8c0-37.562182-30.72-68.282182-68.282182-68.282182h-204.8zM887.482182 1024h-204.8a136.936727 136.936727 0 0 1-136.564364-136.517818v-204.8a136.936727 136.936727 0 0 1 136.564364-136.564364h204.8A136.936727 136.936727 0 0 1 1024 682.682182v204.8A136.936727 136.936727 0 0 1 887.482182 1024z m-204.8-409.6c-37.562182 0-68.282182 30.72-68.282182 68.282182v204.8c0 37.515636 30.72 68.235636 68.282182 68.235636h204.8c37.515636 0 68.235636-30.72 68.235636-68.235636v-204.8c0-37.562182-30.72-68.282182-68.235636-68.282182h-204.8z m-341.364364-136.517818h-204.8A136.936727 136.936727 0 0 1 0 341.317818v-204.8A136.936727 136.936727 0 0 1 136.517818 0h204.8a136.936727 136.936727 0 0 1 136.564364 136.517818v204.8a136.936727 136.936727 0 0 1-136.564364 136.564364z m-204.8-409.6c-37.515636 0-68.235636 30.72-68.235636 68.235636v204.8c0 37.562182 30.72 68.282182 68.235636 68.282182h204.8C378.88 409.6 409.6 378.88 409.6 341.317818v-204.8c0-37.515636-30.72-68.235636-68.282182-68.235636h-204.8z m750.964364 409.6h-204.8a136.936727 136.936727 0 0 1-136.564364-136.564364v-204.8A136.936727 136.936727 0 0 1 682.682182 0h204.8A136.936727 136.936727 0 0 1 1024 136.517818v204.8a136.936727 136.936727 0 0 1-136.517818 136.564364z m-204.8-409.6c-37.562182 0-68.282182 30.72-68.282182 68.235636v204.8c0 37.562182 30.72 68.282182 68.282182 68.282182h204.8c37.515636 0 68.235636-30.72 68.235636-68.282182v-204.8c0-37.515636-30.72-68.235636-68.235636-68.235636h-204.8z" p-id="11861" fill="#409EFF"></path></svg>