<?xml version="1.0" standalone="no"?><!DOCTYPE svg PUBLIC "-//W3C//DTD SVG 1.1//EN" "http://www.w3.org/Graphics/SVG/1.1/DTD/svg11.dtd"><svg t="1603779359792" class="icon" viewBox="0 0 1137 1024" version="1.1" xmlns="http://www.w3.org/2000/svg" p-id="4591" xmlns:xlink="http://www.w3.org/1999/xlink" width="142.125" height="128"><defs><style type="text/css"></style></defs><path d="M170.666667 0h796.444444a170.666667 170.666667 0 0 1 170.666667 170.666667v682.666666a170.666667 170.666667 0 0 1-170.666667 170.666667H170.666667a170.666667 170.666667 0 0 1-170.666667-170.666667V170.666667a170.666667 170.666667 0 0 1 170.666667-170.666667zM113.777778 170.666667v113.777777h113.777778V170.666667H113.777778z m796.444444 0v113.777777h113.777778V170.666667h-113.777778zM113.777778 455.111111v113.777778h113.777778V455.111111H113.777778z m796.444444 0v113.777778h113.777778V455.111111h-113.777778zM113.777778 739.555556v113.777777h113.777778v-113.777777H113.777778z m796.444444 0v113.777777h113.777778v-113.777777h-113.777778z m-170.666666-227.555556L398.222222 341.333333v341.333334l341.333334-170.666667z" p-id="4592" fill="#161616"></path></svg>