<?xml version="1.0" standalone="no"?><!DOCTYPE svg PUBLIC "-//W3C//DTD SVG 1.1//EN" "http://www.w3.org/Graphics/SVG/1.1/DTD/svg11.dtd"><svg t="1603330541292" class="icon" viewBox="0 0 1024 1024" version="1.1" xmlns="http://www.w3.org/2000/svg" p-id="14014" xmlns:xlink="http://www.w3.org/1999/xlink" width="128" height="128"><defs><style type="text/css"></style></defs><path d="M803.635939 583.193144c-69.523362 0-145.81797 0-145.81797 0L657.81797 364.466189c0 0-25.077226-111.607436-109.32411-109.32411-84.325619 2.322694-109.402845 109.32411-109.402845 109.32411l0 364.544924-72.908985-72.908985c0 0-78.30236-64.444929-164.675099 21.967178-98.064947 98.064947-30.391866 181.721314-30.391866 181.721314l172.824214 151.486919C373.425688 1034.032072 377.008148 1023.560263 398.660385 992.853455c21.652236-30.746176-18.739026-58.894083-18.739026-58.894083s-126.803369-103.379587-139.322299-115.898516c-26.21889-38.737819 52.359044-119.244771 76.25524-98.734198 8.464056 7.597967 108.930433 108.812329 169.792901 169.792901 20.825515 20.864882 33.344444 2.047121 33.344444 2.047121L519.440496 364.466189l58.303567 0c0 0 0 193.216683 0 225.14389 0 31.848471 30.746176 72.908985 67.200668 72.908985l169.911004 0c64.877974 0 91.687379 38.659084 91.687379 109.32411l0 175.855527c0 43.304473 79.32592 48.973422 79.32592 0 0-38.659084 0-28.462849 0-182.233094S873.119934 583.193144 803.635939 583.193144z" p-id="14015" fill="#409EFF"></path><path d="M949.414542 0 74.664194 0C34.351667 0 1.715841 32.635825 1.715841 72.908985l0 360.253845c0 40.27316 32.635825 72.908985 72.948353 72.908985l291.557204 0 0-105.151133L106.473297 400.920681 106.473297 105.151133l812.273804 0 0 295.730181-188.020147 0 0 105.151133 218.726955 0c40.27316 0 72.869617-32.596458 72.869617-72.908985L1022.323526 72.908985C1022.284159 32.635825 989.727069 0 949.414542 0z" p-id="14016" fill="#409EFF"></path></svg>