<?xml version="1.0" standalone="no"?><!DOCTYPE svg PUBLIC "-//W3C//DTD SVG 1.1//EN" "http://www.w3.org/Graphics/SVG/1.1/DTD/svg11.dtd"><svg t="1604405685437" class="icon" viewBox="0 0 1024 1024" version="1.1" xmlns="http://www.w3.org/2000/svg" p-id="17015" xmlns:xlink="http://www.w3.org/1999/xlink" width="128" height="128"><defs><style type="text/css"></style></defs><path d="M915.393939 853.333333h15.515152a31.030303 31.030303 0 0 1 0 62.060606H93.090909a31.030303 31.030303 0 0 1 0-62.060606h15.515152a22.962424 22.962424 0 0 1 0-3.258181l46.545454-434.424243a31.030303 31.030303 0 0 1 12.722424-21.876364l290.909091-209.454545-27.151515-19.549091a31.030303 31.030303 0 1 1 36.305455-50.269091l43.907878 31.030303 43.907879-31.030303a31.030303 31.030303 0 1 1 36.305455 50.269091l-27.151515 19.549091 290.909091 209.454545a31.030303 31.030303 0 0 1 13.032727 21.876364l46.545454 434.424243a22.962424 22.962424 0 0 1 0 3.258181z m-62.060606 0l-44.838788-417.357575L512 222.487273 215.505455 435.975758 170.666667 853.333333zM512 584.455758l-80.058182 187.888484a31.030303 31.030303 0 0 1-57.095757-24.203636l108.60606-255.069091a31.030303 31.030303 0 0 1 57.095758 0l108.60606 255.069091a31.030303 31.030303 0 1 1-57.095757 24.203636z" fill="#161616" p-id="17016"></path></svg>