<?xml version="1.0" standalone="no"?><!DOCTYPE svg PUBLIC "-//W3C//DTD SVG 1.1//EN" "http://www.w3.org/Graphics/SVG/1.1/DTD/svg11.dtd"><svg t="1604132148351" class="icon" viewBox="0 0 1024 1024" version="1.1" xmlns="http://www.w3.org/2000/svg" p-id="3085" xmlns:xlink="http://www.w3.org/1999/xlink" width="128" height="128"><defs><style type="text/css"></style></defs><path d="M863.50968 135.738686L795.032189 204.337807c38.799857 54.733341 59.355268 121.021499 59.355268 194.120917v68.477492H169.369284v-68.477492c0-70.788455 22.866374-139.265946 59.355268-194.120917L160.24706 135.738686c-18.244447-18.244447-18.244447-47.922081 0-66.166528s47.922081-18.244447 66.166528 0l66.166528 66.166528c59.355268-50.233044 136.954983-79.910678 219.176625-79.910678 84.532605 0 159.821356 29.677634 219.176624 79.910678L797.221523 69.572158c18.244447-18.244447 47.922081-18.244447 66.166528 0 18.366077 18.244447 18.366077 47.922081 0.121629 66.166528z m-534.31904 148.38817c-25.055707 0-45.611118 20.55541-45.611117 45.732747 0 25.055707 20.55541 45.732747 45.611117 45.732748s45.611118-20.55541 45.611118-45.732748c0-25.177337-20.55541-45.732747-45.611118-45.732747z m365.37546 0c-25.055707 0-45.611118 20.55541-45.611117 45.732747 0 25.055707 20.55541 45.732747 45.611117 45.732748s45.732747-20.55541 45.732748-45.732748c-0.12163-25.177337-20.67704-45.732747-45.732748-45.732747zM854.387457 626.635943c0 189.49899-153.010096 342.509087-342.509087 342.509086S169.369284 816.134933 169.369284 626.635943v-68.477492H854.387457v68.477492z m0 0" p-id="3086"></path></svg>