<?xml version="1.0" standalone="no"?><!DOCTYPE svg PUBLIC "-//W3C//DTD SVG 1.1//EN" "http://www.w3.org/Graphics/SVG/1.1/DTD/svg11.dtd"><svg t="1620894962705" class="icon" viewBox="0 0 1024 1024" version="1.1" xmlns="http://www.w3.org/2000/svg" p-id="2544" xmlns:xlink="http://www.w3.org/1999/xlink" width="128" height="128"><defs><style type="text/css"></style></defs><path d="M332.1088 753.37216c-42.94144 0-78.8224-20.69504-98.44224-56.7808-33.34656-61.32224-22.38976-125.02016 27.91424-162.2784 21.05344-15.5904 45.1584-23.8336 69.7088-23.8336 11.01824 0 21.98528 1.65888 32.6656 4.9408l33.36704-116.53632a98.62144 98.62144 0 0 1-24.22272-23.20896c-31.616-42.69056-23.26528-98.72384 19.42528-130.34496 17.05472-12.63104 36.66432-19.30752 56.71424-19.30752 28.96896 0 55.95648 14.0032 74.04032 38.4256 15.27296 20.62336 21.67808 45.25568 18.03776 69.36064-3.64544 24.13056-17.09568 45.89568-37.87264 61.2864-16.1536 11.96544-34.7136 18.56-53.84192 19.16928l-36.3776 129.82272a112.0256 112.0256 0 0 1 16 17.46944c11.64288 15.72864 18.90304 33.38752 21.18656 51.4048l175.17056-41.95328c-5.29408-33.73568 8.48896-66.2272 37.48864-87.7056 16.70656-12.37504 36.0448-18.91328 55.91552-18.91328 29.25568 0 56.48896 14.12096 74.73152 38.74816 31.62112 42.68544 23.2704 98.72896-19.42016 130.34496-16.89088 12.50816-36.35712 19.1232-56.2688 19.1232h-0.01024c-26.00448 0-50.88768-11.55072-68.76672-31.79008l-197.9648 46.43328c-8.80128 20.85888-28.95872 50.52416-47.91808 64.44032-18.47808 13.57824-45.11744 21.6832-71.26016 21.6832z m0.69632-186.17344c-13.93664 0-27.08992 4.28544-38.03648 12.39552-28.09856 20.8128-34.25792 62.13632-13.44512 90.24 11.9808 16.1792 31.49824 25.83552 52.1984 25.83552 13.93664 0 27.08992-4.28544 38.03648-12.39552 28.20096-20.88448 34.21184-61.3888 13.40416-90.29632-11.93984-16.12288-31.45728-25.7792-52.15744-25.7792z m386.44736-54.89664a47.1296 47.1296 0 0 0-27.83744 9.2672c-9.35936 6.93248-15.95392 17.30048-18.0992 28.45184-1.64864 8.57088-1.50016 21.65248 8.6016 35.28704 9.84064 13.28128 21.89824 20.30592 34.87744 20.30592 9.472 0 19.17952-3.64032 28.86144-10.80832 22.90688-16.95232 26.34752-40.21248 9.45664-63.80544-8.91904-12.03712-21.67296-18.69824-35.86048-18.69824zM448.32256 274.04288a46.9504 46.9504 0 0 0-27.76064 9.1392c-18.13504 13.43488-22.92736 45.59872-9.49248 63.73888 8.7552 11.82208 22.4256 18.88256 36.57216 18.88256 9.48224 0 18.87232-3.24608 27.1616-9.38496 23.27552-17.23904 26.73664-40.46848 9.50272-63.73888-8.89856-12.02176-21.6832-18.6368-35.98336-18.6368z" p-id="2545" fill="#2c2c2c"></path><path d="M358.05184 901.632c-99.85536 0-188.93824-66.47296-217.76896-162.05312-17.14688-3.2256-33.21344-8.82688-47.7952-16.67072-39.04-21.06368-67.5328-56.03328-80.2304-98.46272-12.71296-42.44992-8.13568-87.32672 12.89216-126.36672l114.90304-213.12512C168.65792 189.19424 258.22208 122.368 358.05184 122.368h304.37888c93.76256 0 176.7424 56.48384 211.47648 143.91296l124.93312 231.78752c21.03808 39.04 25.62048 83.9168 12.9024 126.36672-12.69248 42.4448-41.18528 77.4144-80.22528 98.4576-15.81056 8.54016-33.1264 14.40256-51.51232 17.46432-29.06624 95.11936-118.06208 161.26464-217.5744 161.26464H358.05184z m0-716.78464c-91.05408 0-165.13024 74.0864-165.13024 165.15072v324.00896c0 91.05408 74.07616 165.13536 165.13024 165.13536h304.37888c91.06432 0 165.15584-74.08128 165.15584-165.13536V349.99808c0-91.06432-74.09152-165.15072-165.15584-165.15072H358.05184z m532.00384 488.36096a96.44032 96.44032 0 0 0 11.8272-5.2992 102.76864 102.76864 0 0 0 50.01216-61.39904c7.936-26.45504 5.07904-54.43584-8.0384-78.79168L890.0608 427.904v245.30432zM80.13824 527.7184c-13.11232 24.36608-15.96416 52.34688-8.03328 78.78656a102.7584 102.7584 0 0 0 50.0224 61.40928c2.56 1.37728 5.31968 2.66752 8.32 3.89632V434.42176l-50.30912 93.29664z" p-id="2546" fill="#2c2c2c"></path></svg>