<?xml version="1.0" standalone="no"?><!DOCTYPE svg PUBLIC "-//W3C//DTD SVG 1.1//EN" "http://www.w3.org/Graphics/SVG/1.1/DTD/svg11.dtd"><svg t="1608105529393" class="icon" viewBox="0 0 1293 1024" version="1.1" xmlns="http://www.w3.org/2000/svg" p-id="3845" xmlns:xlink="http://www.w3.org/1999/xlink" width="161.625" height="128"><defs><style type="text/css"></style></defs><path d="M256 80.842105A175.157895 175.157895 0 0 0 80.842105 256v512A175.157895 175.157895 0 0 0 256 943.157895h781.473684a175.157895 175.157895 0 0 0 175.157895-175.157895v-512A175.157895 175.157895 0 0 0 1037.473684 80.842105h-781.473684z m0-80.842105h781.473684A256 256 0 0 1 1293.473684 256v512a256 256 0 0 1-256 256h-781.473684A256 256 0 0 1 0 768v-512A256 256 0 0 1 256 0z" p-id="3846"></path><path d="M403.132632 269.473684c53.679158 0 95.717053 10.994526 126.113684 34.277053 32.336842 23.929263 50.445474 60.793263 54.972631 111.238737h-69.847579c-6.467368-29.749895-18.108632-51.738947-36.217263-64.673685-18.108632-13.581474-43.978105-20.048842-78.901894-20.048842-30.396632 0-53.679158 4.527158-69.847579 13.581474-20.048842 10.347789-29.749895 27.162947-29.749895 50.445474 0 20.695579 10.994526 36.864 34.277052 49.152 10.347789 5.820632 36.864 15.521684 80.195369 28.456421 62.086737 19.402105 102.831158 34.277053 120.939789 45.271579 39.450947 23.929263 59.499789 56.912842 59.49979 99.597473 0 41.391158-16.168421 73.728-48.505263 97.657264-32.336842 23.282526-77.608421 34.923789-135.814737 34.923789-56.266105 0-100.244211-11.641263-131.934316-33.630316C240.154947 688.559158 219.459368 645.874526 215.578947 587.668211h69.847579c5.173895 36.217263 18.108632 62.733474 38.804211 78.255157 18.755368 14.228211 47.211789 21.342316 86.016 21.342316 34.923789 0 62.733474-6.467368 83.429052-18.108631 20.695579-11.641263 31.043368-27.809684 31.043369-48.505264 0-25.869474-14.874947-45.918316-43.978105-60.793263-10.347789-5.173895-40.744421-15.521684-91.836632-31.043368-56.912842-18.108632-91.836632-30.396632-106.064842-38.157474-35.570526-21.342316-53.032421-52.385684-53.032421-92.483368 0-40.744421 16.815158-72.434526 51.09221-95.717053 32.336842-21.989053 73.081263-32.983579 122.233264-32.983579z m256.754526 9.054316h71.141053l236.058947 343.417263h2.586947V278.528H1040.168421v461.770105h-68.554105L732.968421 393.000421h-2.586947v347.297684h-70.494316V278.528z" p-id="3847"></path></svg>