<?xml version="1.0" standalone="no"?><!DOCTYPE svg PUBLIC "-//W3C//DTD SVG 1.1//EN" "http://www.w3.org/Graphics/SVG/1.1/DTD/svg11.dtd"><svg t="1605520952086" class="icon" viewBox="0 0 1024 1024" version="1.1" xmlns="http://www.w3.org/2000/svg" p-id="7522" xmlns:xlink="http://www.w3.org/1999/xlink" width="128" height="128"><defs><style type="text/css"></style></defs><path d="M607.03001491 305.92346442a211.6927441 211.6927441 0 0 1 150.30184836 1e-8v-15.34772414a150.30184836 150.30184836 0 0 0-260.9113078-100.81866979 260.64669149 260.64669149 0 0 1 63.77243962 49.74779486A269.90824923 269.90824923 0 0 1 607.03001491 305.92346442z" fill="#161616" p-id="7523"></path><path d="M608.08847869 181.55397655a110.60945871 110.60945871 0 0 1 104.25867601 73.29861292 258.00053203 258.00053203 0 0 0-30.9600638-1.85231126 252.70821384 252.70821384 0 0 0-55.30472938 6.08616639 304.57293627 304.57293627 0 0 0-35.9877664-46.30778793 330.24068119 330.24068119 0 0 0-24.08004996-23.02158617 111.4033069 111.4033069 0 0 1 42.07393353-8.20309395zM391.89726315 731.95511209h46.57240351l-18.52311473-52.92318621A247.41589493 247.41589493 0 0 0 614.96849256 432.93911103a244.24050359 244.24050359 0 0 0-236.83125785-250.85590259A244.24050359 244.24050359 0 0 0 141.30597687 432.93911103a247.41589493 247.41589493 0 0 0 191.84655 246.35743115l-15.61234043 52.92318621h40.48623786l-6.61539828 22.75696986a39.95700524 39.95700524 0 0 0 11.37848458 40.48623714 13.49541214 13.49541214 0 0 1 2.38154386 17.20003536l-30.96006454 48.68933182a13.49541214 13.49541214 0 0 0 6.0861664 19.58157851 18.25849916 18.25849916 0 0 0 7.93847835 1.85231126 16.93541978 16.93541978 0 0 0 14.28926034-7.40924574l30.96006382-48.68933109A39.69238966 39.69238966 0 0 0 386.86956055 776.93982065a13.49541214 13.49541214 0 0 1-3.70462324-13.76002845z" fill="#161616" p-id="7524"></path><path d="M882.23058232 527.40699814a207.19427338 207.19427338 0 0 0-200.84349142-213.01582418 188.40654234 188.40654234 0 0 0-65.36013457 12.70156466 284.46212513 284.46212513 0 0 1 20.37542673 105.84637241 278.37595876 278.37595876 0 0 1-75.15092418 192.37578116 269.64363291 269.64363291 0 0 1-38.3693103 33.60622327 199.78502765 199.78502765 0 0 0 118.54793708 79.38477932l-7.67386206 33.60622326h20.9046586l-1.85231124 6.0861664a31.48929571 31.48929571 0 0 0 0 8.73232511 32.54775949 32.54775949 0 0 0 10.32002078 23.81543437 5.29231891 5.29231891 0 0 1 1.85231198 3.44000692 5.02770261 5.02770261 0 0 1 0 3.44000693l-21.6985068 33.87083886a12.96618024 12.96618024 0 0 0 0 13.23079656 14.55387591 14.55387591 0 0 0 6.35078268 6.61539827 18.25849916 18.25849916 0 0 0 7.93847764 1.85231198 16.93541978 16.93541978 0 0 0 14.28926033-7.40924648l19.58157926-35.72315011a30.96006382 30.96006382 0 0 0 3.44000692-24.87389743 32.28314318 32.28314318 0 0 0-8.99694215-15.61234042 5.82155079 5.82155079 0 0 1-1.58769495-2.64615945 5.02770261 5.02770261 0 0 1 0-2.91077504l3.96923882-13.23079656h20.11081041l-8.73232583-30.9600638a208.78196906 208.78196906 0 0 0 182.58499227-212.22197601z" fill="#161616" p-id="7525"></path><path d="M696.47019943 699.93658449a39.95700524 39.95700524 0 0 0-24.08004997 11.11386899 39.69238966 39.69238966 0 0 0-22.49235428-13.76002845 156.91724664 156.91724664 0 0 1-69.85860526-35.45853452l10.0554052-10.05540522A317.53911652 317.53911652 0 0 0 676.09477272 432.93911103a328.6529855 328.6529855 0 0 0-9.26155774-79.38477931 141.30490693 141.30490693 0 0 1 14.55387591 0 167.76650004 167.76650004 0 0 1 161.15110177 173.32343454 168.03111563 168.03111563 0 0 1-146.06799323 173.05881823zM369.93414076 694.11503441v-4.23385513a39.69238966 39.69238966 0 0 0-30.16621562-50.01241117 207.9881216 207.9881216 0 0 1-158.76955861-206.92965708 204.81273024 204.81273024 0 0 1 197.13886818-211.69274482 204.81273024 204.81273024 0 0 1 197.13886819 211.69274482 207.19427338 207.19427338 0 0 1-162.73879746 207.98812087 39.69238966 39.69238966 0 0 0-30.16621561 52.9231862v1.58769568z m-23.28620177-449.84708203a223.33584571 223.33584571 0 0 0-84.1478656 42.86778027 174.6465139 174.6465139 0 0 0-57.9508888 183.37884047 19.84619482 19.84619482 0 0 0 18.78773104 15.34772339h4.2338544a19.84619482 19.84619482 0 0 0 15.08310855-23.55081734 136.54181992 136.54181992 0 0 1 45.24932414-144.74491387A187.87731045 187.87731045 0 0 1 355.64488043 282.63726194a19.84619482 19.84619482 0 1 0-8.99694144-38.63392587z" fill="#161616" p-id="7526"></path><path d="M809.19658569 540.6377947a19.84619482 19.84619482 0 0 0-23.81543364 14.81849222 117.4894733 117.4894733 0 0 1-70.38783789 79.38477859 19.84619482 19.84619482 0 0 0 7.67386206 38.10469398 20.11081042 20.11081042 0 0 0 7.67386206-1.58769567 156.91724664 156.91724664 0 0 0 93.40942334-105.84637169 19.84619482 19.84619482 0 0 0-14.55387593-24.87389743z" fill="#161616" p-id="7527"></path></svg>