<?xml version="1.0" standalone="no"?><!DOCTYPE svg PUBLIC "-//W3C//DTD SVG 1.1//EN" "http://www.w3.org/Graphics/SVG/1.1/DTD/svg11.dtd"><svg t="1607391618831" class="icon" viewBox="0 0 1024 1024" version="1.1" xmlns="http://www.w3.org/2000/svg" p-id="2799" xmlns:xlink="http://www.w3.org/1999/xlink" width="128" height="128"><defs><style type="text/css"></style></defs><path d="M0 0h1023.423045v1023.423045H0z" fill-opacity="0" p-id="2800"></path><path d="M799.549254 530.900705l-63.96394-89.549517 63.96394-89.549516c6.396394-6.396394 6.396394-19.189182 6.396394-31.98197-6.396394-12.792788-12.792788-19.189182-25.585576-19.189182l-108.738699-19.189183-19.189182-108.738698c0-12.792788-12.792788-19.189182-19.189182-25.585576-12.792788-6.396394-25.585576 0-31.98197 6.396394L511.711523 217.477397l-89.549517-63.96394c-12.792788-6.396394-25.585576-6.396394-31.98197-6.396394-12.792788 6.396394-19.189182 19.189182-25.585576 25.585576l-19.189182 108.738698-102.342305 19.189183c-12.792788 0-19.189182 6.396394-25.585576 19.189182-6.396394 12.792788 0 25.585576 6.396394 31.98197l63.96394 89.549516-63.96394 89.549517c-12.792788 6.396394-12.792788 19.189182-6.396394 31.98197s12.792788 19.189182 25.585576 19.189182l108.738699 19.189182 19.189182 108.738699c0 12.792788 12.792788 19.189182 19.189182 25.585576 12.792788 6.396394 25.585576 0 31.98197-6.396394l89.549517-63.963941 89.549516 63.963941c6.396394 6.396394 19.189182 6.396394 31.98197 6.396394 12.792788-6.396394 19.189182-12.792788 19.189182-25.585576l19.189182-108.738699 108.738699-19.189182c12.792788 0 19.189182-12.792788 25.585576-19.189182 0-12.792788 0-25.585576-6.396394-31.98197z m-134.324275-70.360335l44.774759 63.963941-76.756729 12.792788c-12.792788 0-25.585576 12.792788-25.585576 25.585576L594.864645 639.639403l-63.96394-44.774758c-12.792788-6.396394-25.585576-6.396394-38.378364 0l-63.963941 44.774758-19.189182-70.360334c0-12.792788-12.792788-25.585576-25.585576-25.585576l-76.756728-19.189182 44.774758-63.963941c6.396394-12.792788 6.396394-25.585576 0-38.378364l-44.774758-63.96394L383.783642 345.405278c12.792788 0 25.585576-12.792788 25.585576-25.585576l12.792788-76.756729 63.96394 44.774758c12.792788 6.396394 25.585576 6.396394 38.378365 0l63.96394-44.774758 19.189182 76.756729c0 12.792788 12.792788 25.585576 25.585576 25.585576l76.756729 12.792788-44.774759 63.96394c-6.396394 12.792788-6.396394 25.585576 0 38.378364zM511.711523 0C249.459367 0 38.378364 211.081003 38.378364 473.333158c0 127.927881 51.171152 249.459367 140.720669 339.008884 6.396394 6.396394 19.189182 12.792788 31.98197 6.396394s19.189182-12.792788 25.585576-25.585576 0-25.585576-12.792788-31.98197c-76.756728-76.756728-121.531487-179.099033-121.531486-287.837732 0-223.873791 179.099033-402.972824 402.972824-402.972824s402.972824 179.099033 402.972824 402.972824c0 108.738699-38.378364 204.684609-115.135093 281.441338-6.396394 6.396394-12.792788 19.189182-6.396394 31.98197s12.792788 19.189182 25.585576 25.585576 25.585576 0 31.98197-6.396394c83.153122-89.549516 134.324275-204.684609 134.324275-326.216096C978.648287 211.081003 767.567284 0 511.711523 0z m204.684609 773.963678c-19.189182 0-31.98197 12.792788-31.98197 31.98197v115.135093l-153.513457-102.342305c-6.396394 0-6.396394-6.396394-12.792788-6.396394H511.711523h-6.396394c-6.396394 0-6.396394 0-12.792788 6.396394l-153.513457 102.342305v-108.738699c0-19.189182-12.792788-31.98197-31.98197-31.98197s-31.98197 12.792788-31.981971 31.98197v172.702639c0 6.396394 0 6.396394 6.396394 12.792788 0 19.189182 12.792788 25.585576 19.189183 25.585576 6.396394 0 6.396394 0 12.792788-6.396394L511.711523 895.495165l185.495427 121.531486c12.792788 12.792788 38.378364 6.396394 44.774758-6.396394 6.396394-6.396394 6.396394-12.792788 6.396394-25.585576V805.945648c0-12.792788-12.792788-31.98197-31.98197-31.98197z" p-id="2801"></path></svg>