<?xml version="1.0" standalone="no"?><!DOCTYPE svg PUBLIC "-//W3C//DTD SVG 1.1//EN" "http://www.w3.org/Graphics/SVG/1.1/DTD/svg11.dtd"><svg t="1605518543162" class="icon" viewBox="0 0 1024 1024" version="1.1" xmlns="http://www.w3.org/2000/svg" p-id="6546" xmlns:xlink="http://www.w3.org/1999/xlink" width="128" height="128"><defs><style type="text/css"></style></defs><path d="M776.084211 0H247.915789C111.023158 0 0 111.023158 0 247.915789v528.168422c0 136.892632 111.023158 247.915789 247.915789 247.915789h528.168422c136.892632 0 247.915789-111.023158 247.915789-247.915789V247.915789C1024 111.023158 912.976842 0 776.084211 0zM306.122105 176.774737c0-7.545263 2.155789-15.090526 7.545263-20.48 5.389474-5.389474 11.856842-8.623158 19.402106-8.623158h495.831579c15.090526 0 28.025263 11.856842 28.025263 26.947368V177.852632c0 7.545263-3.233684 14.012632-8.623158 19.402105s-11.856842 8.623158-19.402105 8.623158h-495.831579c-7.545263 0-15.090526-3.233684-19.402106-8.623158-5.389474-5.389474-7.545263-11.856842-7.545263-19.402105v-1.077895z m518.467369 183.242105v97.010526c0 14.012632-2.155789 28.025263-8.623158 40.96-10.778947 25.869474-31.258947 46.349474-57.128421 57.128421-12.934737 6.467368-26.947368 8.623158-40.96 8.623158H444.092632c-14.012632 0-28.025263-2.155789-40.96-8.623158-25.869474-10.778947-46.349474-31.258947-57.128421-57.128421-5.389474-12.934737-8.623158-26.947368-8.623158-40.96v-97.010526c0-42.037895 25.869474-80.842105 64.673684-97.010526 12.934737-6.467368 28.025263-8.623158 42.037895-8.623158h274.863157c14.012632 0 28.025263 2.155789 40.96 8.623158 24.791579 10.778947 45.271579 31.258947 57.128422 57.128421 5.389474 12.934737 8.623158 26.947368 7.545263 39.882105zM306.122105 767.461053c0-7.545263 2.155789-15.090526 7.545263-19.402106 5.389474-5.389474 11.856842-8.623158 19.402106-8.623158h80.842105l-35.570526-91.621052c-3.233684-6.467368-3.233684-15.090526 0-21.557895 3.233684-6.467368 8.623158-11.856842 16.168421-15.090526l2.155789-1.077895c6.467368-3.233684 14.012632-3.233684 20.48 0 6.467368 3.233684 11.856842 8.623158 15.090526 16.168421l39.882106 104.55579c1.077895 2.155789 1.077895 5.389474 2.155789 7.545263h214.501053c0-2.155789 1.077895-5.389474 2.155789-7.545263l40.96-104.55579c3.233684-6.467368 8.623158-12.934737 15.090527-16.168421 6.467368-3.233684 15.090526-3.233684 21.557894 0l1.077895 1.077895c7.545263 2.155789 12.934737 7.545263 16.168421 15.090526 3.233684 6.467368 3.233684 15.090526 0 21.557895l-36.648421 91.621052H829.978947c15.090526 0 28.025263 11.856842 28.025264 26.947369V769.616842c0 15.090526-11.856842 28.025263-26.947369 28.025263H334.147368c-7.545263 0-14.012632-3.233684-19.402105-8.623158s-7.545263-12.934737-7.545263-19.402105l-1.077895-2.155789zM165.995789 172.463158a29.448084 29.448084 0 0 1 29.103158-29.103158h1.077895a29.448084 29.448084 0 0 1 29.103158 29.103158v89.465263c0 7.545263-3.233684 14.012632-8.623158 19.402105s-12.934737 8.623158-20.48 8.623158H194.021053a29.448084 29.448084 0 0 1-29.103158-29.103158l1.077894-88.387368z m695.242106 696.32c0 15.090526-11.856842 28.025263-26.947369 28.025263H272.707368c-14.012632 0-28.025263-2.155789-40.96-8.623158-25.869474-10.778947-46.349474-31.258947-57.128421-57.128421-6.467368-12.934737-8.623158-26.947368-8.623158-40.96v-420.378947c0-7.545263 3.233684-15.090526 8.623158-19.402106 5.389474-5.389474 12.934737-8.623158 20.48-8.623157h1.077895c7.545263 0 15.090526 3.233684 20.48 8.623157s8.623158 12.934737 8.623158 19.402106v420.378947c0 12.934737 5.389474 25.869474 14.012632 34.492632 9.701053 8.623158 21.557895 14.012632 34.492631 14.012631h560.505263c15.090526 0 28.025263 11.856842 28.025263 26.947369v1.077894l-1.077894 2.15579z" p-id="6547" fill="#161616"></path><path d="M718.955789 312.589474H444.092632c-12.934737 0-25.869474 4.311579-35.570527 12.934737-8.623158 8.623158-14.012632 21.557895-14.012631 34.492631v95.932632c0 12.934737 4.311579 25.869474 14.012631 34.492631 9.701053 8.623158 22.635789 14.012632 35.570527 14.012632h274.863157c12.934737 0 25.869474-5.389474 34.492632-14.012632 8.623158-9.701053 14.012632-21.557895 14.012632-34.492631v-95.932632c0-12.934737-4.311579-25.869474-14.012632-34.492631-8.623158-8.623158-21.557895-12.934737-34.492632-12.934737z" p-id="6548" fill="#161616"></path></svg>