<?xml version="1.0" standalone="no"?><!DOCTYPE svg PUBLIC "-//W3C//DTD SVG 1.1//EN" "http://www.w3.org/Graphics/SVG/1.1/DTD/svg11.dtd"><svg t="1619073125836" class="icon" viewBox="0 0 1024 1024" version="1.1" xmlns="http://www.w3.org/2000/svg" p-id="3245" xmlns:xlink="http://www.w3.org/1999/xlink" width="128" height="128"><defs><style type="text/css"></style></defs><path d="M636.342857 771.657143h-245.028571c-58.514286 0-106.057143-47.542857-106.057143-106.057143V347.428571c0-58.514286 47.542857-106.057143 106.057143-106.057142h245.028571c58.514286 0 106.057143 47.542857 106.057143 106.057142v336.457143c-7.314286 51.2-51.2 87.771429-106.057143 87.771429zM391.314286 277.942857c-40.228571 0-69.485714 29.257143-69.485715 69.485714v318.171429c0 36.571429 32.914286 69.485714 69.485715 69.485714h245.028571c40.228571 0 69.485714-29.257143 69.485714-69.485714V347.428571c0-36.571429-32.914286-69.485714-69.485714-69.485714h-245.028571z" fill="#2c2c2c" p-id="3246"></path><path d="M475.428571 552.228571l113.371429-62.171428c14.628571-7.314286 14.628571-29.257143 0-40.228572L475.428571 387.657143c-14.628571-10.971429-32.914286 0-32.914285 18.285714v128c0 18.285714 18.285714 29.257143 32.914285 18.285714zM427.885714 650.971429c-10.971429 0-18.285714 10.971429-18.285714 21.942857s7.314286 21.942857 18.285714 21.942857h190.171429c10.971429 0 18.285714-10.971429 18.285714-21.942857s-7.314286-21.942857-18.285714-21.942857h-190.171429z" fill="#2c2c2c" p-id="3247"></path></svg>