<?xml version="1.0" standalone="no"?><!DOCTYPE svg PUBLIC "-//W3C//DTD SVG 1.1//EN" "http://www.w3.org/Graphics/SVG/1.1/DTD/svg11.dtd"><svg t="1607136283859" class="icon" viewBox="0 0 1024 1024" version="1.1" xmlns="http://www.w3.org/2000/svg" p-id="1548" width="48" height="48" xmlns:xlink="http://www.w3.org/1999/xlink"><defs><style type="text/css"></style></defs><path d="M701.6 424c1 7.9 2.4 15.8 2.4 24 0 106-86 192-192 192s-192-86-192-192c0-8.2 1.4-16 2.4-24-56.6-36.5-102.2-88.5-130.4-150.3l0 536.9c0 47.1 38.2 85.3 85.3 85.3l469.3 0c47.1 0 85.3-38.2 85.3-85.3L831.9 273.8C803.8 335.5 758.1 387.6 701.6 424z" p-id="1549"></path><path d="M342.8 359.1C375 298.1 438.2 256 512 256s137 42.1 169.2 103.1c66.1-49 111.1-124.9 116.9-212.1-14.4-11.2-31.7-19-51.4-19L277.3 128c-19.7 0-37 7.8-51.4 19C231.7 234.1 276.7 310.1 342.8 359.1z" p-id="1550"></path><path d="M611.8 459c10.1 0 17.4-7.3 17.4-17.4s-7.3-17.4-17.4-17.4l-68.8 0 68.9-68.9c6.9-6.9 6.9-17.6 0-24.5-6.9-6.9-17.6-6.9-24.5 0l-75.2 75.1-75.4-77.4c-6.9-6.9-17.6-6.9-24.5 0-3.4 3.4-5.2 7.8-5.2 12.3 0.1 4.6 1.9 8.9 5.2 12.1l69.2 71.2-69.1 0c-10.1 0-17.4 7.3-17.4 17.4s7.3 17.4 17.4 17.4l82.3 0 0 31.6-82.3 0c-10.1 0-17.4 7.4-17.4 17.5s7.3 17.4 17.4 17.4l82.3 0 0 49.1c0 10.1 7.3 17.4 17.4 17.4s17.4-7.3 17.4-17.4l0-49.1 82.3 0c10.1 0 17.4-7.3 17.4-17.4s-7.3-17.5-17.4-17.5l-82.3 0L529.5 459 611.8 459z" p-id="1551"></path></svg>