<?xml version="1.0" standalone="no"?><!DOCTYPE svg PUBLIC "-//W3C//DTD SVG 1.1//EN" "http://www.w3.org/Graphics/SVG/1.1/DTD/svg11.dtd"><svg t="1602726242707" class="icon" viewBox="0 0 1024 1024" version="1.1" xmlns="http://www.w3.org/2000/svg" p-id="5527" xmlns:xlink="http://www.w3.org/1999/xlink" width="128" height="128"><defs><style type="text/css"></style></defs><path d="M804.29056 889.05728H633.96864c-48.2816 0-92.90752-31.72352-92.90752-79.83104V624.0256l85.0432-89.37472c0.8192-0.02048 1.5872-0.24576 2.38592-0.24576h188.53888c48.2816 0 80.14848 44.43136 80.14848 92.53888v169.6256c0 48.06656-44.60544 92.49792-92.8768 92.49792z m0-400.92672H670.32064c51.5584-54.25152 92.19072-97.11616 87.52128-92.50816 12.41088-12.25728 6.27712-43.84768-5.24288-55.4496l-85.3504-79.7696s-33.92512-18.93376-48.77312-3.56352l-77.4144 75.84768V220.53888c0-48.08704 39.14752-87.08096 87.42912-87.08096h188.53888c48.2816 0 80.14848 44.43136 80.14848 92.52864v169.63584c0 48.08704-44.60544 92.50816-92.8768 92.50816z m-588.34944 0c-48.2816 0-92.91776-31.744-92.91776-79.8208V220.53888c0-48.08704 39.15776-87.08096 87.43936-87.08096h188.5184c48.2816 0 80.14848 44.43136 80.14848 92.52864v167.36256l-96.77824 94.80192H215.94112v-0.02048zM457.1136 650.27072l-132.9152 38.27712 35.7888-133.23264 249.8048-254.4128c22.25152-18.55488 41.12384-12.14464 41.12384-12.14464l69.888 60.81536c9.96352 10.02496 6.8096 37.53984-3.91168 48.18944-7.8848 7.55712-259.77856 252.5184-259.77856 252.5184zM716.9024 397.94688c0.02048-0.03072 0.02048-0.0512 0.0512-0.0512 0.33792-0.31744 0.38912-0.36864-0.0512 0.0512zM210.4832 534.3744H335.1552l-41.80992 185.04704 185.7536-36.608 0.03072 113.68448c0 48.08704-44.60544 92.50816-92.88704 92.50816H215.94112c-48.2816 0-92.91776-31.71328-92.91776-79.8208V621.45536c0-48.08704 39.15776-87.08096 87.4496-87.08096z" p-id="5528"></path></svg>