<?xml version="1.0" standalone="no"?><!DOCTYPE svg PUBLIC "-//W3C//DTD SVG 1.1//EN" "http://www.w3.org/Graphics/SVG/1.1/DTD/svg11.dtd"><svg t="1603277731609" class="icon" viewBox="0 0 1024 1024" version="1.1" xmlns="http://www.w3.org/2000/svg" p-id="3063" width="128" height="128" xmlns:xlink="http://www.w3.org/1999/xlink"><defs><style type="text/css"></style></defs><path d="M397.4144 479.0784a241.6128 241.6128 0 1 1 241.7664-5.4784 396.7488 396.7488 0 0 1 96.0512 42.6496 25.6 25.6 0 1 1-26.7776 43.6224A347.7504 347.7504 0 0 0 179.2 856.576a25.6 25.6 0 1 1-51.2 0c0-175.0016 112.64-323.6864 269.4144-377.4976z m116.224-21.504a190.4128 190.4128 0 1 0 0-380.7744 190.4128 190.4128 0 0 0 0 380.8256zM665.6 863.0784l104.8576 56.1152L870.4 863.5392V665.6h-204.8v197.4272zM921.6 614.4v279.296l-150.6304 83.7632L614.4 893.696V614.4h307.2z m-153.6 102.4l15.8208 33.6896 35.3792 5.4272-25.6 26.2144 6.0416 37.0688-31.6416-17.5104-31.6416 17.5104 6.0416-37.0688-25.6-26.2144 35.3792-5.4272L768 716.8z" p-id="3064" fill="#409EFF"></path></svg>