<?xml version="1.0" standalone="no"?><!DOCTYPE svg PUBLIC "-//W3C//DTD SVG 1.1//EN" "http://www.w3.org/Graphics/SVG/1.1/DTD/svg11.dtd"><svg t="1604657260072" class="icon" viewBox="0 0 1024 1024" version="1.1" xmlns="http://www.w3.org/2000/svg" p-id="35805" xmlns:xlink="http://www.w3.org/1999/xlink" width="128" height="128"><defs><style type="text/css"></style></defs><path d="M793.68076156 739.35983562c10.10613187 5.05306594 15.15826031 13.89452437 16.42105781 25.26345375 0 10.10519437-5.05306594 20.21038781-13.89452531 26.52531469-8.84239594 6.31586345-20.21038781 6.31586345-29.05278375 1.263735l-119.99859374-60.63116437c-10.10519437-5.05306594-16.42012031-15.15732281-16.42012032-26.52625219V568.83620938c0-16.42105781 13.89358688-30.31558219 30.31464469-30.31558313s30.31558219 13.89358688 30.31558219 30.31558313v118.73485781l102.31473843 51.78876843z m-589.88683687-320.83780312c-8.84239594 0-17.68479281 2.525595-23.99971875 8.84145937-5.05306594 5.05306594-8.84239594 13.89452437-8.84239688 21.47412376 0 8.84145844 2.525595 16.42012031 8.84145938 22.73598281 6.31586345 6.31586345 13.89452437 8.84239594 23.99971875 8.84239687h131.36658562c8.84239594 0 17.68479281-2.5265325 23.99971875-8.84239687 6.31586345-6.31586345 8.84239594-13.89358688 8.84239594-22.73598281s-2.5265325-16.42105781-8.84239594-21.47412376c-6.31492594-6.31586345-15.15732281-8.84145844-23.99971875-8.84145937H203.79298719z m0-151.57697344c-11.36892938 0-21.47412375 6.31492594-27.78998719 16.42012031-6.31586345 8.84239594-6.31586345 21.47412375 0 30.31558219 6.31586345 10.10613187 15.15732281 15.15826031 27.78904969 15.15826031h382.73270156c8.84145844 0 16.42105781-2.5265325 22.73598375-8.84239687 6.31586345-5.05306594 8.84239594-13.89452437 8.84239688-21.47318625 0-8.84239594-2.5265325-16.42105781-8.84239688-22.73692031s-13.89358688-8.84145844-22.73598375-8.84145938H203.79298719z m645.46493531 596.20270125c45.4738425-45.472905 68.20982531-101.05194094 69.47356125-166.73429625-1.263735-69.47262375-23.99971875-125.05165969-69.47356125-169.26176625-44.21010656-44.20916906-99.78820594-68.20888781-167.99803125-70.73542124-68.20982531 2.5265325-123.78792469 25.26251625-167.99803125 69.4726228s-68.20982531 99.78820594-69.47262281 167.99803125c2.5265325 68.20982531 25.26251625 122.52512625 70.73635781 167.99803125 44.21010656 44.21010656 99.78820594 66.94609031 167.99803125 69.47262375 66.94609031-1.2627975 122.52418875-23.99971875 166.73429625-68.20982531z m42.94637156-377.67963656c55.57903594 55.57809844 84.63182063 126.31445719 87.15835407 209.68160531-2.5265325 83.36808562-30.31651969 154.10444437-87.15835407 209.68254282-55.57716094 55.57809844-126.31351969 84.62994562-209.68066781 87.15647813-69.47356125-1.2627975-128.84098969-21.47318625-179.36695969-59.36742939H117.89930563c-34.10491313 0-60.63116438-27.78904969-60.63116438-61.89396187v-738.9382153c0-32.84211469 26.52625125-61.89489938 60.63116437-61.89490032h621.46615501c34.10585062 0 60.63116438 27.78904969 60.63116437 61.89396281v290.52315751c34.10491313 15.15732281 65.68329281 36.63144563 92.20954406 63.1567603z m0 0" p-id="35806" fill="#161616"></path></svg>