<?xml version="1.0" standalone="no"?><!DOCTYPE svg PUBLIC "-//W3C//DTD SVG 1.1//EN" "http://www.w3.org/Graphics/SVG/1.1/DTD/svg11.dtd"><svg t="1603678821862" class="icon" viewBox="0 0 1126 1024" version="1.1" xmlns="http://www.w3.org/2000/svg" p-id="16937" xmlns:xlink="http://www.w3.org/1999/xlink" width="140.75" height="128"><defs><style type="text/css"></style></defs><path d="M96.1024 351.3856a32.0512 32.0512 0 0 0 15.0528-3.4816l363.52-200.2944 143.5136 160.9216c10.3936 12.7488 30.1056 13.9264 42.8544 4.608l348.416-254.6688a32.768 32.768 0 0 0 6.9632-45.1072c-10.3936-15.0528-30.1056-17.408-45.1584-6.9632L647.168 243.712 506.9824 85.0944a32.0512 32.0512 0 0 0-39.3216-6.912l-386.6624 212.992c-15.0528 8.0896-20.8384 27.8016-12.7488 44.032 5.7856 9.216 16.2304 16.1792 27.8016 16.1792z m996.7104 578.816h-32.4096V368.7424a32.3584 32.3584 0 0 0-32.4096-32.4096 31.6416 31.6416 0 0 0-32.4096 32.4096v561.4592h-159.744v-354.2528a32.3584 32.3584 0 1 0-64.8192 0v354.2528h-159.744v-200.2944a32.3584 32.3584 0 0 0-32.4608-32.4096 31.6416 31.6416 0 0 0-32.4096 32.4096v200.2944H385.536V484.5056a32.3584 32.3584 0 0 0-32.4096-32.4096 31.6416 31.6416 0 0 0-32.4096 32.4096v445.696h-159.744v-258.1504a32.3584 32.3584 0 0 0-32.4096-32.4096 31.6416 31.6416 0 0 0-32.4096 32.4096v258.1504H32.4096a32.3584 32.3584 0 1 0 0 64.8192h1061.5808c17.408 0 32.4096-13.8752 32.4096-32.4096-1.1776-18.5344-15.0528-32.4096-33.5872-32.4096z" p-id="16938"></path></svg>