<?xml version="1.0" standalone="no"?><!DOCTYPE svg PUBLIC "-//W3C//DTD SVG 1.1//EN" "http://www.w3.org/Graphics/SVG/1.1/DTD/svg11.dtd"><svg t="1603522578728" class="icon" viewBox="0 0 1024 1024" version="1.1" xmlns="http://www.w3.org/2000/svg" p-id="3763" xmlns:xlink="http://www.w3.org/1999/xlink" width="128" height="128"><defs><style type="text/css"></style></defs><path d="M831.744 129.216c35.328 0 64 28.736 64 64v640a64 64 0 0 1-64 64H192.064c-35.264 0-64-28.672-64-64v-640c0-35.264 28.736-64 64-64h639.68m0-64H192.064c-70.4 0-128 57.6-128 128v640c0 70.4 57.6 128 128 128h639.68c70.4 0 128-57.6 128-128v-640c0-70.4-57.6-128-128-128z" p-id="3764" fill="#161616"></path><path d="M356.032 357.632a32.128 32.128 0 0 1-45.248 0L220.288 267.136c-12.416-12.416-12.416-32.832 0-45.248s32.832-12.416 45.248 0l90.496 90.496a32 32 0 0 1 0 45.248z" p-id="3765" fill="#161616"></path><path d="M483.712 221.888a32.128 32.128 0 0 1 0 45.248L393.216 357.632c-12.416 12.416-32.832 12.416-45.248 0s-12.416-32.832 0-45.248l90.496-90.496a32.128 32.128 0 0 1 45.248 0zM448 480c0 17.6-14.464 32-32 32h-128a32.064 32.064 0 0 1-32-32c0-17.6 14.4-32 32-32h128c17.536 0 32 14.4 32 32z" p-id="3766" fill="#161616"></path><path d="M448 352.064c0 17.6-14.4 32-32 32h-128a32.064 32.064 0 0 1-32-32c0-17.6 14.4-32 32-32h128c17.6 0 32 14.4 32 32z" p-id="3767" fill="#161616"></path><path d="M352 640a32.064 32.064 0 0 1-32-32v-256c0-17.6 14.4-32 32-32s32 14.4 32 32v256c0 17.6-14.4 32-32 32z" p-id="3768" fill="#161616"></path><path d="M255.936 704h128v128h-128zM447.936 576h128.256v256H447.936zM640 448h128v384h-128z" p-id="3769" fill="#161616"></path></svg>