<?xml version="1.0" standalone="no"?><!DOCTYPE svg PUBLIC "-//W3C//DTD SVG 1.1//EN" "http://www.w3.org/Graphics/SVG/1.1/DTD/svg11.dtd"><svg t="1603678973345" class="icon" viewBox="0 0 1024 1024" version="1.1" xmlns="http://www.w3.org/2000/svg" p-id="18543" xmlns:xlink="http://www.w3.org/1999/xlink" width="128" height="128"><defs><style type="text/css"></style></defs><path d="M912.52736 500.65408V191.2832a80.384 80.384 0 0 0-80.42496-80.34304H140.14464A80.384 80.384 0 0 0 59.74016 191.2832v427.47904a80.384 80.384 0 0 0 80.40448 80.03584h246.66112v89.94816H225.0752a29.98272 29.98272 0 1 0 0 59.94496h312.36096c97.77152 95.4368 253.3376 97.42336 353.4848 4.48512 100.16768-92.95872 109.6704-248.07424 21.6064-352.52224z m-792.7808 118.10816V191.2832a20.0704 20.0704 0 0 1 20.39808-20.39808H832.1024c11.20256 0.16384 20.25472 9.216 20.41856 20.39808V450.56a254.62784 254.62784 0 0 0-326.77888 50.0736l-57.01632-162.48832a49.50016 49.50016 0 0 0-83.41504-17.38752l-85.52448 91.7504H165.35552v59.94496h139.83744a48.9472 48.9472 0 0 0 36.31104-15.89248l76.20608-83.0464 66.92864 191.56992a253.41952 253.41952 0 0 0-20.41856 73.728H140.14464a20.6848 20.6848 0 0 1-20.39808-20.0704z m327.0656 170.88512v-89.94816h17.408a257.6384 257.6384 0 0 0 28.50816 89.94816h-45.91616z m273.08032 75.53024c-108.544 0-196.54656-87.90016-196.54656-196.34176 0-108.46208 87.98208-196.36224 196.54656-196.36224 108.544 0 196.54656 87.90016 196.54656 196.36224-0.18432 108.35968-88.064 196.1984-196.54656 196.34176z" p-id="18544" fill="#409EFF"></path><path d="M848.5888 656.03584h-105.2672V550.912a30.3104 30.3104 0 1 0-60.66176 0v127.30368c0 10.24 4.56704 19.90656 12.45184 26.4192 6.41024 7.7824 15.99488 12.26752 26.07104 12.16512h127.40608a30.4128 30.4128 0 0 0 0-60.76416z" p-id="18545" fill="#409EFF"></path></svg>