<?xml version="1.0" standalone="no"?><!DOCTYPE svg PUBLIC "-//W3C//DTD SVG 1.1//EN" "http://www.w3.org/Graphics/SVG/1.1/DTD/svg11.dtd"><svg t="1603522613715" class="icon" viewBox="0 0 1024 1024" version="1.1" xmlns="http://www.w3.org/2000/svg" p-id="5330" xmlns:xlink="http://www.w3.org/1999/xlink" width="128" height="128"><defs><style type="text/css"></style></defs><path d="M221.866667 392.533333h179.2c21.333333 0 29.866667 8.533333 29.866666 29.866667s-8.533333 29.866667-29.866666 29.866667H221.866667c-21.333333 0-29.866667-8.533333-29.866667-29.866667s12.8-29.866667 29.866667-29.866667zM221.866667 507.733333h179.2c21.333333 0 29.866667 8.533333 29.866666 29.866667s-8.533333 29.866667-29.866666 29.866667H221.866667c-21.333333 0-29.866667-8.533333-29.866667-29.866667 0-17.066667 12.8-29.866667 29.866667-29.866667z" p-id="5331" fill="#161616"></path><path d="M738.133333 891.733333c0 17.066667-12.8 29.866667-29.866666 29.866667H166.4c-17.066667 0-29.866667-12.8-29.866667-29.866667V302.933333c0-17.066667 12.8-29.866667 29.866667-29.866666h379.733333l42.666667-59.733334H166.4C115.2 213.333333 76.8 256 76.8 302.933333v588.8c0 46.933333 38.4 89.6 89.6 89.6h541.866667c46.933333 0 89.6-38.4 89.6-89.6V409.6l-59.733334 76.8v405.333333zM238.933333 179.2c0-17.066667 12.8-29.866667 29.866667-29.866667H640l42.666667-59.733333H268.8c-46.933333 0-89.6 38.4-89.6 89.6V213.333333h59.733333v-34.133333z" p-id="5332" fill="#161616"></path><path d="M849.066667 341.333333v426.666667c0 17.066667-12.8 29.866667-29.866667 29.866667h-21.333333v59.733333h21.333333c46.933333 0 89.6-38.4 89.6-89.6V264.533333L849.066667 341.333333zM192 780.8l140.8-110.933333c17.066667-12.8 29.866667-8.533333 42.666667 4.266666 12.8 17.066667 8.533333 29.866667-4.266667 42.666667l-140.8 110.933333c-17.066667 12.8-29.866667 8.533333-42.666667-4.266666-12.8-17.066667-12.8-29.866667 4.266667-42.666667z" p-id="5333" fill="#161616"></path><path d="M366.933333 674.133333l140.8 110.933334c17.066667 12.8 17.066667 25.6 4.266667 42.666666-12.8 17.066667-25.6 17.066667-42.666667 4.266667l-140.8-110.933333c-17.066667-12.8-17.066667-25.6-4.266666-42.666667 12.8-17.066667 25.6-17.066667 42.666666-4.266667z" p-id="5334" fill="#161616"></path><path d="M469.333333 780.8l166.4-132.266667c17.066667-12.8 29.866667-8.533333 42.666667 4.266667 12.8 17.066667 8.533333 29.866667-4.266667 42.666667l-166.4 132.266666c-17.066667 12.8-29.866667 8.533333-42.666666-4.266666-12.8-17.066667-8.533333-29.866667 4.266666-42.666667z" p-id="5335" fill="#161616"></path><path d="M516.266667 605.866667l145.066666 38.4c17.066667 4.266667 25.6 17.066667 21.333334 34.133333-4.266667 17.066667-17.066667 25.6-34.133334 21.333333l-145.066666-38.4c-17.066667-4.266667-25.6-17.066667-21.333334-34.133333 4.266667-17.066667 17.066667-25.6 34.133334-21.333333zM802.133333 106.666667l81.066667 68.266666-221.866667 260.266667-81.066666 12.8V366.933333l221.866666-260.266666M797.866667 42.666667c-8.533333 0-21.333333 4.266667-29.866667 12.8l-238.933333 281.6c-4.266667 4.266667-8.533333 12.8-8.533334 21.333333v123.733333c0 17.066667 17.066667 34.133333 34.133334 34.133334h4.266666l119.466667-17.066667c8.533333 0 17.066667-4.266667 21.333333-12.8L938.666667 200.533333c12.8-21.333333 8.533333-55.466667-17.066667-68.266666l-85.333333-72.533334c-8.533333-8.533333-21.333333-17.066667-38.4-17.066666z" p-id="5336" fill="#161616"></path></svg>