<?xml version="1.0" standalone="no"?><!DOCTYPE svg PUBLIC "-//W3C//DTD SVG 1.1//EN" "http://www.w3.org/Graphics/SVG/1.1/DTD/svg11.dtd"><svg t="1603705087702" class="icon" viewBox="0 0 1050 1024" version="1.1" xmlns="http://www.w3.org/2000/svg" p-id="25482" xmlns:xlink="http://www.w3.org/1999/xlink" width="131.25" height="128"><defs><style type="text/css"></style></defs><path d="M1050.25641 0v893.636923a105.025641 105.025641 0 0 1-144.882872 97.174974L538.25641 840.205128 143.202462 994.382769A105.025641 105.025641 0 0 1 0 896.525128V0h1050.25641zM678.990769 322.953846H369.690256v347.109744h38.859488v-23.105641h249.961025v20.48h39.384616V506.748718H408.549744v-50.412308h270.441025V322.953846z m-20.48 218.453333v70.36718h-249.961025v-70.36718h249.961025z m-17.854359-184.32v65.115898h-232.106666V357.087179h232.106666z m-103.975384-169.091282l-38.859488 8.92718c6.826667 13.128205 13.128205 29.932308 17.854359 44.110769h-211.626666v92.947692h38.334359v-56.188717h363.388718v56.188717h40.434871V241.033846h-186.420512c-5.251282-15.753846-14.178462-36.758974-23.105641-53.037949z" fill="#f78989" p-id="25483" data-spm-anchor-id="a313x.7781069.0.i22" class=""></path></svg>