<?xml version="1.0" standalone="no"?><!DOCTYPE svg PUBLIC "-//W3C//DTD SVG 1.1//EN" "http://www.w3.org/Graphics/SVG/1.1/DTD/svg11.dtd"><svg t="1604132194066" class="icon" viewBox="0 0 1024 1024" version="1.1" xmlns="http://www.w3.org/2000/svg" p-id="4716" xmlns:xlink="http://www.w3.org/1999/xlink" width="128" height="128"><defs><style type="text/css"></style></defs><path d="M848.212 185.336h-10.379v-12.593c0-62.413-51.065-113.34-113.339-113.34H299.368c-62.413 0-113.34 51.066-113.34 113.34v12.593H175.65c-28.23 0-51.203 22.973-51.203 51.204v264.32c0 28.23 22.972 51.203 51.203 51.203h10.38v300.855c0 62.412 51.064 113.339 113.339 113.339h425.126c62.413 0 113.34-51.065 113.34-113.34V552.064h10.378c28.232 0 51.204-22.972 51.204-51.203V236.54c0-28.231-22.834-51.204-51.204-51.204z m-605.445-12.593c0-31.137 25.463-56.739 56.739-56.739h425.126c31.138 0 56.74 25.463 56.74 56.739v12.593H242.766v-12.593z m538.466 680.175c0 31.137-25.463 56.739-56.739 56.739H299.368c-31.138 0-56.74-25.464-56.74-56.74v-84.97h538.467v84.97z m0-141.71H242.767V552.064h538.466V711.21z m62.828-214.5H179.8V240.691h664.26v256.017z" p-id="4717"></path><path d="M511.93 881.287c22.696 0 42.486-19.79 42.486-42.485s-19.79-42.485-42.485-42.485-42.485 19.79-42.485 42.485 19.928 42.485 42.485 42.485zM241.799 474.981h0.277c10.656 0 20.205-6.504 23.941-16.468l6.504-17.021h74.868l6.781 17.16c3.875 9.825 13.424 16.33 23.941 16.33 18.267 0 30.722-18.406 23.803-35.29L339.223 284.7c-4.705-11.763-16.191-19.513-28.923-19.513-12.593 0-24.08 7.611-28.923 19.374l-63.52 154.994c-6.78 16.883 5.674 35.427 23.941 35.427z m68.087-130.637l20.62 53.555h-41.378l20.758-53.555zM484.807 474.98a25.396 25.396 0 0 0 25.463-25.463v-41.516h21.312c44.56 0 76.667-31.83 76.667-71.131s-31.83-71.685-73.761-71.685h-49.681a25.396 25.396 0 0 0-25.463 25.463v158.869c0 13.977 11.486 25.463 25.463 25.463z m25.602-158.869h21.311c18.683 0 25.602 11.348 25.602 22.696 0 13.977-8.995 25.878-28.231 25.878h-18.682v-48.574z m170.908 158.87a25.396 25.396 0 0 0 25.463-25.464v-41.516h21.312c44.56 0 76.667-31.83 76.667-71.131s-31.83-71.685-73.76-71.685h-49.682a25.396 25.396 0 0 0-25.463 25.463v158.869c-0.139 13.977 11.348 25.463 25.463 25.463z m25.463-158.87h21.312c18.682 0 25.602 11.348 25.602 22.696 0 13.977-8.995 25.878-28.231 25.878H706.78v-48.574z" p-id="4718"></path></svg>