<?xml version="1.0" standalone="no"?><!DOCTYPE svg PUBLIC "-//W3C//DTD SVG 1.1//EN" "http://www.w3.org/Graphics/SVG/1.1/DTD/svg11.dtd"><svg t="1604405487423" class="icon" viewBox="0 0 1024 1024" version="1.1" xmlns="http://www.w3.org/2000/svg" p-id="11372" xmlns:xlink="http://www.w3.org/1999/xlink" width="128" height="128"><defs><style type="text/css"></style></defs><path d="M541.910281 125.924615c-15.418946-7.578262-31.867194-6.06209-45.124006 4.166575-48.415374 37.360669-175.828588 149.924751-197.249465 168.889293L136.83792 298.980483c-39.641923 0-71.891657 32.250934-71.891657 71.891657l0 258.56969c0 39.641923 32.250734 71.893856 71.891657 71.893856l139.474836 0c28.732319 25.892645 166.384391 149.628352 220.239877 192.296223 7.71457 6.107459 16.556175 9.204759 25.671395 9.204759 6.402459 0 12.937828-1.527764 19.315304-4.612673 23.036981-11.144444 41.780273-43.134355 41.780273-71.310452L583.319605 196.992231C583.319405 169.027192 564.743 137.146207 541.910281 125.924615zM535.389902 826.914744c0 9.730203-7.333228 21.913343-12.376009 26.517821-60.444219-48.528897-218.06735-190.81163-219.682455-192.270041-0.010193-0.010193-0.022785-0.016988-0.032978-0.026182-4.377632-4.740786-10.626995-7.72816-17.589075-7.72816L136.83792 653.408181c-13.213641 0-23.964152-10.750711-23.964152-23.964152L112.873768 370.87314c0-13.213641 10.750711-23.964152 23.964152-23.964152l166.999574 0c4.828326 0 9.316084-1.441423 13.077334-3.897557 4.14499-0.766081 8.144678-2.607032 11.528184-5.607998 1.436826-1.273537 141.40093-125.328227 194.518516-166.953006 5.017798 4.482161 12.426975 16.727459 12.426975 26.541805l0 629.922513L535.389902 826.914744zM807.284357 514.313687c-6.172015-94.959218-76.849296-156.078579-79.854659-158.633447-10.080965-8.571389-25.20591-7.349017-33.779697 2.735345-8.572588 10.083363-7.349217 25.20711 2.735345 33.779697 0.581006 0.494864 58.201339 50.300696 63.071637 125.227296 3.235806 49.772854-17.781944 100.004197-62.466648 149.299175-8.887974 9.806351-8.145877 24.960877 1.660474 33.85005 4.588689 4.15858 10.346585 6.20959 16.087293 6.20959 6.528574 0 13.033164-2.652402 17.762757-7.870064C786.23243 639.636319 811.392972 577.528228 807.284357 514.313687zM936.658841 398.589748c-36.816838-103.621545-105.939173-166.250482-108.862791-168.865509-9.865311-8.821219-25.01424-7.977791-33.837458 1.888719-8.822219 9.865311-7.976792 25.01524 1.88752 33.837658 0.625376 0.559621 62.884364 56.964178 95.650349 149.185852 19.072469 53.675008 24.267347 108.661927 15.44273 163.43679-11.160433 69.275431-44.938931 138.877841-100.396931 206.875339-8.364929 10.255847-6.831568 25.352411 3.425278 33.71714 4.449183 3.627541 9.806351 5.393543 15.131741 5.393543 6.951887 0 13.848011-3.011158 18.585599-8.819021 60.852742-74.611014 98.055518-151.841651 110.573431-229.544569C964.376449 522.886275 958.455263 459.934956 936.658841 398.589748z" p-id="11373" fill="#161616"></path></svg>