<?xml version="1.0" standalone="no"?><!DOCTYPE svg PUBLIC "-//W3C//DTD SVG 1.1//EN" "http://www.w3.org/Graphics/SVG/1.1/DTD/svg11.dtd"><svg t="1603963744202" class="icon" viewBox="0 0 1024 1024" version="1.1" xmlns="http://www.w3.org/2000/svg" p-id="23309" xmlns:xlink="http://www.w3.org/1999/xlink" width="128" height="128"><defs><style type="text/css"></style></defs><path d="M448.768 550.784c13.226667 0 23.936 10.709333 23.936 23.893333v373.674667c0 13.226667-10.666667 23.893333-23.893333 23.893333H75.093333a23.936 23.936 0 0 1-23.936-23.893333V574.72c0-13.226667 10.709333-23.936 23.936-23.936h373.632z m482.944 0c13.226667 0 23.893333 10.709333 23.893333 23.893333v373.674667c0 13.226667-10.666667 23.893333-23.893333 23.893333h-373.674667a23.936 23.936 0 0 1-23.936-23.893333V574.72c0-13.226667 10.709333-23.936 23.893334-23.936h373.717333z m-530.773333 71.808H122.965333v277.888h277.888v-277.888z m482.901333 0H605.866667v277.888h277.930666v-277.888zM752.170667 51.2a227.413333 227.413333 0 1 1 0 454.826667 227.413333 227.413333 0 0 1 0-454.826667z m-303.36 16.64c13.226667 0 23.893333 10.752 23.893333 23.978667v373.589333c0 13.226667-10.666667 23.936-23.893333 23.936H75.093333a23.936 23.936 0 0 1-23.936-23.893333V91.776c0-13.226667 10.709333-23.978667 23.936-23.978667h373.632z m303.36 55.168a155.605333 155.605333 0 1 0 0 311.210667 155.605333 155.605333 0 0 0 0-311.210667z m-351.274667 16.64H123.008v277.888h277.888V139.690667z" p-id="23310"></path></svg>