<?xml version="1.0" standalone="no"?><!DOCTYPE svg PUBLIC "-//W3C//DTD SVG 1.1//EN" "http://www.w3.org/Graphics/SVG/1.1/DTD/svg11.dtd"><svg t="1603780931975" class="icon" viewBox="0 0 1024 1024" version="1.1" xmlns="http://www.w3.org/2000/svg" p-id="6090" xmlns:xlink="http://www.w3.org/1999/xlink" width="128" height="128"><defs><style type="text/css"></style></defs><path d="M737.001 205.182h-531.818c-11.25 0-20.454 9.204-20.454 20.454s9.204 20.454 20.454 20.454h531.818c11.25 0 20.454-9.204 20.454-20.454s-9.204-20.454-20.454-20.454zM737.001 777.909h-531.818c-11.25 0-20.454 9.204-20.454 20.454s9.204 20.454 20.454 20.454h531.818c11.25 0 20.454-9.204 20.454-20.454s-9.204-20.454-20.454-20.454zM818.818 491.546h-531.818c-11.25 0-20.454 9.204-20.454 20.454s9.204 20.454 20.454 20.454h531.818c11.25 0 20.454-9.204 20.454-20.454s-9.204-20.454-20.454-20.454z" fill="#161616" p-id="6091"></path><path d="M839.273 389.273h-777.273v40.909c45.001 0 81.818 36.818 81.818 81.818s-36.818 81.818-81.818 81.818v40.909h777.273c67.5 0 122.727-55.227 122.727-122.727s-55.227-122.727-122.727-122.727zM839.273 593.818h-686.25c19.433-21.477 31.705-50.113 31.705-81.818s-12.273-60.341-31.705-81.818h686.25c45.001 0 81.818 36.818 81.818 81.818s-36.818 81.818-81.818 81.818zM962 143.818v-40.909h-777.273c-67.5 0-122.727 55.227-122.727 122.727s55.227 122.727 122.727 122.727h777.273v-40.909c-45.001 0-81.818-36.818-81.818-81.818s36.818-81.818 81.818-81.818zM184.727 307.454c-45.001 0-81.818-36.818-81.818-81.818s36.818-81.818 81.818-81.818h686.25c-19.433 21.477-31.705 50.113-31.705 81.818s12.273 60.341 31.705 81.818h-686.25zM62 798.363c0 67.5 55.227 122.727 122.727 122.727h777.273v-40.909c-45.001 0-81.818-36.818-81.818-81.818s36.818-81.818 81.818-81.818v-40.909h-777.273c-67.5 0-122.727 55.227-122.727 122.727zM870.977 880.182h-686.25c-45.001 0-81.818-36.818-81.818-81.818s36.818-81.818 81.818-81.818h686.25c-19.433 21.477-31.705 50.113-31.705 81.818s12.273 60.341 31.705 81.818z" fill="#161616" p-id="6092"></path></svg>