<?xml version="1.0" standalone="no"?><!DOCTYPE svg PUBLIC "-//W3C//DTD SVG 1.1//EN" "http://www.w3.org/Graphics/SVG/1.1/DTD/svg11.dtd"><svg t="1603871300612" class="icon" viewBox="0 0 1024 1024" version="1.1" xmlns="http://www.w3.org/2000/svg" p-id="8212" xmlns:xlink="http://www.w3.org/1999/xlink" width="128" height="128"><defs><style type="text/css"></style></defs><path d="M865.28 404.48c-51.2-81.92-40.96-143.36-40.96-143.36 0-10.24 0-25.6-10.24-30.72-10.24-5.12-20.48-10.24-30.72-5.12-5.12 0-66.56 30.72-92.16 117.76-5.12 20.48-10.24 46.08-15.36 66.56-10.24-15.36-15.36-30.72-25.6-46.08C583.68 220.16 614.4 46.08 614.4 46.08c0-10.24 0-20.48-10.24-30.72-10.24-5.12-20.48-10.24-30.72-5.12-10.24 0-199.68 61.44-245.76 307.2-15.36 87.04-5.12 174.08 5.12 235.52-20.48-15.36-35.84-30.72-56.32-61.44-20.48-40.96-40.96-117.76-40.96-117.76-5.12-10.24-15.36-20.48-25.6-20.48-15.36 0-25.6 5.12-30.72 15.36-5.12 5.12-76.8 133.12-76.8 256 0 225.28 168.96 389.12 404.48 389.12 240.64 0 414.72-163.84 414.72-389.12 0-92.16-15.36-143.36-56.32-220.16z m-302.08 358.4c-92.16 15.36-153.6-87.04-153.6-189.44s35.84-189.44 81.92-281.6c0 179.2 148.48 194.56 174.08 281.6 25.6 81.92 0 174.08-102.4 189.44z" p-id="8213"></path></svg>