<?xml version="1.0" standalone="no"?><!DOCTYPE svg PUBLIC "-//W3C//DTD SVG 1.1//EN" "http://www.w3.org/Graphics/SVG/1.1/DTD/svg11.dtd"><svg t="1614327467088" class="icon" viewBox="0 0 1024 1024" version="1.1" xmlns="http://www.w3.org/2000/svg" p-id="17503" xmlns:xlink="http://www.w3.org/1999/xlink" width="128" height="128"><defs><style type="text/css"></style></defs><path d="M234.496 68.7104c9.762133 0 17.3056 7.099733 17.3056 15.9744v11.0592h132.983467v-11.0592c0-8.874667 7.9872-15.9744 17.271466-15.9744h27.477334c9.762133 0 17.3056 7.099733 17.3056 15.9744v76.219733c0 8.874667-7.9872 15.9744-17.3056 15.9744h-27.477334c-9.728 0-17.271467-7.099733-17.271466-15.9744v-7.099733h-27.477334v106.3936c0 19.968 9.284267 39.0144 26.146134 51.882667l43.4176 34.133333c13.312 10.6496 30.6176 16.384 47.889066 16.384h73.147734c17.271467 0 34.577067-5.7344 47.889066-15.940267l44.305067-34.133333c16.861867-12.868267 26.146133-31.914667 26.146133-51.882667V154.282667h-27.477333v7.099733c0 8.874667-7.9872 15.9744-17.271467 15.9744h-27.477333c-9.762133 0-17.3056-7.099733-17.3056-15.9744V85.128533c0-8.874667 7.9872-15.9744 17.3056-15.9744h27.477333c9.728 0 17.271467 7.099733 17.271467 15.9744v11.0592h132.983467v-11.0592c0-8.874667 7.9872-15.9744 17.3056-15.9744h27.477333c9.762133 0 17.3056 7.099733 17.3056 15.9744v76.219734c0 8.874667-7.9872 15.9744-17.3056 15.9744h-27.477333c-9.762133 0-17.3056-7.099733-17.3056-15.9744V154.282667h-27.477334v106.3936c0 41.233067-19.490133 79.803733-53.623466 106.3936l-44.3392 34.133333a170.222933 170.222933 0 0 1-22.186667 14.199467v504.456533c0 19.933867-17.271467 35.908267-38.980267 35.908267-21.7088 0-39.0144-15.9744-39.0144-35.908267V690.858667a30.8224 30.8224 0 0 0-61.610666 0v228.522666c0 19.933867-17.3056 35.908267-39.0144 35.908267s-39.0144-15.9744-39.0144-35.908267V418.474667a160.221867 160.221867 0 0 1-30.139734-18.193067l-43.451733-34.133333c-34.133333-26.589867-53.623467-65.160533-53.623467-106.3936V153.3952h-27.477333V160.426667c0 8.874667-7.9872 15.9744-17.3056 15.9744h-27.477333c-9.762133 0-17.3056-7.099733-17.3056-15.9744V84.241067c0-8.874667 7.9872-15.9744 17.3056-15.9744h27.477333v0.443733zM512 169.335467a80.6912 80.6912 0 0 1 0 161.348266 80.418133 80.418133 0 0 1-80.6912-80.657066A80.964267 80.964267 0 0 1 512 169.301333z" p-id="17504" fill="#ffffff"></path></svg>