<?xml version="1.0" standalone="no"?><!DOCTYPE svg PUBLIC "-//W3C//DTD SVG 1.1//EN" "http://www.w3.org/Graphics/SVG/1.1/DTD/svg11.dtd"><svg t="1614327577371" class="icon" viewBox="0 0 1024 1024" version="1.1" xmlns="http://www.w3.org/2000/svg" p-id="18095" xmlns:xlink="http://www.w3.org/1999/xlink" width="128" height="128"><defs><style type="text/css"></style></defs><path d="M607.061333 217.156267h0.341334c11.264-0.136533 22.528 3.9936 31.095466 12.561066l217.565867 217.565867c15.872 15.872 18.432 41.642667 4.130133 58.9824a43.008 43.008 0 0 1-63.658666 3.140267L623.957333 336.827733l-19.3536 67.310934a189.201067 189.201067 0 0 0 0 104.6528c12.834133 44.612267 19.3536 90.794667 19.3536 137.216v300.8512a43.008 43.008 0 0 1-47.240533 42.8032c-22.357333-2.116267-38.8096-22.186667-38.8096-44.680534v-317.3376a25.8048 25.8048 0 1 0-51.6096 0v319.214934a43.008 43.008 0 0 1-47.240533 42.8032c-22.357333-2.116267-38.775467-22.186667-38.775467-44.680534v-299.008c0-46.3872 6.485333-92.5696 19.3536-137.181866a189.269333 189.269333 0 0 0 0-104.6528l-19.3536-67.310934-172.612267 172.578134a43.008 43.008 0 0 1-63.658666-3.140267c-14.336-17.3056-11.741867-43.1104 4.164266-58.9824L385.706667 229.717333c8.567467-8.567467 19.8656-12.6976 31.095466-12.526933l0.682667-0.068267h189.576533z m-252.381866 207.633066l49.5616 3.2768c6.382933 0.3072 11.298133 2.8672 10.990933 5.7344l-3.072 29.9008c-0.2048 2.321067-6.5536 3.140267-10.001067 1.365334l-16.1792-8.430934c-25.770667 14.9504-25.975467 23.074133-25.1904 25.463467 2.491733 7.68 25.8048 13.789867 40.7552 15.530667 7.236267 0.8192 12.151467 5.563733 10.922667 10.581333-1.160533 4.983467-7.953067 8.362667-15.189333 7.5776-5.597867-0.648533-54.8864-6.826667-62.3616-29.5936-4.164267-12.629333 5.597867-26.112 29.422933-40.8576 0 0-13.141333-13.994667-14.199467-16.384-1.024-2.389333-0.6144-4.437333 4.539734-4.164267z m273.988266 0l2.9696 0.068267c5.4272 0.648533 53.248 6.826667 60.484267 29.5936 4.027733 12.629333-5.461333 26.112-28.535467 40.8576l13.892267 15.872c1.194667 2.56 0.580267 4.437333-4.369067 4.1984l-48.2304-2.798933c-6.144-0.3072-10.922667-2.8672-10.6496-5.7344l2.9696-29.9008c0.238933-2.321067 6.3488-3.140267 9.728-1.365334l15.6672 8.430934c24.9856-14.9504 25.1904-23.074133 24.439467-25.463467-2.423467-7.68-25.019733-13.789867-39.5264-15.530667-6.997333-0.8192-11.776-5.563733-10.581333-10.581333 1.1264-4.983467 7.714133-8.362667 14.677333-7.5776zM512.1024 34.133333a79.633067 79.633067 0 1 1 0 159.232 79.633067 79.633067 0 0 1 0-159.232z" p-id="18096" fill="#7C87F8"></path></svg>