<?xml version="1.0" standalone="no"?><!DOCTYPE svg PUBLIC "-//W3C//DTD SVG 1.1//EN" "http://www.w3.org/Graphics/SVG/1.1/DTD/svg11.dtd"><svg t="1618198600474" class="icon" viewBox="0 0 1024 1024" version="1.1" xmlns="http://www.w3.org/2000/svg" p-id="44510" xmlns:xlink="http://www.w3.org/1999/xlink" width="256" height="256"><defs><style type="text/css"></style></defs><path d="M494.455467 334.9504h8.8064l103.185066 0.034133h0.546134c12.356267-0.512 24.746667 5.051733 32.1536 16.110934l72.704 108.4416 52.974933 22.4256a36.4544 36.4544 0 0 1-28.398933 67.140266l-63.010134-26.624a36.420267 36.420267 0 0 1-16.042666-13.312l-50.3808-75.093333v519.338667c0 21.2992-18.295467 38.365867-40.0384 36.283733-18.944-1.809067-32.8704-18.807467-32.8704-37.853867v-268.970666a21.845333 21.845333 0 0 0-43.758934 0v226.781866c0 21.333333-18.295467 38.365867-40.0384 36.283734-18.944-1.809067-32.8704-18.773333-32.8704-37.853867v-474.112l-50.449066 75.195733c-3.959467 5.905067-9.557333 10.513067-16.042667 13.312l-63.010133 26.624a36.4544 36.4544 0 0 1-28.433067-67.140266l52.974933-22.4256 72.704-108.4416c7.441067-11.0592 19.8656-16.622933 32.256-15.9744v-0.2048zM512.2048 34.133333c150.4256 0 272.7936 122.368 272.7936 272.7936v136.328534a18.2272 18.2272 0 1 1-36.4544 0V306.926933a236.612267 236.612267 0 0 0-236.3392-236.3392 236.612267 236.612267 0 0 0-236.3392 236.3392v136.328534a18.2272 18.2272 0 1 1-36.4544 0V306.926933C239.4112 156.501333 361.7792 34.133333 512.2048 34.133333z m0 145.7152a67.4816 67.4816 0 1 1 0 134.9632 67.4816 67.4816 0 0 1 0-134.9632z" p-id="44511" fill="#FF8D3F"></path></svg>