<?xml version="1.0" standalone="no"?><!DOCTYPE svg PUBLIC "-//W3C//DTD SVG 1.1//EN" "http://www.w3.org/Graphics/SVG/1.1/DTD/svg11.dtd"><svg t="1614327664671" class="icon" viewBox="0 0 1024 1024" version="1.1" xmlns="http://www.w3.org/2000/svg" p-id="18731" xmlns:xlink="http://www.w3.org/1999/xlink" width="128" height="128"><defs><style type="text/css"></style></defs><path d="M728.746667 817.220267c-4.061867 7.4752-7.168 16.213333-13.4144 22.6304-10.6496 10.922667-27.5456 16.452267-40.311467 14.5408-7.031467-1.024-39.936-1.4336-82.602667-1.501867h-28.5696c-16.827733 0-34.474667 0.068267-52.155733 0.170667l-17.681067 0.1024c-67.584 0.375467-131.822933 1.024-148.002133 1.194666l-3.106133 0.034134h-0.682667c-6.826667 0-36.5568 0-51.541333-34.474667l-1.365334-2.6624 439.466667-0.034133zM142.336 624.64l735.675733 0.068267 1.501867-3.515734c-21.2992 51.950933-43.588267 92.672-67.925333 120.081067-34.816 39.1168-66.286933 56.1152-77.175467 67.7888L282.282667 809.0624c-11.502933-9.796267-31.6416-17.988267-60.074667-48.9472-36.5568-39.799467-62.532267-98.2016-79.872-135.441067z m744.789333-286.651733l-0.546133-1.297067c22.254933 49.493333 49.2544 140.458667-3.549867 275.729067l-745.8816 0.068266c-17.442133-47.172267-44.509867-185.480533-4.8128-274.500266H887.125333z m-509.952 17.032533c-61.1328 0-110.933333 52.872533-110.933333 117.725867 0 64.955733 49.800533 117.828267 110.933333 117.828266 61.098667 0 110.865067-52.906667 110.865067-117.828266 0-64.853333-49.7664-117.725867-110.830933-117.725867z m306.517334 159.5392h-4.1984c-0.7168 0.580267-0.7168 1.1264 0 1.706667h3.8912c1.1264 0 1.501867 0.375467 1.1264 1.1264a37.102933 37.102933 0 0 1-4.7104 7.099733c-1.1264 2.2528-0.477867 3.413333 1.9456 3.413333h1.6384c0.9216 0 1.297067 0.443733 1.1264 1.365334a20.48 20.48 0 0 1-1.365334 8.533333 28.808533 28.808533 0 0 1-3.072-7.645867c-0.750933-0.785067-1.297067-0.682667-1.672533 0.273067 1.092267 3.959467 2.389333 6.997333 3.8912 9.079467a19.6608 19.6608 0 0 1-3.8912 3.959466c-0.341333 1.1264-0.1024 1.706667 0.8192 1.706667a14.882133 14.882133 0 0 0 4.164267-4.266667 13.994667 13.994667 0 0 0 11.127466 3.959467h9.966934c0.9216-0.546133 0.9216-1.1264 0-1.706667h-9.966934c-4.437333 0.2048-7.850667-1.1264-10.274133-3.959466a25.634133 25.634133 0 0 0 1.9456-10.171734c0-1.911467-0.853333-2.8672-2.525867-2.8672l-2.321066 0.034134c-0.477867-0.1024-0.443733-0.580267 0.1024-1.4336a31.061333 31.061333 0 0 0 4.744533-7.0656c0.9216-1.911467 0.068267-2.935467-2.525867-3.140267z m-114.517334 8.2944h-22.766933c-0.750933 0.580267-0.750933 1.194667 0 1.774933h8.942933a35.9424 35.9424 0 0 1-6.929066 13.073067c-0.750933 1.570133-0.546133 2.389333 0.580266 2.389333l17.885867-1.2288 1.1264 3.2768c0.955733 0.6144 1.536 0.375467 1.7408-0.580266a106.837333 106.837333 0 0 0-6.3488-13.653334c-0.750933-0.4096-1.2288 0-1.4336 1.160534 0.955733 1.399467 2.321067 4.096 4.027733 8.021333l-15.530666 0.887467c2.491733-2.9696 4.778667-7.406933 6.894933-13.312h11.810133c0.785067-0.6144 0.785067-1.2288 0-1.809067zM695.876267 512c-0.546133-0.750933-1.092267-0.750933-1.672534 0v2.286933h-5.5296c-0.750933 0.580267-0.750933 1.1264 0 1.706667h5.5296v3.6864h-7.4752c-0.750933 0.546133-0.750933 1.1264 0 1.706667h7.509334v3.652266h-6.144c-0.7168 0.580267-0.7168 1.1264 0 1.706667h6.144v3.413333h-5.8368c-0.750933 0.546133-0.750933 1.1264 0 1.706667h5.802666v3.959467h-6.929066c-0.9216 0.546133-0.9216 1.1264 0 1.706666h6.929066v4.232534c0.580267 0.955733 1.1264 0.955733 1.706667 0v-4.266667h7.748267c0.9216-0.546133 0.9216-1.1264 0-1.706667h-7.7824v-3.925333h6.109866c0.9216-0.580267 0.9216-1.160533 0-1.706667h-6.109866v-3.413333h3.618133c2.218667 0.2048 3.242667-0.853333 3.072-3.106133v-2.286934h2.184533c0.750933-0.546133 0.750933-1.1264 0-1.706666h-2.218666v-2.525867c0.2048-1.877333-0.9216-2.833067-3.310934-2.833067h-3.345066z m-314.845867-99.703467c-0.7168 2.389333-1.570133 4.8128-2.286933 7.236267-10.581333 33.518933-22.254933 66.730667-32.904534 100.2496-4.130133 13.175467-7.9872 16.145067-25.668266 16.145067h-13.550934l33.723734-103.3216H294.0928c0-4.7104 4.027733-20.309333 25.361067-20.309334h61.576533z m58.368 54.0672l-16.964267 46.830934a33.8944 33.8944 0 0 1-31.163733 21.2992l-12.526933 0.238933h-2.286934l2.286934-6.382933 14.165333-39.662934c7.0656-19.592533 25.4976-23.108267 46.4896-22.3232z m191.044267-51.0976h-35.601067l-5.7344 39.662934-0.1024 0.785066v0.853334l0.1024 0.785066 0.238933 0.682667 0.341334 0.512 0.4096 0.546133 0.512 0.443734 0.682666 0.443733 0.750934 0.238933 0.750933 0.1024 0.648533-0.1024 0.648534-0.238933 0.750933-0.341333 1.194667-1.194667 0.512-0.785067 0.546133-0.750933 1.297067-1.536 0.682666-0.682667 0.7168-0.648533 1.501867-1.092267 0.887467-0.546133 1.058133-0.546133 1.092267-0.443734 1.092266-0.443733 1.058134-0.341333 1.194666-0.2048 1.194667-0.2048 1.297067-0.136534h2.2528l1.092266 0.136534 1.058134 0.1024 0.989866 0.2048 0.955734 0.238933 0.989866 0.2048 0.853334 0.341333 1.706666 0.887467 0.887467 0.4096 0.750933 0.546133 0.853334 0.580267 0.750933 0.648533 0.682667 0.785067 0.7168 0.648533 0.682666 0.887467 0.512 0.648533 0.546134 0.887467 0.546133 0.750933 0.4096 0.785067 0.887467 1.7408 0.341333 0.887467 0.3072 0.989866 0.2048 0.887467 0.341333 0.989867 0.1024 0.989866 0.2048 0.989867 0.1024 1.092267 0.1024 0.989866 0.1024 1.092267v2.184533l-0.1024 1.024-0.1024 1.092267-0.1024 0.989867-0.2048 0.989866-0.443733 1.979734-0.341333 0.853333-0.3072 0.887467-0.443734 0.887466-0.341333 0.887467-0.512 0.853333-0.443733 0.887467-0.512 0.785067-0.546134 0.750933-0.682666 0.785067-0.6144 0.853333-0.750934 0.682667-0.750933 0.750933-0.750933 0.546133-0.887467 0.682667-0.750933 0.546133-0.853334 0.443734-0.989866 0.443733-0.853334 0.443733-0.955733 0.341334-0.989867 0.2048-0.955733 0.2048-0.989867 0.2048-1.058133 0.136533-1.092267 0.1024h-1.092266l-3.413334-0.238933-1.6384-0.2048-1.501866-0.341334-1.399467-0.4096-1.297067-0.580266-1.297066-0.648534-1.194667-0.750933-0.955733-0.785067-1.7408-1.774933-1.297067-1.9456-0.546133-1.1264-0.443734-1.194667-0.3072-1.2288-0.2048-0.853333-0.238933-0.341333-0.2048-0.443734-0.341333-0.341333-0.3072-0.2048-0.341334-0.2048-0.3072-0.238933-0.341333-0.2048-0.3072-0.1024-0.341333-0.136534h-0.3072l-0.341334-0.1024h-0.4096l-0.341333 0.1024h-0.3072l-0.443733 0.136534-0.3072 0.2048-0.341334 0.1024-0.3072 0.238933-0.341333 0.2048-0.2048 0.341333-0.341333 0.2048-0.2048 0.341334-0.2048 0.341333-0.1024 0.4096-0.1024 0.341333-0.1024 0.443734v0.785066l0.2048 0.853334 0.443733 1.774933 0.6144 1.7408 0.785067 1.672533 0.955733 1.536 1.092267 1.4336 1.297066 1.297067 1.365334 1.3312 1.6384 1.194667 0.853333 0.546133 1.7408 0.887467 0.853333 0.443733 0.989867 0.443733 0.955733 0.341334 0.989867 0.341333 0.955733 0.3072 0.989867 0.2048 0.955733 0.238933 1.092267 0.2048 1.058133 0.1024 1.092267 0.136534 1.058133 0.1024 1.092267 0.1024h1.194667l1.706666-0.1024 1.6384-0.1024 1.604267-0.136534 1.6384-0.2048 1.501867-0.341333 1.501866-0.443733 1.399467-0.443734 1.297067-0.4096 2.594133-1.365333 1.194667-0.6144 1.160533-0.785067 1.092267-0.887466 0.989866-0.989867 0.955734-0.989867 0.955733-1.092266 0.785067-0.853334 0.750933-1.024 0.648533-1.092266 1.604267-3.2768 0.443733-1.2288 0.4096-1.194667 0.443734-1.2288 0.341333-1.194667 0.2048-1.3312 0.2048-1.297066 0.238933-1.4336 0.1024-1.4336v-1.4336l0.1024-1.4336-0.1024-1.4336v-1.399467l-0.1024-1.4336-0.238933-1.3312-0.2048-1.3312-0.341333-1.297067-0.3072-1.3312-0.341334-1.194666-0.4096-1.2288-0.443733-1.194667-0.546133-1.092267-0.512-1.1264-1.3312-2.184533-1.501867-1.979733-0.853333-1.092267-0.955734-1.024-0.887466-0.955733-1.058134-0.785067-0.989866-0.853333-1.058134-0.682667-1.194666-0.648533-1.092267-0.682667-1.160533-0.4096-2.594134-0.887467-1.297066-0.341333-1.297067-0.2048-1.399467-0.1024-1.399466-0.1024-1.536-0.136533-1.160534 0.136533h-1.194666l-1.194667 0.1024-2.389333 0.443733-1.058134 0.2048-1.092266 0.341334-1.058134 0.443733-0.989866 0.341333-0.955734 0.4096-0.989866 0.546134-1.706667 1.092266-0.853333 0.682667-0.682667 0.648533 3.8912-26.146133h29.252267l0.443733-0.1024 0.4096-0.136533 0.341333-0.1024 0.4096-0.1024 0.341334-0.238934 0.341333-0.2048 0.3072-0.2048 0.2048-0.341333 0.2048-0.238933 0.238933-0.341334 0.1024-0.2048 0.2048-0.648533v-1.4336l-0.2048-0.682667-0.2048-0.2048-0.443733-0.648533-0.238933-0.2048-0.3072-0.238933-0.341334-0.2048-0.3072-0.136534-0.341333-0.2048-0.3072-0.1024h-0.4096l-0.443733-0.1024z m-47.035734 0h-44.1344l-0.750933 0.1024-0.750933 0.1024-0.546134 0.238934-0.546133 0.4096-0.341333 0.443733-0.3072 0.682667-0.1024 0.648533-0.1024 0.750933 0.1024 0.785067 0.1024 0.682667 0.341333 0.648533 0.341333 0.546133 1.024 0.682667 1.536 0.2048h37.9904l-0.238933 0.341333-0.750933 0.853334-0.750934 0.989866-0.648533 0.989867-0.750933 0.989867-0.648534 0.989866-0.750933 1.092267-0.682667 0.989867-0.7168 1.092266-1.297066 2.218667-0.750934 1.092267-0.682666 1.092266-0.6144 1.194667-0.682667 1.1264-0.6144 1.194667-0.682667 1.194666-0.7168 1.2288-0.546133 1.297067-0.682667 1.2288-0.6144 1.3312-0.648533 1.194667-1.297067 2.628266-0.546133 1.4336-0.648533 1.3312-0.648534 1.297067-0.546133 1.4336-0.6144 1.4336-0.546133 1.4336-0.682667 1.4336-0.512 1.4336-0.955733 2.525867-0.989867 2.525866-1.706667 4.8128-0.785066 2.321067-0.750934 2.321067-0.648533 2.286933-0.648533 2.218667-0.648534 2.048-0.512 2.116266-0.887466 4.164267-0.4096 1.979733-0.341334 1.877334-0.341333 1.877333-0.3072 1.877333v1.979734l0.1024 0.443733 0.238933 0.4096 0.2048 0.443733 0.2048 0.341334 0.341334 0.341333 0.341333 0.341333 0.3072 0.2048 0.341333 0.2048 0.3072 0.1024 0.4096 0.136534 0.341334 0.1024 0.443733 0.1024h0.4096l0.443733-0.1024h0.341334l0.4096-0.1024 0.341333-0.136534 0.3072-0.2048 0.443733-0.238933 0.3072-0.2048 0.341334-0.443733 0.3072-0.341334 0.2048-0.4096 0.341333-0.443733 0.1024-0.443733 0.2048-0.443734 0.238933-1.092266 0.2048-1.4336 0.2048-1.4336 0.238934-1.536 0.2048-1.4336 0.2048-1.4336 0.341333-1.4336 0.2048-1.536 0.341333-1.399467 0.3072-1.4336 0.341334-1.4336 0.3072-1.4336 0.443733-1.4336 0.341333-1.536 0.4096-1.4336 0.853334-2.8672 0.443733-1.4336 0.4096-1.399467 0.546133-1.4336 0.443734-1.4336 0.512-1.4336 0.546133-1.536 1.092267-2.8672 0.648533-1.4336 0.546133-1.4336 1.297067-2.833066 1.9456-4.3008 0.750933-1.4336 0.955734-2.048 1.092266-2.116267 1.058134-1.979733 0.989866-1.979734 1.058134-1.877333 1.092266-1.7408 1.092267-1.774933 0.955733-1.6384 1.092267-1.6384 1.058133-1.536 0.989867-1.4336 1.058133-1.4336 1.092267-1.3312 0.955733-1.297067 1.092267-1.2288 1.092267-1.092267 0.4096-0.682666 0.443733-0.512 0.341333-0.682667 0.2048-0.648533v-1.3312l-0.1024-0.682667-0.238933-0.6144-0.341333-0.546133-0.4096-0.580267-0.443734-0.4096-0.512-0.341333-0.682666-0.341334-0.6144-0.1024-0.682667-0.2048z m150.016 10.410667l-0.955733 0.443733-0.580267 0.443734-0.682666 0.341333-0.682667 0.341333-1.365333 0.648534-0.682667 0.341333-0.785067 0.2048-0.682666 0.341333-0.682667 0.2048-0.785067 0.341334-0.682666 0.2048-0.785067 0.341333-0.785067 0.2048-0.682666 0.238933-0.785067 0.2048-1.570133 0.443734-0.785067 0.2048-0.887467 0.238933-0.580266 0.1024-0.170667 0.1024-0.785067 0.136533-0.887466 0.2048-0.785067 0.2048-0.887467 0.136534-0.853333 0.1024-0.785067 0.2048-1.774933 0.238933-1.7408 0.2048-0.989867 0.136533-0.887466 0.2048-0.853334 0.2048-0.785066 0.341334-0.785067 0.341333-0.682667 0.341333-0.682666 0.4096-0.580267 0.546134-0.6144 0.443733-0.580267 0.546133-0.477866 0.682667-0.477867 0.546133-0.4096 0.750934-0.273067 0.682666-0.3072 0.750934-0.3072 0.785066-0.273066 0.989867v47.138133l0.1024 0.989867v0.989867l0.170666 0.887466 0.1024 0.853334 0.3072 0.785066 0.273067 0.785067 0.4096 0.648533 0.375467 0.682667 0.512 0.512 0.580266 0.546133 0.580267 0.443734 0.580267 0.341333 0.785066 0.2048 0.682667 0.136533 0.785067 0.1024h0.785066l0.785067-0.1024 0.853333-0.136533 0.989867-0.1024 0.887467-0.341333 0.955733-0.341334 1.024-0.3072 1.024-0.443733 1.194667-0.546133 1.058133-0.546134 1.194667-0.682666 1.262933-0.648534 0.375467-0.2048 0.887466-0.546133 1.262934-0.785067 1.365333-0.853333 1.365333-1.024 1.774934-1.194667 0.580266-1.297066 0.3072-1.024v-1.092267l-0.2048-1.092267-0.580266-0.887466-0.785067-0.546134-0.989867-0.4096-1.467733-0.443733-1.536 1.194667-1.024 0.785066-0.955733 0.750934-0.955734 0.785066-0.887466 0.648534-0.887467 0.546133-0.785067 0.546133-0.853333 0.546134-0.682667 0.443733-0.785066 0.443733-0.682667 0.341334-0.682667 0.341333-0.6144 0.3072-0.580266 0.2048-0.955734 0.238933-0.512 0.1024h-0.955733l-0.3072-0.1024h-0.2048l-0.375467-0.443733-0.2048-0.2048-0.1024-0.238933-0.068266-0.341334-0.1024-0.341333-0.1024-0.4096v-44.612267l0.2048-0.546133 0.375466-0.682667 0.375467-0.546133 0.6144-0.546133 0.477867-0.341334 0.682666-0.341333 0.785067-0.3072 0.785067-0.2048 4.096-0.580267 0.1024 1.2288 0.170666 2.525867 0.3072 2.389333 0.375467 2.4576 0.3072 2.389334 0.375467 2.423466 0.4096 2.218667 0.477866 2.286933 0.512 2.218667 0.477867 2.184533 0.375467 1.4336 0.2048 0.682667 0.477866 2.048 0.682667 2.116267 0.6144 1.979733 0.682667 1.979733 0.682666 1.8432 0.750934 1.877334 0.682666 1.877333 0.785067 1.7408 0.887467 1.774933 0.887466 1.6384 0.887467 1.774934 0.853333 1.536 1.979734 3.072 1.058133 1.536 0.989867 1.4336 1.058133 1.297066 1.160533 1.4336 1.194667 1.3312 1.160533 1.194667 1.467734 1.536 1.570133 0.136533 1.058133-0.136533 0.989867-0.341333 0.785067-0.750934 0.477866-0.989866v-1.194667l-0.2048-1.092267-0.580266-1.4336-0.955734-1.092266-0.887466-0.887467-2.3552-2.9696-0.785067-0.887467-1.365333-1.979733-0.682667-1.092267-1.365333-1.979733-0.580267-1.092267-0.682667-1.092266-0.580266-1.024-0.580267-1.058134-0.512-1.1264-0.580267-1.092266-0.955733-2.184534-0.512-1.2288-0.477867-1.092266-0.477866-1.194667-0.4096-1.1264-0.375467-1.194667-0.4096-1.194666-0.375467-1.2288-0.3072-1.194667-0.375466-1.2288-0.3072-1.194667-0.273067-1.3312-0.3072-1.194666v-0.238934l0.785067-0.341333 1.160533-0.4096 0.580267-0.341333 0.6144-0.2048 0.580266-0.341334 0.580267-0.2048 0.580267-0.341333 0.477866-0.2048 0.6144-0.341333 0.580267-0.238934 0.580267-0.341333 0.580266-0.3072 0.477867-0.341333 0.6144-0.2048 1.7408-0.989867 0.477867-0.341333 0.6144-0.341334 0.580266-0.3072 0.477867-0.341333 0.580267-0.341333 0.580266-0.4096 0.512-0.341334 1.160534-0.682666 0.477866-0.4096 0.580267-0.341334 0.887467-0.648533 0.4096-1.4336 0.170666-1.092267-0.170666-0.989866-0.4096-0.989867-0.785067-0.682667-0.785067-0.4096-0.955733-0.238933-1.365333-0.1024-0.887467 0.682667-0.477867 0.341333-0.512 0.3072-0.477866 0.443733-0.477867 0.341334-0.512 0.3072-0.477867 0.341333-0.477866 0.341333-0.477867 0.2048-0.512 0.341334-0.477867 0.3072-0.580266 0.341333-0.512 0.341333-0.477867 0.2048-0.477867 0.341334-0.477866 0.2048-0.512 0.341333-0.580267 0.2048-0.477867 0.238933-0.512 0.341334-0.477866 0.2048-0.580267 0.2048-0.477867 0.2048-0.512 0.238933-0.580266 0.341333-0.477867 0.2048-0.477867 0.1024-0.6144 0.238934-0.477866 0.2048-0.375467 0.1024-0.2048-1.092267-0.1024-0.887467-0.1024-0.989866-0.170667-0.989867-0.1024-0.853333-0.1024-1.1264-0.2048-0.955734-0.1024-1.024-0.273066-3.2768-0.1024-1.2288-0.1024-1.092266v-0.1024l0.477866-0.1024 0.682667-0.238934 0.682667-0.1024 0.785066-0.2048 0.682667-0.238933 0.580267-0.2048 0.682666-0.238933 0.682667-0.2048 0.6144-0.1024 0.580267-0.238934 0.682666-0.2048 0.580267-0.238933 0.580267-0.2048 0.477866-0.238933 0.6144-0.2048 0.580267-0.2048 0.477867-0.238934 0.477866-0.2048 0.6144-0.238933 0.477867-0.2048 0.477867-0.238933 0.4096-0.2048 0.477866-0.2048 0.375467-0.238934 0.512-0.2048 0.375467-0.238933 0.4096-0.2048 0.375466-0.238933 0.375467-0.341334 0.4096-0.2048 0.682667-0.443733 0.477866-1.536 0.1024-0.989867-0.2048-1.092266-0.375466-0.887467-0.682667-0.750933-0.887467-0.341334-0.955733-0.2048-1.297067-0.136533z m-51.268266 36.522667l-0.853334 0.1024-0.989866 0.341333-1.160534 0.648533-0.4096 1.092267-0.170666 0.682667-0.341334 0.512-0.273066 0.682666-0.273067 0.648534-0.3072 0.785066-0.273067 0.648534-0.4096 0.750933-0.3072 0.785067-0.341333 0.750933-0.4096 0.785067-0.512 0.785066-0.375467 0.853334-0.477866 0.887466-0.512 0.785067-0.477867 0.989867-0.580267 0.853333-0.512 0.887467-2.321066 3.959466-0.682667 0.989867-0.682667 1.092267-0.682666 1.024-1.365334 2.184533-0.785066 1.092267-0.682667 1.194666-0.785067 1.1264-0.785066 1.194667-1.160534 1.536 0.1024 1.774933 0.170667 1.194667 0.4096 0.989867 0.682667 0.887466 0.887466 0.546134h0.955734l0.989866-0.238934 1.058134-0.648533 0.989866-1.3312 0.785067-1.092267 0.785067-1.092266 2.048-3.310934 0.682666-0.989866 0.682667-1.092267 0.682667-0.989867 0.580266-0.989866 0.682667-0.989867 1.160533-1.979733 0.512-0.989867 0.580267-0.989867 0.477867-0.887466 0.580266-0.955734 0.512-0.887466 0.477867-1.024 0.477867-0.853334 0.4096-0.887466 0.477866-0.853334 0.2048-0.443733 0.170667-0.443733 0.4096-0.887467 0.375467-0.785067 0.3072-0.853333 0.375466-0.887467 0.3072-0.785066 0.375467-0.750934 0.3072-0.887466 0.273067-0.750934 0.3072-1.024-0.1024-1.399466-0.2048-1.024-0.375467-0.955734-0.682667-0.785066-0.989866-0.341334z m50.858666-49.2544l-1.536 0.443733-1.160533 0.341333-1.262933 0.2048-1.194667 0.341334-1.262933 0.341333-1.160534 0.2048-1.194666 0.341333-1.160534 0.2048-1.160533 0.2048-1.194667 0.341334-1.160533 0.2048-1.160533 0.238933h-0.4096l-0.785067 0.2048-1.160533 0.238933-1.058134 0.1024-1.194666 0.2048-1.160534 0.238934-1.058133 0.1024-1.194667 0.2048-1.058133 0.136533-1.092267 0.2048-1.058133 0.1024-1.194667 0.1024-1.058133 0.136533-1.092267 0.1024-1.058133 0.1024-0.989867 0.1024-1.058133 0.136534h-1.092267l-1.024 0.1024h-1.024l-1.058133 0.1024-0.887467 0.1024-0.853333 0.238933-0.785067 0.2048-0.682666 0.238933-0.785067 0.4096-0.6144 0.341334-1.160533 1.092266-0.477867 0.580267-0.4096 0.648533-0.273067 0.750934-0.3072 0.682666-0.2048 0.853334-0.170666 0.785066-0.1024 0.887467v35.84l-0.1024 1.194667-0.1024 1.194666-0.1024 1.2288-0.170667 1.092267-0.1024 1.194667-0.2048 1.092266-0.2048 1.2288-0.273067 1.092267-0.2048 1.092267-0.3072 1.1264-0.273066 1.092266-0.4096 0.989867-0.273067 1.092267-0.4096 0.989866-0.375467 1.092267-0.477866 1.024-0.4096 0.955733-0.477867 0.989867-0.477867 1.024-0.6144 0.955733-0.477866 0.989867-0.580267 0.887467-0.477867 0.853333-0.1024 0.136533-0.580266 0.887467-2.048 2.628267-0.887467 1.194666-0.4096 1.4336-0.068267 1.092267 0.068267 1.092267 0.512 1.024 0.785067 0.648533 0.853333 0.443733h1.092267l0.785066-0.136533h0.580267l1.160533-1.297067 2.3552-2.9696 0.682667-1.092266 0.682667-1.024 1.365333-2.184534 1.160533-2.184533 0.580267-1.2288 0.512-1.092267 0.477867-1.194666 0.477866-1.2288 0.477867-1.194667 0.4096-1.2288 0.375467-1.297067 0.4096-1.194666 0.3072-1.365334 0.273066-1.297066 0.3072-1.297067 0.273067-1.365333 0.2048-1.365334 0.2048-1.365333 0.2048-1.399467 0.068267-1.3312 0.1024-1.4336 0.1024-1.536v-1.4336l0.1024-1.4336v-1.536l-0.1024-1.4336v-28.228266l0.1024-1.024 0.1024-0.6144 0.273066-0.443734 0.2048-0.443733 0.4096-0.238933 0.341334-0.341334 0.6144-0.1024 0.887466-0.1024h0.955734l1.092266-0.1024h1.058134l1.092266-0.1024 1.058134-0.136533 1.092266-0.1024h1.058134l1.092266-0.1024 1.058134-0.2048 1.160533-0.136533 1.092267-0.1024 1.160533-0.1024 1.092267-0.238934 1.160533-0.1024 1.092267-0.2048 1.160533-0.238933 1.160533-0.1024 1.092267-0.2048 0.273067-0.1024 0.887466-0.136533 1.160534-0.2048 1.194666-0.238934 1.160534-0.2048 1.262933-0.2048 1.160533-0.341333 1.194667-0.2048 1.160533-0.341333 1.262934-0.238934 1.194666-0.341333 1.262934-0.2048 1.160533-0.341333 1.262933-0.3072 1.706667-0.443734 0.853333-1.092266 0.477867-1.024 0.2048-0.955734-0.1024-1.092266-0.477867-1.024-0.682666-0.750934-0.887467-0.546133-1.365333-0.546133z m-268.458666-0.682667c0 7.714133-10.9568 20.343467-24.029867 20.343467h-24.917333l-6.929067 20.241066c-3.310933 8.772267-6.621867 13.653333-18.0224 14.062934l-11.912533 0.443733-8.260267 0.341333a4800.546133 4800.546133 0 0 0 17.271467-55.3984h76.8z m201.216 25.1904l-1.092267 0.1024-0.955733 0.341333-0.887467 0.785067-0.375467 1.092267-0.1024 1.092266 0.273067 1.194667 0.580267 1.4336 0.785066 0.546133 0.4096 0.341334 0.375467 0.2048 0.477867 0.341333 0.4096 0.341333 0.477866 0.341334 0.4096 0.3072 0.477867 0.341333 0.955733 0.648533 0.512 0.341334 0.955734 0.750933 0.512 0.341333 0.477866 0.443734 0.477867 0.341333 0.512 0.4096 0.580267 0.443733 0.477866 0.341334 0.580267 0.443733 0.512 0.443733 1.160533 0.853334 0.477867 0.443733 1.194667 0.887467 0.580266 0.546133 1.160534 0.887467 0.580266 0.546133 0.682667 0.546133 0.785067 0.682667 1.092266 0.1024h1.058134l0.887466-0.443733 0.682667-0.682667 0.477867-0.853333 0.2048-1.1264v-1.092267l-0.2048-1.6384-0.785067-0.682667-0.375467-0.4096-0.512-0.341333-0.341333-0.443733-0.512-0.341334-0.4096-0.4096-0.477867-0.341333-0.477866-0.443733-0.512-0.341334-0.477867-0.4096-0.477867-0.341333-0.477866-0.443733-0.512-0.341334-0.955734-0.853333-0.512-0.341333-0.580266-0.443734-0.477867-0.443733-0.580267-0.341333-0.512-0.443734-0.580266-0.4096-0.580267-0.341333-0.477867-0.443733-0.6144-0.443734-0.580266-0.341333-1.7408-1.297067-0.580267-0.341333-0.682667-0.4096-0.6144-0.443733-0.853333-0.546134-1.365333-0.238933z m3.310933-25.156267l-1.365333 0.1024-0.989867 0.2048-0.853333 0.546134-0.6144 1.024-0.273067 0.955733v1.2288l0.273067 1.092267 0.6144 1.536 1.365333 0.887466 0.955733 0.682667 0.887467 0.6144 0.989867 0.682667 0.955733 0.682666 0.887467 0.6144 0.955733 0.682667 0.887467 0.750933 1.774933 1.3312 0.853333 0.785067 0.887467 0.648533 0.887467 0.750934 0.785066 0.682666 0.887467 0.750934 1.058133 1.024h0.4096l0.785067 0.068266 0.955733-0.1024 0.887467-0.341333 0.682667-0.648533 0.477866-0.989867 0.2048-0.989867v-1.092266l-0.2048-1.6384-1.160533-1.092267-0.887467-0.785067-0.887466-0.750933-0.853334-0.682667-0.887466-0.750933-0.989867-0.785067-0.853333-0.750933-1.024-0.785067-0.955734-0.785066-0.955733-0.648534-0.989867-0.750933-1.058133-0.785067-1.024-0.785066-1.024-0.750934-1.092267-0.785066-1.365333-0.853334zM493.499733 170.666667c9.1136 0 13.9264 2.56 14.336 7.714133l-0.034133 2.389333v22.6304h0.068267l0.034133-7.133866h16.384v7.133866h0.068267l0.034133-22.664533-0.068267-2.3552c0.443733-5.12 5.256533-7.714133 14.370134-7.714133 7.953067 0 30.72 1.501867 62.737066 10.069333 11.298133 3.072 29.218133 9.8304 53.725867 20.411733l5.188267 2.2528 110.08 0.034134c52.497067 0 88.200533 71.68 111.240533 122.333866L138.069333 325.7344C174.08 251.118933 215.210667 210.363733 261.495467 203.434667l110.2848-0.034134 5.256533-2.2528c24.507733-10.581333 42.427733-17.373867 53.725867-20.411733C462.848 172.168533 485.546667 170.666667 493.499733 170.666667z m6.212267 8.533333h-8.192v17.066667h8.192v-17.066667z m-16.145067 0c-11.025067 0.6144-16.520533 1.4336-16.520533 2.525867 0 1.092267-0.341333 3.447467-0.9216 7.031466l-14.677333 1.877334-0.682667-7.099734-16.5888 5.2224v7.509334h49.390933v-17.066667z m57.105067 0h-8.192v17.066667h8.192v-17.066667z m7.953067 0v17.066667h49.390933v-7.509334l-16.5888-5.2224-0.682667 7.099734-14.677333-1.877334a54.954667 54.954667 0 0 1-0.9216-7.031466c0-1.092267-5.495467-1.911467-16.520533-2.525867z m127.829333 342.493867v23.210666c-0.546133 0.955733-1.092267 0.955733-1.672533 0V525.653333a18.261333 18.261333 0 0 1-2.218667 4.232534c-0.750933 0.580267-1.194667 0.4096-1.365333-0.546134 3.140267-6.2464 4.983467-12.014933 5.5296-17.3056 0.546133-0.750933 1.1264-0.750933 1.672533 0a52.258133 52.258133 0 0 1-1.9456 9.659734z m-109.8752-8.874667c0.785067 0.580267 0.785067 1.160533 0 1.774933h-18.158933c-0.750933-0.6144-0.750933-1.194667 0-1.809066h18.158933z m134.314667 8.567467h-5.0176v3.6864h3.345066c1.297067 0.2048 1.8432-0.341333 1.672534-1.706667v-1.979733z m-5.0176-5.358934v3.6864h5.0176v-1.979733c0.170667-1.160533-0.375467-1.706667-1.706667-1.706667h-3.310933z m-151.483734 0.341334c0.580267 0.989867 0.3072 1.570133-0.853333 1.774933a103.5264 103.5264 0 0 0-5.461333-4.437333c-0.785067-1.024-0.477867-1.604267 0.853333-1.809067 1.911467 1.365333 3.754667 2.8672 5.461333 4.437333z m-3.413333 7.714133c1.877333 0 2.730667 1.092267 2.56 3.242667v10.103466c3.072 4.744533 6.929067 7.031467 11.537067 6.826667h14.9504c0.989867 0.580267 0.989867 1.194667 0 1.774933h-14.677334a13.346133 13.346133 0 0 1-11.810133-5.3248 14.336 14.336 0 0 1-5.188267 5.0176c-0.955733 0.2048-1.365333-0.2048-1.160533-1.194666 3.4816-2.56 5.0176-4.744533 4.608-6.485334v-10.410666c0.2048-1.194667-0.273067-1.774933-1.4336-1.774934h-3.1744c-0.750933-0.580267-0.750933-1.194667 0-1.774933h3.754667z m71.441067-11.741867v6.3488h6.144c2.1504 0 3.140267 0.955733 2.935466 2.8672 0.2048 11.537067-0.2048 18.5344-1.160533 21.026134-0.989867 2.901333-3.720533 3.3792-8.192 1.4336-0.580267-0.955733-0.4096-1.536 0.580267-1.706667 3.515733 1.536 5.563733 1.2288 6.144-0.853333 0.785067-2.901333 1.058133-9.3184 0.887466-19.319467 0.170667-1.160533-0.4096-1.706667-1.774933-1.706667h-5.563733c0.2048 11.127467-2.048 19.456-6.724267 25.053867-1.160533 0.341333-1.6384 0-1.467733-1.160533 4.5056-5.188267 6.656-13.141333 6.4512-23.893334h-4.4032c-1.160533-0.580267-1.160533-1.160533 0-1.7408h4.4032v-6.3488c0.580267-1.160533 1.160533-1.160533 1.7408 0z m121.173333-0.8192a21.4016 21.4016 0 0 1 1.160533 3.106134h13.312c0.750933 0.580267 0.750933 1.1264 0 1.706666h-12.1856v3.413334h7.645867c2.4576 0 3.584 0.8192 3.413333 2.525866v1.979734h3.413334c0.546133 0.546133 0.546133 1.1264 0 1.706666h-3.413334v1.706667c0.341333 2.048-0.580267 2.9696-2.8672 2.798933h-8.192v1.399467c3.584 4.9152 8.021333 8.772267 13.312 11.605333 0.750933 0.750933 0.477867 1.2288-0.853333 1.399467a32.9728 32.9728 0 0 1-12.458667-10.4448v8.772267c0.170667 1.1264-0.375467 1.877333-1.706666 2.2528a14.267733 14.267733 0 0 1-6.2464-0.853334c-0.546133-0.955733-0.341333-1.501867 0.580266-1.706666 4.164267 1.501867 6.0416 1.4336 5.666134-0.273067v-12.151467h-9.352534c-0.750933-0.580267-0.750933-1.1264 0-1.706666h9.352534v-2.833067h-12.1856c-0.750933-0.546133-0.750933-1.1264 0-1.706667h12.1856v-2.798933h-9.352534c-0.750933-0.580267-0.750933-1.1264 0-1.706667h9.352534v-3.413333h-11.605334c-1.1264 0-1.706667 0.6144-1.706666 1.706667v8.4992c0.2048 6.9632-0.682667 12.731733-2.56 17.237333-0.9216 0.750933-1.501867 0.580267-1.706667-0.546133 1.911467-4.9152 2.730667-10.581333 2.56-16.964267v-8.772267c0-1.877333 0.955733-2.833067 2.833067-2.833066h11.0592a11.707733 11.707733 0 0 0-0.853334-2.2528c0.170667-0.955733 0.682667-1.2288 1.399467-0.853334z m11.605333 14.404267h-9.3184v2.833067h7.918934c1.160533 0.2048 1.604267-0.341333 1.4336-1.706667v-1.1264z m-9.3184-4.5056v2.833067h9.352534v-1.1264c0.170667-1.1264-0.375467-1.706667-1.706667-1.706667h-7.645867z m-6.519466 13.550933c0.580267 1.160533 0.273067 1.604267-0.853334 1.4336a41.949867 41.949867 0 0 0-5.12-3.106133c-0.546133-1.1264-0.273067-1.604267 0.887467-1.4336 2.048 0.955733 3.754667 1.979733 5.085867 3.106133z m17.271466-3.959466c1.160533 0 1.501867 0.477867 1.160534 1.4336-1.706667 1.501867-3.7888 3.003733-6.2464 4.5056-1.1264 0-1.4336-0.443733-0.853334-1.399467a32.3584 32.3584 0 0 0 5.9392-4.539733z m-14.711466 6.2464c-2.833067 2.2528-6.144 4.437333-9.898667 6.485333-1.160533 0-1.4336-0.477867-0.887467-1.399467 3.754667-2.048 7.099733-4.266667 9.898667-6.485333 1.160533 0 1.4336 0.443733 0.887467 1.365333z m-83.899734-12.970667a2.6624 2.6624 0 0 0-2.525866-2.6624 2.6624 2.6624 0 0 0-2.56 2.696533c0 1.501867 1.160533 2.6624 2.56 2.6624 1.365333 0 2.525867-1.160533 2.525866-2.6624z m-43.485866 0.443733c0.785067 0.580267 0.785067 1.160533 0 1.706667h-8.192a46.865067 46.865067 0 0 1-4.096 14.4384c3.106133-0.375467 6.3488-0.955733 9.659733-1.7408a56.558933 56.558933 0 0 0-2.628267-7.168c0.170667-0.989867 0.785067-1.194667 1.7408-0.6144 1.570133 3.652267 2.730667 7.5776 3.515734 11.810133-0.4096 0.955733-0.989867 1.058133-1.7408 0.3072a17.851733 17.851733 0 0 1-0.6144-2.594133 123.869867 123.869867 0 0 1-11.9808 2.013867c-0.785067-0.2048-0.887467-0.785067-0.3072-1.706667 2.1504-3.072 3.720533-7.9872 4.7104-14.711467h-6.485334c-0.955733-0.375467-0.955733-0.955733 0-1.706666h16.384z m-1.7408-8.635733c0.955733 0.580267 0.955733 1.160533 0 1.706667h-11.707734c-0.989867-0.546133-0.989867-1.1264 0-1.706667h11.707734z" p-id="18732" fill="#66ABFF"></path></svg>