<?xml version="1.0" standalone="no"?><!DOCTYPE svg PUBLIC "-//W3C//DTD SVG 1.1//EN" "http://www.w3.org/Graphics/SVG/1.1/DTD/svg11.dtd"><svg t="1626345045672" class="icon" viewBox="0 0 1024 1024" version="1.1" xmlns="http://www.w3.org/2000/svg" p-id="37067" width="48" height="48" xmlns:xlink="http://www.w3.org/1999/xlink"><defs><style type="text/css"></style></defs><path d="M931.279 235.882c-10.207-10.154-23.765-15.747-38.183-15.747-14.419 0-27.98 5.59-38.188 15.747L390.991 697.526 169.084 476.707c-10.204-10.145-23.762-15.734-38.177-15.734-14.419 0-27.979 5.592-38.181 15.744-10.216 10.164-15.844 23.679-15.844 38.062-0.002 14.383 5.626 27.901 15.844 38.07l260.085 258.806c10.204 10.149 23.764 15.74 38.18 15.74 14.421 0 27.979-5.591 38.18-15.744l502.108-499.638c10.216-10.168 15.844-23.688 15.839-38.073 0-14.381-5.628-27.897-15.839-38.058z" p-id="37068" fill="#ffffff"></path></svg>