<?xml version="1.0" standalone="no"?><!DOCTYPE svg PUBLIC "-//W3C//DTD SVG 1.1//EN" "http://www.w3.org/Graphics/SVG/1.1/DTD/svg11.dtd"><svg t="1616650685045" class="icon" viewBox="0 0 1024 1024" version="1.1" xmlns="http://www.w3.org/2000/svg" p-id="16978" xmlns:xlink="http://www.w3.org/1999/xlink" width="128" height="128"><defs><style type="text/css"></style></defs><path d="M750.933 34.133c-98.986 0-179.2 80.214-179.2 179.2 0 24.214 4.907 47.254 13.654 68.267l-178.88 111.787c-32.854-36.907-80.214-60.587-133.44-60.587-98.987 0-179.2 80.213-179.2 179.2s80.213 179.2 179.2 179.2c53.226 0 100.586-23.68 133.44-60.587L585.387 742.4c-8.747 21.013-13.654 44.053-13.654 68.267 0 98.986 80.214 179.2 179.2 179.2s179.2-80.214 179.2-179.2-80.213-179.2-179.2-179.2c-53.226 0-100.586 23.68-133.44 60.586l-178.88-111.786c8.747-21.014 13.654-44.054 13.654-68.267s-4.907-47.253-13.654-68.267l178.88-111.786c32.854 36.906 80.214 60.586 133.44 60.586 98.987 0 179.2-80.213 179.2-179.2s-80.213-179.2-179.2-179.2z m0 298.667c-65.92 0-119.466-53.547-119.466-119.467S685.013 93.867 750.933 93.867 870.4 147.413 870.4 213.333 816.853 332.8 750.933 332.8zM273.067 631.467C207.147 631.467 153.6 577.92 153.6 512s53.547-119.467 119.467-119.467S392.533 446.08 392.533 512s-53.546 119.467-119.466 119.467z m477.866 298.666c-65.92 0-119.466-53.546-119.466-119.466S685.013 691.2 750.933 691.2 870.4 744.747 870.4 810.667s-53.547 119.466-119.467 119.466z" p-id="16979"></path></svg>