<?xml version="1.0" standalone="no"?><!DOCTYPE svg PUBLIC "-//W3C//DTD SVG 1.1//EN" "http://www.w3.org/Graphics/SVG/1.1/DTD/svg11.dtd"><svg t="1614327393171" class="icon" viewBox="0 0 1024 1024" version="1.1" xmlns="http://www.w3.org/2000/svg" p-id="16915" xmlns:xlink="http://www.w3.org/1999/xlink" width="128" height="128"><defs><style type="text/css"></style></defs><path d="M417.3824 217.122133l189.576533 0.034134c9.898667-0.1024 19.626667 2.901333 27.613867 9.147733l3.822933 3.413333 217.565867 217.565867c15.872 15.872 18.432 41.6768 4.130133 58.9824a43.008 43.008 0 0 1-60.2112 6.2464l-3.447466-3.072-172.578134-172.612267-19.387733 67.310934a189.201067 189.201067 0 0 0 0 104.6528c11.264 39.048533 17.646933 79.291733 19.080533 119.808l0.3072 17.408v300.8512a43.008 43.008 0 0 1-47.240533 42.8032c-20.8896-1.979733-36.590933-19.592533-38.570667-40.209067l-0.238933-4.437333v-317.371734l-0.238933-3.4816a25.8048 25.8048 0 0 0-51.131734 0l-0.238933 3.4816v319.214934a43.008 43.008 0 0 1-47.240533 42.8032c-20.855467-1.979733-36.590933-19.592533-38.570667-40.209067l-0.238933-4.437333v-299.008c0-46.421333 6.519467-92.603733 19.387733-137.216 8.874667-30.754133 9.728-63.214933 2.628267-94.344534l-2.628267-10.308266-19.387733-67.310934-172.544 172.578134a43.008 43.008 0 0 1-63.6928-3.140267c-13.312-16.042667-12.014933-39.458133 0.955733-55.432533l3.208533-3.549867 217.531734-217.565867c8.567467-8.567467 19.8656-12.6976 31.095466-12.526933l0.682667-0.068267zM352.597333 432.128l41.984 41.984a10.24 10.24 0 0 1 0 14.472533l-41.984 41.984a5.12 5.12 0 0 1-8.738133-3.652266v-25.088H296.516267a20.48 20.48 0 0 1 0-40.96h47.342933v-25.122134c0-4.539733 5.5296-6.826667 8.738133-3.618133z m327.2704 2.048l0.238934 1.570133v25.088h47.342933a20.48 20.48 0 0 1 3.310933 40.721067l-3.310933 0.273067h-47.342933v25.088a5.12 5.12 0 0 1-7.441067 4.573866l-1.297067-0.955733-41.949866-41.984a10.24 10.24 0 0 1-1.467734-12.629333l1.467734-1.8432 41.949866-41.949867a5.12 5.12 0 0 1 8.533334 2.048zM512 34.133333a79.633067 79.633067 0 1 1 0 159.266134A79.633067 79.633067 0 0 1 512 34.133333z" p-id="16916" fill="#ffffff"></path></svg>